G04 EAGLE Gerber RS-274X export*
G75*
%MOMM*%
%FSLAX34Y34*%
%LPD*%
%IN*%
%IPPOS*%
%AMOC8*
5,1,8,0,0,1.08239X$1,22.5*%
G01*
%ADD10C,0.254000*%


D10*
X0Y25654D02*
X97Y23440D01*
X386Y21243D01*
X865Y19080D01*
X1532Y16967D01*
X2380Y14920D01*
X3403Y12954D01*
X4594Y11085D01*
X5942Y9327D01*
X7440Y7694D01*
X9073Y6196D01*
X10831Y4848D01*
X12700Y3657D01*
X14666Y2634D01*
X16713Y1786D01*
X18826Y1119D01*
X20989Y640D01*
X23186Y351D01*
X25400Y254D01*
X952500Y254D01*
X954714Y351D01*
X956911Y640D01*
X959074Y1119D01*
X961187Y1786D01*
X963235Y2634D01*
X965200Y3657D01*
X967069Y4848D01*
X968827Y6196D01*
X970461Y7694D01*
X971958Y9327D01*
X973306Y11085D01*
X974497Y12954D01*
X975520Y14920D01*
X976368Y16967D01*
X977035Y19080D01*
X977514Y21243D01*
X977803Y23440D01*
X977900Y25654D01*
X977900Y463804D01*
X977803Y466018D01*
X977514Y468215D01*
X977035Y470378D01*
X976368Y472491D01*
X975520Y474539D01*
X974497Y476504D01*
X973306Y478373D01*
X971958Y480131D01*
X970461Y481765D01*
X968827Y483262D01*
X967069Y484610D01*
X965200Y485801D01*
X963235Y486824D01*
X961187Y487672D01*
X959074Y488339D01*
X956911Y488818D01*
X954714Y489107D01*
X952500Y489204D01*
X952500Y499110D01*
X954714Y499207D01*
X956911Y499496D01*
X959074Y499975D01*
X961187Y500642D01*
X963235Y501490D01*
X965200Y502513D01*
X967069Y503704D01*
X968827Y505052D01*
X970461Y506550D01*
X971958Y508183D01*
X973306Y509941D01*
X974497Y511810D01*
X975520Y513776D01*
X976368Y515823D01*
X977035Y517936D01*
X977514Y520099D01*
X977803Y522296D01*
X977900Y524510D01*
X977900Y963930D01*
X977803Y966144D01*
X977514Y968341D01*
X977035Y970504D01*
X976368Y972617D01*
X975520Y974665D01*
X974497Y976630D01*
X973306Y978499D01*
X971958Y980257D01*
X970461Y981891D01*
X968827Y983388D01*
X967069Y984736D01*
X965200Y985927D01*
X963235Y986950D01*
X961187Y987798D01*
X959074Y988465D01*
X956911Y988944D01*
X954714Y989233D01*
X952500Y989330D01*
X25400Y989330D01*
X23186Y989233D01*
X20989Y988944D01*
X18826Y988465D01*
X16713Y987798D01*
X14666Y986950D01*
X12700Y985927D01*
X10831Y984736D01*
X9073Y983388D01*
X7440Y981891D01*
X5942Y980257D01*
X4594Y978499D01*
X3403Y976630D01*
X2380Y974665D01*
X1532Y972617D01*
X865Y970504D01*
X386Y968341D01*
X97Y966144D01*
X0Y963930D01*
X0Y524510D01*
X97Y522296D01*
X386Y520099D01*
X865Y517936D01*
X1532Y515823D01*
X2380Y513776D01*
X3403Y511810D01*
X4594Y509941D01*
X5942Y508183D01*
X7440Y506550D01*
X9073Y505052D01*
X10831Y503704D01*
X12700Y502513D01*
X14666Y501490D01*
X16713Y500642D01*
X18826Y499975D01*
X20989Y499496D01*
X23186Y499207D01*
X25400Y499110D01*
X25400Y489204D01*
X23186Y489107D01*
X20989Y488818D01*
X18826Y488339D01*
X16713Y487672D01*
X14666Y486824D01*
X12700Y485801D01*
X10831Y484610D01*
X9073Y483262D01*
X7440Y481765D01*
X5942Y480131D01*
X4594Y478373D01*
X3403Y476504D01*
X2380Y474539D01*
X1532Y472491D01*
X865Y470378D01*
X386Y468215D01*
X97Y466018D01*
X0Y463804D01*
X0Y25654D01*
X53340Y950686D02*
X53262Y949600D01*
X53107Y948522D01*
X52876Y947459D01*
X52569Y946414D01*
X52189Y945394D01*
X51737Y944404D01*
X51215Y943449D01*
X50626Y942533D01*
X49974Y941661D01*
X49261Y940839D01*
X48491Y940069D01*
X47669Y939356D01*
X46797Y938704D01*
X45881Y938115D01*
X44926Y937593D01*
X43936Y937141D01*
X42916Y936761D01*
X41871Y936454D01*
X40808Y936223D01*
X39730Y936068D01*
X38644Y935990D01*
X37556Y935990D01*
X36470Y936068D01*
X35392Y936223D01*
X34329Y936454D01*
X33284Y936761D01*
X32264Y937141D01*
X31274Y937593D01*
X30319Y938115D01*
X29403Y938704D01*
X28531Y939356D01*
X27709Y940069D01*
X26939Y940839D01*
X26226Y941661D01*
X25574Y942533D01*
X24985Y943449D01*
X24463Y944404D01*
X24011Y945394D01*
X23631Y946414D01*
X23324Y947459D01*
X23093Y948522D01*
X22938Y949600D01*
X22860Y950686D01*
X22860Y951774D01*
X22938Y952860D01*
X23093Y953938D01*
X23324Y955001D01*
X23631Y956046D01*
X24011Y957066D01*
X24463Y958056D01*
X24985Y959011D01*
X25574Y959927D01*
X26226Y960799D01*
X26939Y961621D01*
X27709Y962391D01*
X28531Y963104D01*
X29403Y963756D01*
X30319Y964345D01*
X31274Y964867D01*
X32264Y965319D01*
X33284Y965699D01*
X34329Y966006D01*
X35392Y966237D01*
X36470Y966392D01*
X37556Y966470D01*
X38644Y966470D01*
X39730Y966392D01*
X40808Y966237D01*
X41871Y966006D01*
X42916Y965699D01*
X43936Y965319D01*
X44926Y964867D01*
X45881Y964345D01*
X46797Y963756D01*
X47669Y963104D01*
X48491Y962391D01*
X49261Y961621D01*
X49974Y960799D01*
X50626Y959927D01*
X51215Y959011D01*
X51737Y958056D01*
X52189Y957066D01*
X52569Y956046D01*
X52876Y955001D01*
X53107Y953938D01*
X53262Y952860D01*
X53340Y951774D01*
X53340Y950686D01*
X53340Y536666D02*
X53262Y535580D01*
X53107Y534502D01*
X52876Y533439D01*
X52569Y532394D01*
X52189Y531374D01*
X51737Y530384D01*
X51215Y529429D01*
X50626Y528513D01*
X49974Y527641D01*
X49261Y526819D01*
X48491Y526049D01*
X47669Y525336D01*
X46797Y524684D01*
X45881Y524095D01*
X44926Y523573D01*
X43936Y523121D01*
X42916Y522741D01*
X41871Y522434D01*
X40808Y522203D01*
X39730Y522048D01*
X38644Y521970D01*
X37556Y521970D01*
X36470Y522048D01*
X35392Y522203D01*
X34329Y522434D01*
X33284Y522741D01*
X32264Y523121D01*
X31274Y523573D01*
X30319Y524095D01*
X29403Y524684D01*
X28531Y525336D01*
X27709Y526049D01*
X26939Y526819D01*
X26226Y527641D01*
X25574Y528513D01*
X24985Y529429D01*
X24463Y530384D01*
X24011Y531374D01*
X23631Y532394D01*
X23324Y533439D01*
X23093Y534502D01*
X22938Y535580D01*
X22860Y536666D01*
X22860Y537754D01*
X22938Y538840D01*
X23093Y539918D01*
X23324Y540981D01*
X23631Y542026D01*
X24011Y543046D01*
X24463Y544036D01*
X24985Y544991D01*
X25574Y545907D01*
X26226Y546779D01*
X26939Y547601D01*
X27709Y548371D01*
X28531Y549084D01*
X29403Y549736D01*
X30319Y550325D01*
X31274Y550847D01*
X32264Y551299D01*
X33284Y551679D01*
X34329Y551986D01*
X35392Y552217D01*
X36470Y552372D01*
X37556Y552450D01*
X38644Y552450D01*
X39730Y552372D01*
X40808Y552217D01*
X41871Y551986D01*
X42916Y551679D01*
X43936Y551299D01*
X44926Y550847D01*
X45881Y550325D01*
X46797Y549736D01*
X47669Y549084D01*
X48491Y548371D01*
X49261Y547601D01*
X49974Y546779D01*
X50626Y545907D01*
X51215Y544991D01*
X51737Y544036D01*
X52189Y543046D01*
X52569Y542026D01*
X52876Y540981D01*
X53107Y539918D01*
X53262Y538840D01*
X53340Y537754D01*
X53340Y536666D01*
X955040Y536666D02*
X954962Y535580D01*
X954807Y534502D01*
X954576Y533439D01*
X954269Y532394D01*
X953889Y531374D01*
X953437Y530384D01*
X952915Y529429D01*
X952326Y528513D01*
X951674Y527641D01*
X950961Y526819D01*
X950191Y526049D01*
X949369Y525336D01*
X948497Y524684D01*
X947581Y524095D01*
X946626Y523573D01*
X945636Y523121D01*
X944616Y522741D01*
X943571Y522434D01*
X942508Y522203D01*
X941430Y522048D01*
X940344Y521970D01*
X939256Y521970D01*
X938170Y522048D01*
X937092Y522203D01*
X936029Y522434D01*
X934984Y522741D01*
X933964Y523121D01*
X932974Y523573D01*
X932019Y524095D01*
X931103Y524684D01*
X930231Y525336D01*
X929409Y526049D01*
X928639Y526819D01*
X927926Y527641D01*
X927274Y528513D01*
X926685Y529429D01*
X926163Y530384D01*
X925711Y531374D01*
X925331Y532394D01*
X925024Y533439D01*
X924793Y534502D01*
X924638Y535580D01*
X924560Y536666D01*
X924560Y537754D01*
X924638Y538840D01*
X924793Y539918D01*
X925024Y540981D01*
X925331Y542026D01*
X925711Y543046D01*
X926163Y544036D01*
X926685Y544991D01*
X927274Y545907D01*
X927926Y546779D01*
X928639Y547601D01*
X929409Y548371D01*
X930231Y549084D01*
X931103Y549736D01*
X932019Y550325D01*
X932974Y550847D01*
X933964Y551299D01*
X934984Y551679D01*
X936029Y551986D01*
X937092Y552217D01*
X938170Y552372D01*
X939256Y552450D01*
X940344Y552450D01*
X941430Y552372D01*
X942508Y552217D01*
X943571Y551986D01*
X944616Y551679D01*
X945636Y551299D01*
X946626Y550847D01*
X947581Y550325D01*
X948497Y549736D01*
X949369Y549084D01*
X950191Y548371D01*
X950961Y547601D01*
X951674Y546779D01*
X952326Y545907D01*
X952915Y544991D01*
X953437Y544036D01*
X953889Y543046D01*
X954269Y542026D01*
X954576Y540981D01*
X954807Y539918D01*
X954962Y538840D01*
X955040Y537754D01*
X955040Y536666D01*
X955040Y950686D02*
X954962Y949600D01*
X954807Y948522D01*
X954576Y947459D01*
X954269Y946414D01*
X953889Y945394D01*
X953437Y944404D01*
X952915Y943449D01*
X952326Y942533D01*
X951674Y941661D01*
X950961Y940839D01*
X950191Y940069D01*
X949369Y939356D01*
X948497Y938704D01*
X947581Y938115D01*
X946626Y937593D01*
X945636Y937141D01*
X944616Y936761D01*
X943571Y936454D01*
X942508Y936223D01*
X941430Y936068D01*
X940344Y935990D01*
X939256Y935990D01*
X938170Y936068D01*
X937092Y936223D01*
X936029Y936454D01*
X934984Y936761D01*
X933964Y937141D01*
X932974Y937593D01*
X932019Y938115D01*
X931103Y938704D01*
X930231Y939356D01*
X929409Y940069D01*
X928639Y940839D01*
X927926Y941661D01*
X927274Y942533D01*
X926685Y943449D01*
X926163Y944404D01*
X925711Y945394D01*
X925331Y946414D01*
X925024Y947459D01*
X924793Y948522D01*
X924638Y949600D01*
X924560Y950686D01*
X924560Y951774D01*
X924638Y952860D01*
X924793Y953938D01*
X925024Y955001D01*
X925331Y956046D01*
X925711Y957066D01*
X926163Y958056D01*
X926685Y959011D01*
X927274Y959927D01*
X927926Y960799D01*
X928639Y961621D01*
X929409Y962391D01*
X930231Y963104D01*
X931103Y963756D01*
X932019Y964345D01*
X932974Y964867D01*
X933964Y965319D01*
X934984Y965699D01*
X936029Y966006D01*
X937092Y966237D01*
X938170Y966392D01*
X939256Y966470D01*
X940344Y966470D01*
X941430Y966392D01*
X942508Y966237D01*
X943571Y966006D01*
X944616Y965699D01*
X945636Y965319D01*
X946626Y964867D01*
X947581Y964345D01*
X948497Y963756D01*
X949369Y963104D01*
X950191Y962391D01*
X950961Y961621D01*
X951674Y960799D01*
X952326Y959927D01*
X952915Y959011D01*
X953437Y958056D01*
X953889Y957066D01*
X954269Y956046D01*
X954576Y955001D01*
X954807Y953938D01*
X954962Y952860D01*
X955040Y951774D01*
X955040Y950686D01*
X53340Y37810D02*
X53262Y36724D01*
X53107Y35646D01*
X52876Y34583D01*
X52569Y33538D01*
X52189Y32518D01*
X51737Y31528D01*
X51215Y30573D01*
X50626Y29657D01*
X49974Y28785D01*
X49261Y27963D01*
X48491Y27193D01*
X47669Y26480D01*
X46797Y25828D01*
X45881Y25239D01*
X44926Y24717D01*
X43936Y24265D01*
X42916Y23885D01*
X41871Y23578D01*
X40808Y23347D01*
X39730Y23192D01*
X38644Y23114D01*
X37556Y23114D01*
X36470Y23192D01*
X35392Y23347D01*
X34329Y23578D01*
X33284Y23885D01*
X32264Y24265D01*
X31274Y24717D01*
X30319Y25239D01*
X29403Y25828D01*
X28531Y26480D01*
X27709Y27193D01*
X26939Y27963D01*
X26226Y28785D01*
X25574Y29657D01*
X24985Y30573D01*
X24463Y31528D01*
X24011Y32518D01*
X23631Y33538D01*
X23324Y34583D01*
X23093Y35646D01*
X22938Y36724D01*
X22860Y37810D01*
X22860Y38898D01*
X22938Y39984D01*
X23093Y41062D01*
X23324Y42125D01*
X23631Y43170D01*
X24011Y44190D01*
X24463Y45180D01*
X24985Y46135D01*
X25574Y47051D01*
X26226Y47923D01*
X26939Y48745D01*
X27709Y49515D01*
X28531Y50228D01*
X29403Y50880D01*
X30319Y51469D01*
X31274Y51991D01*
X32264Y52443D01*
X33284Y52823D01*
X34329Y53130D01*
X35392Y53361D01*
X36470Y53516D01*
X37556Y53594D01*
X38644Y53594D01*
X39730Y53516D01*
X40808Y53361D01*
X41871Y53130D01*
X42916Y52823D01*
X43936Y52443D01*
X44926Y51991D01*
X45881Y51469D01*
X46797Y50880D01*
X47669Y50228D01*
X48491Y49515D01*
X49261Y48745D01*
X49974Y47923D01*
X50626Y47051D01*
X51215Y46135D01*
X51737Y45180D01*
X52189Y44190D01*
X52569Y43170D01*
X52876Y42125D01*
X53107Y41062D01*
X53262Y39984D01*
X53340Y38898D01*
X53340Y37810D01*
X53340Y451830D02*
X53262Y450744D01*
X53107Y449666D01*
X52876Y448603D01*
X52569Y447558D01*
X52189Y446538D01*
X51737Y445548D01*
X51215Y444593D01*
X50626Y443677D01*
X49974Y442805D01*
X49261Y441983D01*
X48491Y441213D01*
X47669Y440500D01*
X46797Y439848D01*
X45881Y439259D01*
X44926Y438737D01*
X43936Y438285D01*
X42916Y437905D01*
X41871Y437598D01*
X40808Y437367D01*
X39730Y437212D01*
X38644Y437134D01*
X37556Y437134D01*
X36470Y437212D01*
X35392Y437367D01*
X34329Y437598D01*
X33284Y437905D01*
X32264Y438285D01*
X31274Y438737D01*
X30319Y439259D01*
X29403Y439848D01*
X28531Y440500D01*
X27709Y441213D01*
X26939Y441983D01*
X26226Y442805D01*
X25574Y443677D01*
X24985Y444593D01*
X24463Y445548D01*
X24011Y446538D01*
X23631Y447558D01*
X23324Y448603D01*
X23093Y449666D01*
X22938Y450744D01*
X22860Y451830D01*
X22860Y452918D01*
X22938Y454004D01*
X23093Y455082D01*
X23324Y456145D01*
X23631Y457190D01*
X24011Y458210D01*
X24463Y459200D01*
X24985Y460155D01*
X25574Y461071D01*
X26226Y461943D01*
X26939Y462765D01*
X27709Y463535D01*
X28531Y464248D01*
X29403Y464900D01*
X30319Y465489D01*
X31274Y466011D01*
X32264Y466463D01*
X33284Y466843D01*
X34329Y467150D01*
X35392Y467381D01*
X36470Y467536D01*
X37556Y467614D01*
X38644Y467614D01*
X39730Y467536D01*
X40808Y467381D01*
X41871Y467150D01*
X42916Y466843D01*
X43936Y466463D01*
X44926Y466011D01*
X45881Y465489D01*
X46797Y464900D01*
X47669Y464248D01*
X48491Y463535D01*
X49261Y462765D01*
X49974Y461943D01*
X50626Y461071D01*
X51215Y460155D01*
X51737Y459200D01*
X52189Y458210D01*
X52569Y457190D01*
X52876Y456145D01*
X53107Y455082D01*
X53262Y454004D01*
X53340Y452918D01*
X53340Y451830D01*
X955040Y451830D02*
X954962Y450744D01*
X954807Y449666D01*
X954576Y448603D01*
X954269Y447558D01*
X953889Y446538D01*
X953437Y445548D01*
X952915Y444593D01*
X952326Y443677D01*
X951674Y442805D01*
X950961Y441983D01*
X950191Y441213D01*
X949369Y440500D01*
X948497Y439848D01*
X947581Y439259D01*
X946626Y438737D01*
X945636Y438285D01*
X944616Y437905D01*
X943571Y437598D01*
X942508Y437367D01*
X941430Y437212D01*
X940344Y437134D01*
X939256Y437134D01*
X938170Y437212D01*
X937092Y437367D01*
X936029Y437598D01*
X934984Y437905D01*
X933964Y438285D01*
X932974Y438737D01*
X932019Y439259D01*
X931103Y439848D01*
X930231Y440500D01*
X929409Y441213D01*
X928639Y441983D01*
X927926Y442805D01*
X927274Y443677D01*
X926685Y444593D01*
X926163Y445548D01*
X925711Y446538D01*
X925331Y447558D01*
X925024Y448603D01*
X924793Y449666D01*
X924638Y450744D01*
X924560Y451830D01*
X924560Y452918D01*
X924638Y454004D01*
X924793Y455082D01*
X925024Y456145D01*
X925331Y457190D01*
X925711Y458210D01*
X926163Y459200D01*
X926685Y460155D01*
X927274Y461071D01*
X927926Y461943D01*
X928639Y462765D01*
X929409Y463535D01*
X930231Y464248D01*
X931103Y464900D01*
X932019Y465489D01*
X932974Y466011D01*
X933964Y466463D01*
X934984Y466843D01*
X936029Y467150D01*
X937092Y467381D01*
X938170Y467536D01*
X939256Y467614D01*
X940344Y467614D01*
X941430Y467536D01*
X942508Y467381D01*
X943571Y467150D01*
X944616Y466843D01*
X945636Y466463D01*
X946626Y466011D01*
X947581Y465489D01*
X948497Y464900D01*
X949369Y464248D01*
X950191Y463535D01*
X950961Y462765D01*
X951674Y461943D01*
X952326Y461071D01*
X952915Y460155D01*
X953437Y459200D01*
X953889Y458210D01*
X954269Y457190D01*
X954576Y456145D01*
X954807Y455082D01*
X954962Y454004D01*
X955040Y452918D01*
X955040Y451830D01*
X955040Y37810D02*
X954962Y36724D01*
X954807Y35646D01*
X954576Y34583D01*
X954269Y33538D01*
X953889Y32518D01*
X953437Y31528D01*
X952915Y30573D01*
X952326Y29657D01*
X951674Y28785D01*
X950961Y27963D01*
X950191Y27193D01*
X949369Y26480D01*
X948497Y25828D01*
X947581Y25239D01*
X946626Y24717D01*
X945636Y24265D01*
X944616Y23885D01*
X943571Y23578D01*
X942508Y23347D01*
X941430Y23192D01*
X940344Y23114D01*
X939256Y23114D01*
X938170Y23192D01*
X937092Y23347D01*
X936029Y23578D01*
X934984Y23885D01*
X933964Y24265D01*
X932974Y24717D01*
X932019Y25239D01*
X931103Y25828D01*
X930231Y26480D01*
X929409Y27193D01*
X928639Y27963D01*
X927926Y28785D01*
X927274Y29657D01*
X926685Y30573D01*
X926163Y31528D01*
X925711Y32518D01*
X925331Y33538D01*
X925024Y34583D01*
X924793Y35646D01*
X924638Y36724D01*
X924560Y37810D01*
X924560Y38898D01*
X924638Y39984D01*
X924793Y41062D01*
X925024Y42125D01*
X925331Y43170D01*
X925711Y44190D01*
X926163Y45180D01*
X926685Y46135D01*
X927274Y47051D01*
X927926Y47923D01*
X928639Y48745D01*
X929409Y49515D01*
X930231Y50228D01*
X931103Y50880D01*
X932019Y51469D01*
X932974Y51991D01*
X933964Y52443D01*
X934984Y52823D01*
X936029Y53130D01*
X937092Y53361D01*
X938170Y53516D01*
X939256Y53594D01*
X940344Y53594D01*
X941430Y53516D01*
X942508Y53361D01*
X943571Y53130D01*
X944616Y52823D01*
X945636Y52443D01*
X946626Y51991D01*
X947581Y51469D01*
X948497Y50880D01*
X949369Y50228D01*
X950191Y49515D01*
X950961Y48745D01*
X951674Y47923D01*
X952326Y47051D01*
X952915Y46135D01*
X953437Y45180D01*
X953889Y44190D01*
X954269Y43170D01*
X954576Y42125D01*
X954807Y41062D01*
X954962Y39984D01*
X955040Y38898D01*
X955040Y37810D01*
X134060Y644947D02*
X134004Y644525D01*
X133894Y644113D01*
X133731Y643719D01*
X133518Y643351D01*
X133259Y643013D01*
X132957Y642711D01*
X132619Y642452D01*
X132251Y642239D01*
X131857Y642076D01*
X131445Y641966D01*
X131023Y641910D01*
X130597Y641910D01*
X130175Y641966D01*
X129763Y642076D01*
X129369Y642239D01*
X129001Y642452D01*
X128663Y642711D01*
X128361Y643013D01*
X128102Y643351D01*
X127889Y643719D01*
X127726Y644113D01*
X127616Y644525D01*
X127560Y644947D01*
X127560Y645373D01*
X127616Y645795D01*
X127726Y646207D01*
X127889Y646601D01*
X128102Y646969D01*
X128361Y647307D01*
X128663Y647609D01*
X129001Y647868D01*
X129369Y648081D01*
X129763Y648244D01*
X130175Y648354D01*
X130597Y648410D01*
X131023Y648410D01*
X131445Y648354D01*
X131857Y648244D01*
X132251Y648081D01*
X132619Y647868D01*
X132957Y647609D01*
X133259Y647307D01*
X133518Y646969D01*
X133731Y646601D01*
X133894Y646207D01*
X134004Y645795D01*
X134060Y645373D01*
X134060Y644947D01*
X144220Y630977D02*
X144164Y630555D01*
X144054Y630143D01*
X143891Y629749D01*
X143678Y629381D01*
X143419Y629043D01*
X143117Y628741D01*
X142779Y628482D01*
X142411Y628269D01*
X142017Y628106D01*
X141605Y627996D01*
X141183Y627940D01*
X140757Y627940D01*
X140335Y627996D01*
X139923Y628106D01*
X139529Y628269D01*
X139161Y628482D01*
X138823Y628741D01*
X138521Y629043D01*
X138262Y629381D01*
X138049Y629749D01*
X137886Y630143D01*
X137776Y630555D01*
X137720Y630977D01*
X137720Y631403D01*
X137776Y631825D01*
X137886Y632237D01*
X138049Y632631D01*
X138262Y632999D01*
X138521Y633337D01*
X138823Y633639D01*
X139161Y633898D01*
X139529Y634111D01*
X139923Y634274D01*
X140335Y634384D01*
X140757Y634440D01*
X141183Y634440D01*
X141605Y634384D01*
X142017Y634274D01*
X142411Y634111D01*
X142779Y633898D01*
X143117Y633639D01*
X143419Y633337D01*
X143678Y632999D01*
X143891Y632631D01*
X144054Y632237D01*
X144164Y631825D01*
X144220Y631403D01*
X144220Y630977D01*
X155650Y619547D02*
X155594Y619125D01*
X155484Y618713D01*
X155321Y618319D01*
X155108Y617951D01*
X154849Y617613D01*
X154547Y617311D01*
X154209Y617052D01*
X153841Y616839D01*
X153447Y616676D01*
X153035Y616566D01*
X152613Y616510D01*
X152187Y616510D01*
X151765Y616566D01*
X151353Y616676D01*
X150959Y616839D01*
X150591Y617052D01*
X150253Y617311D01*
X149951Y617613D01*
X149692Y617951D01*
X149479Y618319D01*
X149316Y618713D01*
X149206Y619125D01*
X149150Y619547D01*
X149150Y619973D01*
X149206Y620395D01*
X149316Y620807D01*
X149479Y621201D01*
X149692Y621569D01*
X149951Y621907D01*
X150253Y622209D01*
X150591Y622468D01*
X150959Y622681D01*
X151353Y622844D01*
X151765Y622954D01*
X152187Y623010D01*
X152613Y623010D01*
X153035Y622954D01*
X153447Y622844D01*
X153841Y622681D01*
X154209Y622468D01*
X154547Y622209D01*
X154849Y621907D01*
X155108Y621569D01*
X155321Y621201D01*
X155484Y620807D01*
X155594Y620395D01*
X155650Y619973D01*
X155650Y619547D01*
X308050Y630977D02*
X307994Y630555D01*
X307884Y630143D01*
X307721Y629749D01*
X307508Y629381D01*
X307249Y629043D01*
X306947Y628741D01*
X306609Y628482D01*
X306241Y628269D01*
X305847Y628106D01*
X305435Y627996D01*
X305013Y627940D01*
X304587Y627940D01*
X304165Y627996D01*
X303753Y628106D01*
X303359Y628269D01*
X302991Y628482D01*
X302653Y628741D01*
X302351Y629043D01*
X302092Y629381D01*
X301879Y629749D01*
X301716Y630143D01*
X301606Y630555D01*
X301550Y630977D01*
X301550Y631403D01*
X301606Y631825D01*
X301716Y632237D01*
X301879Y632631D01*
X302092Y632999D01*
X302351Y633337D01*
X302653Y633639D01*
X302991Y633898D01*
X303359Y634111D01*
X303753Y634274D01*
X304165Y634384D01*
X304587Y634440D01*
X305013Y634440D01*
X305435Y634384D01*
X305847Y634274D01*
X306241Y634111D01*
X306609Y633898D01*
X306947Y633639D01*
X307249Y633337D01*
X307508Y632999D01*
X307721Y632631D01*
X307884Y632237D01*
X307994Y631825D01*
X308050Y631403D01*
X308050Y630977D01*
X325830Y647487D02*
X325774Y647065D01*
X325664Y646653D01*
X325501Y646259D01*
X325288Y645891D01*
X325029Y645553D01*
X324727Y645251D01*
X324389Y644992D01*
X324021Y644779D01*
X323627Y644616D01*
X323215Y644506D01*
X322793Y644450D01*
X322367Y644450D01*
X321945Y644506D01*
X321533Y644616D01*
X321139Y644779D01*
X320771Y644992D01*
X320433Y645251D01*
X320131Y645553D01*
X319872Y645891D01*
X319659Y646259D01*
X319496Y646653D01*
X319386Y647065D01*
X319330Y647487D01*
X319330Y647913D01*
X319386Y648335D01*
X319496Y648747D01*
X319659Y649141D01*
X319872Y649509D01*
X320131Y649847D01*
X320433Y650149D01*
X320771Y650408D01*
X321139Y650621D01*
X321533Y650784D01*
X321945Y650894D01*
X322367Y650950D01*
X322793Y650950D01*
X323215Y650894D01*
X323627Y650784D01*
X324021Y650621D01*
X324389Y650408D01*
X324727Y650149D01*
X325029Y649847D01*
X325288Y649509D01*
X325501Y649141D01*
X325664Y648747D01*
X325774Y648335D01*
X325830Y647913D01*
X325830Y647487D01*
X337260Y666537D02*
X337204Y666115D01*
X337094Y665703D01*
X336931Y665309D01*
X336718Y664941D01*
X336459Y664603D01*
X336157Y664301D01*
X335819Y664042D01*
X335451Y663829D01*
X335057Y663666D01*
X334645Y663556D01*
X334223Y663500D01*
X333797Y663500D01*
X333375Y663556D01*
X332963Y663666D01*
X332569Y663829D01*
X332201Y664042D01*
X331863Y664301D01*
X331561Y664603D01*
X331302Y664941D01*
X331089Y665309D01*
X330926Y665703D01*
X330816Y666115D01*
X330760Y666537D01*
X330760Y666963D01*
X330816Y667385D01*
X330926Y667797D01*
X331089Y668191D01*
X331302Y668559D01*
X331561Y668897D01*
X331863Y669199D01*
X332201Y669458D01*
X332569Y669671D01*
X332963Y669834D01*
X333375Y669944D01*
X333797Y670000D01*
X334223Y670000D01*
X334645Y669944D01*
X335057Y669834D01*
X335451Y669671D01*
X335819Y669458D01*
X336157Y669199D01*
X336459Y668897D01*
X336718Y668559D01*
X336931Y668191D01*
X337094Y667797D01*
X337204Y667385D01*
X337260Y666963D01*
X337260Y666537D01*
X297890Y812587D02*
X297834Y812165D01*
X297724Y811753D01*
X297561Y811359D01*
X297348Y810991D01*
X297089Y810653D01*
X296787Y810351D01*
X296449Y810092D01*
X296081Y809879D01*
X295687Y809716D01*
X295275Y809606D01*
X294853Y809550D01*
X294427Y809550D01*
X294005Y809606D01*
X293593Y809716D01*
X293199Y809879D01*
X292831Y810092D01*
X292493Y810351D01*
X292191Y810653D01*
X291932Y810991D01*
X291719Y811359D01*
X291556Y811753D01*
X291446Y812165D01*
X291390Y812587D01*
X291390Y813013D01*
X291446Y813435D01*
X291556Y813847D01*
X291719Y814241D01*
X291932Y814609D01*
X292191Y814947D01*
X292493Y815249D01*
X292831Y815508D01*
X293199Y815721D01*
X293593Y815884D01*
X294005Y815994D01*
X294427Y816050D01*
X294853Y816050D01*
X295275Y815994D01*
X295687Y815884D01*
X296081Y815721D01*
X296449Y815508D01*
X296787Y815249D01*
X297089Y814947D01*
X297348Y814609D01*
X297561Y814241D01*
X297724Y813847D01*
X297834Y813435D01*
X297890Y813013D01*
X297890Y812587D01*
X318210Y794807D02*
X318154Y794385D01*
X318044Y793973D01*
X317881Y793579D01*
X317668Y793211D01*
X317409Y792873D01*
X317107Y792571D01*
X316769Y792312D01*
X316401Y792099D01*
X316007Y791936D01*
X315595Y791826D01*
X315173Y791770D01*
X314747Y791770D01*
X314325Y791826D01*
X313913Y791936D01*
X313519Y792099D01*
X313151Y792312D01*
X312813Y792571D01*
X312511Y792873D01*
X312252Y793211D01*
X312039Y793579D01*
X311876Y793973D01*
X311766Y794385D01*
X311710Y794807D01*
X311710Y795233D01*
X311766Y795655D01*
X311876Y796067D01*
X312039Y796461D01*
X312252Y796829D01*
X312511Y797167D01*
X312813Y797469D01*
X313151Y797728D01*
X313519Y797941D01*
X313913Y798104D01*
X314325Y798214D01*
X314747Y798270D01*
X315173Y798270D01*
X315595Y798214D01*
X316007Y798104D01*
X316401Y797941D01*
X316769Y797728D01*
X317107Y797469D01*
X317409Y797167D01*
X317668Y796829D01*
X317881Y796461D01*
X318044Y796067D01*
X318154Y795655D01*
X318210Y795233D01*
X318210Y794807D01*
X333450Y777027D02*
X333394Y776605D01*
X333284Y776193D01*
X333121Y775799D01*
X332908Y775431D01*
X332649Y775093D01*
X332347Y774791D01*
X332009Y774532D01*
X331641Y774319D01*
X331247Y774156D01*
X330835Y774046D01*
X330413Y773990D01*
X329987Y773990D01*
X329565Y774046D01*
X329153Y774156D01*
X328759Y774319D01*
X328391Y774532D01*
X328053Y774791D01*
X327751Y775093D01*
X327492Y775431D01*
X327279Y775799D01*
X327116Y776193D01*
X327006Y776605D01*
X326950Y777027D01*
X326950Y777453D01*
X327006Y777875D01*
X327116Y778287D01*
X327279Y778681D01*
X327492Y779049D01*
X327751Y779387D01*
X328053Y779689D01*
X328391Y779948D01*
X328759Y780161D01*
X329153Y780324D01*
X329565Y780434D01*
X329987Y780490D01*
X330413Y780490D01*
X330835Y780434D01*
X331247Y780324D01*
X331641Y780161D01*
X332009Y779948D01*
X332347Y779689D01*
X332649Y779387D01*
X332908Y779049D01*
X333121Y778681D01*
X333284Y778287D01*
X333394Y777875D01*
X333450Y777453D01*
X333450Y777027D01*
X159460Y803697D02*
X159404Y803275D01*
X159294Y802863D01*
X159131Y802469D01*
X158918Y802101D01*
X158659Y801763D01*
X158357Y801461D01*
X158019Y801202D01*
X157651Y800989D01*
X157257Y800826D01*
X156845Y800716D01*
X156423Y800660D01*
X155997Y800660D01*
X155575Y800716D01*
X155163Y800826D01*
X154769Y800989D01*
X154401Y801202D01*
X154063Y801461D01*
X153761Y801763D01*
X153502Y802101D01*
X153289Y802469D01*
X153126Y802863D01*
X153016Y803275D01*
X152960Y803697D01*
X152960Y804123D01*
X153016Y804545D01*
X153126Y804957D01*
X153289Y805351D01*
X153502Y805719D01*
X153761Y806057D01*
X154063Y806359D01*
X154401Y806618D01*
X154769Y806831D01*
X155163Y806994D01*
X155575Y807104D01*
X155997Y807160D01*
X156423Y807160D01*
X156845Y807104D01*
X157257Y806994D01*
X157651Y806831D01*
X158019Y806618D01*
X158357Y806359D01*
X158659Y806057D01*
X158918Y805719D01*
X159131Y805351D01*
X159294Y804957D01*
X159404Y804545D01*
X159460Y804123D01*
X159460Y803697D01*
X182320Y817667D02*
X182264Y817245D01*
X182154Y816833D01*
X181991Y816439D01*
X181778Y816071D01*
X181519Y815733D01*
X181217Y815431D01*
X180879Y815172D01*
X180511Y814959D01*
X180117Y814796D01*
X179705Y814686D01*
X179283Y814630D01*
X178857Y814630D01*
X178435Y814686D01*
X178023Y814796D01*
X177629Y814959D01*
X177261Y815172D01*
X176923Y815431D01*
X176621Y815733D01*
X176362Y816071D01*
X176149Y816439D01*
X175986Y816833D01*
X175876Y817245D01*
X175820Y817667D01*
X175820Y818093D01*
X175876Y818515D01*
X175986Y818927D01*
X176149Y819321D01*
X176362Y819689D01*
X176621Y820027D01*
X176923Y820329D01*
X177261Y820588D01*
X177629Y820801D01*
X178023Y820964D01*
X178435Y821074D01*
X178857Y821130D01*
X179283Y821130D01*
X179705Y821074D01*
X180117Y820964D01*
X180511Y820801D01*
X180879Y820588D01*
X181217Y820329D01*
X181519Y820027D01*
X181778Y819689D01*
X181991Y819321D01*
X182154Y818927D01*
X182264Y818515D01*
X182320Y818093D01*
X182320Y817667D01*
X115010Y732577D02*
X114954Y732155D01*
X114844Y731743D01*
X114681Y731349D01*
X114468Y730981D01*
X114209Y730643D01*
X113907Y730341D01*
X113569Y730082D01*
X113201Y729869D01*
X112807Y729706D01*
X112395Y729596D01*
X111973Y729540D01*
X111547Y729540D01*
X111125Y729596D01*
X110713Y729706D01*
X110319Y729869D01*
X109951Y730082D01*
X109613Y730341D01*
X109311Y730643D01*
X109052Y730981D01*
X108839Y731349D01*
X108676Y731743D01*
X108566Y732155D01*
X108510Y732577D01*
X108510Y733003D01*
X108566Y733425D01*
X108676Y733837D01*
X108839Y734231D01*
X109052Y734599D01*
X109311Y734937D01*
X109613Y735239D01*
X109951Y735498D01*
X110319Y735711D01*
X110713Y735874D01*
X111125Y735984D01*
X111547Y736040D01*
X111973Y736040D01*
X112395Y735984D01*
X112807Y735874D01*
X113201Y735711D01*
X113569Y735498D01*
X113907Y735239D01*
X114209Y734937D01*
X114468Y734599D01*
X114681Y734231D01*
X114844Y733837D01*
X114954Y733425D01*
X115010Y733003D01*
X115010Y732577D01*
X123900Y752897D02*
X123844Y752475D01*
X123734Y752063D01*
X123571Y751669D01*
X123358Y751301D01*
X123099Y750963D01*
X122797Y750661D01*
X122459Y750402D01*
X122091Y750189D01*
X121697Y750026D01*
X121285Y749916D01*
X120863Y749860D01*
X120437Y749860D01*
X120015Y749916D01*
X119603Y750026D01*
X119209Y750189D01*
X118841Y750402D01*
X118503Y750661D01*
X118201Y750963D01*
X117942Y751301D01*
X117729Y751669D01*
X117566Y752063D01*
X117456Y752475D01*
X117400Y752897D01*
X117400Y753323D01*
X117456Y753745D01*
X117566Y754157D01*
X117729Y754551D01*
X117942Y754919D01*
X118201Y755257D01*
X118503Y755559D01*
X118841Y755818D01*
X119209Y756031D01*
X119603Y756194D01*
X120015Y756304D01*
X120437Y756360D01*
X120863Y756360D01*
X121285Y756304D01*
X121697Y756194D01*
X122091Y756031D01*
X122459Y755818D01*
X122797Y755559D01*
X123099Y755257D01*
X123358Y754919D01*
X123571Y754551D01*
X123734Y754157D01*
X123844Y753745D01*
X123900Y753323D01*
X123900Y752897D01*
X658570Y766867D02*
X658514Y766445D01*
X658404Y766033D01*
X658241Y765639D01*
X658028Y765271D01*
X657769Y764933D01*
X657467Y764631D01*
X657129Y764372D01*
X656761Y764159D01*
X656367Y763996D01*
X655955Y763886D01*
X655533Y763830D01*
X655107Y763830D01*
X654685Y763886D01*
X654273Y763996D01*
X653879Y764159D01*
X653511Y764372D01*
X653173Y764631D01*
X652871Y764933D01*
X652612Y765271D01*
X652399Y765639D01*
X652236Y766033D01*
X652126Y766445D01*
X652070Y766867D01*
X652070Y767293D01*
X652126Y767715D01*
X652236Y768127D01*
X652399Y768521D01*
X652612Y768889D01*
X652871Y769227D01*
X653173Y769529D01*
X653511Y769788D01*
X653879Y770001D01*
X654273Y770164D01*
X654685Y770274D01*
X655107Y770330D01*
X655533Y770330D01*
X655955Y770274D01*
X656367Y770164D01*
X656761Y770001D01*
X657129Y769788D01*
X657467Y769529D01*
X657769Y769227D01*
X658028Y768889D01*
X658241Y768521D01*
X658404Y768127D01*
X658514Y767715D01*
X658570Y767293D01*
X658570Y766867D01*
X668730Y782107D02*
X668674Y781685D01*
X668564Y781273D01*
X668401Y780879D01*
X668188Y780511D01*
X667929Y780173D01*
X667627Y779871D01*
X667289Y779612D01*
X666921Y779399D01*
X666527Y779236D01*
X666115Y779126D01*
X665693Y779070D01*
X665267Y779070D01*
X664845Y779126D01*
X664433Y779236D01*
X664039Y779399D01*
X663671Y779612D01*
X663333Y779871D01*
X663031Y780173D01*
X662772Y780511D01*
X662559Y780879D01*
X662396Y781273D01*
X662286Y781685D01*
X662230Y782107D01*
X662230Y782533D01*
X662286Y782955D01*
X662396Y783367D01*
X662559Y783761D01*
X662772Y784129D01*
X663031Y784467D01*
X663333Y784769D01*
X663671Y785028D01*
X664039Y785241D01*
X664433Y785404D01*
X664845Y785514D01*
X665267Y785570D01*
X665693Y785570D01*
X666115Y785514D01*
X666527Y785404D01*
X666921Y785241D01*
X667289Y785028D01*
X667627Y784769D01*
X667929Y784467D01*
X668188Y784129D01*
X668401Y783761D01*
X668564Y783367D01*
X668674Y782955D01*
X668730Y782533D01*
X668730Y782107D01*
X658570Y671617D02*
X658514Y671195D01*
X658404Y670783D01*
X658241Y670389D01*
X658028Y670021D01*
X657769Y669683D01*
X657467Y669381D01*
X657129Y669122D01*
X656761Y668909D01*
X656367Y668746D01*
X655955Y668636D01*
X655533Y668580D01*
X655107Y668580D01*
X654685Y668636D01*
X654273Y668746D01*
X653879Y668909D01*
X653511Y669122D01*
X653173Y669381D01*
X652871Y669683D01*
X652612Y670021D01*
X652399Y670389D01*
X652236Y670783D01*
X652126Y671195D01*
X652070Y671617D01*
X652070Y672043D01*
X652126Y672465D01*
X652236Y672877D01*
X652399Y673271D01*
X652612Y673639D01*
X652871Y673977D01*
X653173Y674279D01*
X653511Y674538D01*
X653879Y674751D01*
X654273Y674914D01*
X654685Y675024D01*
X655107Y675080D01*
X655533Y675080D01*
X655955Y675024D01*
X656367Y674914D01*
X656761Y674751D01*
X657129Y674538D01*
X657467Y674279D01*
X657769Y673977D01*
X658028Y673639D01*
X658241Y673271D01*
X658404Y672877D01*
X658514Y672465D01*
X658570Y672043D01*
X658570Y671617D01*
X668730Y651297D02*
X668674Y650875D01*
X668564Y650463D01*
X668401Y650069D01*
X668188Y649701D01*
X667929Y649363D01*
X667627Y649061D01*
X667289Y648802D01*
X666921Y648589D01*
X666527Y648426D01*
X666115Y648316D01*
X665693Y648260D01*
X665267Y648260D01*
X664845Y648316D01*
X664433Y648426D01*
X664039Y648589D01*
X663671Y648802D01*
X663333Y649061D01*
X663031Y649363D01*
X662772Y649701D01*
X662559Y650069D01*
X662396Y650463D01*
X662286Y650875D01*
X662230Y651297D01*
X662230Y651723D01*
X662286Y652145D01*
X662396Y652557D01*
X662559Y652951D01*
X662772Y653319D01*
X663031Y653657D01*
X663333Y653959D01*
X663671Y654218D01*
X664039Y654431D01*
X664433Y654594D01*
X664845Y654704D01*
X665267Y654760D01*
X665693Y654760D01*
X666115Y654704D01*
X666527Y654594D01*
X666921Y654431D01*
X667289Y654218D01*
X667627Y653959D01*
X667929Y653657D01*
X668188Y653319D01*
X668401Y652951D01*
X668564Y652557D01*
X668674Y652145D01*
X668730Y651723D01*
X668730Y651297D01*
X683970Y633517D02*
X683914Y633095D01*
X683804Y632683D01*
X683641Y632289D01*
X683428Y631921D01*
X683169Y631583D01*
X682867Y631281D01*
X682529Y631022D01*
X682161Y630809D01*
X681767Y630646D01*
X681355Y630536D01*
X680933Y630480D01*
X680507Y630480D01*
X680085Y630536D01*
X679673Y630646D01*
X679279Y630809D01*
X678911Y631022D01*
X678573Y631281D01*
X678271Y631583D01*
X678012Y631921D01*
X677799Y632289D01*
X677636Y632683D01*
X677526Y633095D01*
X677470Y633517D01*
X677470Y633943D01*
X677526Y634365D01*
X677636Y634777D01*
X677799Y635171D01*
X678012Y635539D01*
X678271Y635877D01*
X678573Y636179D01*
X678911Y636438D01*
X679279Y636651D01*
X679673Y636814D01*
X680085Y636924D01*
X680507Y636980D01*
X680933Y636980D01*
X681355Y636924D01*
X681767Y636814D01*
X682161Y636651D01*
X682529Y636438D01*
X682867Y636179D01*
X683169Y635877D01*
X683428Y635539D01*
X683641Y635171D01*
X683804Y634777D01*
X683914Y634365D01*
X683970Y633943D01*
X683970Y633517D01*
X849070Y636057D02*
X849014Y635635D01*
X848904Y635223D01*
X848741Y634829D01*
X848528Y634461D01*
X848269Y634123D01*
X847967Y633821D01*
X847629Y633562D01*
X847261Y633349D01*
X846867Y633186D01*
X846455Y633076D01*
X846033Y633020D01*
X845607Y633020D01*
X845185Y633076D01*
X844773Y633186D01*
X844379Y633349D01*
X844011Y633562D01*
X843673Y633821D01*
X843371Y634123D01*
X843112Y634461D01*
X842899Y634829D01*
X842736Y635223D01*
X842626Y635635D01*
X842570Y636057D01*
X842570Y636483D01*
X842626Y636905D01*
X842736Y637317D01*
X842899Y637711D01*
X843112Y638079D01*
X843371Y638417D01*
X843673Y638719D01*
X844011Y638978D01*
X844379Y639191D01*
X844773Y639354D01*
X845185Y639464D01*
X845607Y639520D01*
X846033Y639520D01*
X846455Y639464D01*
X846867Y639354D01*
X847261Y639191D01*
X847629Y638978D01*
X847967Y638719D01*
X848269Y638417D01*
X848528Y638079D01*
X848741Y637711D01*
X848904Y637317D01*
X849014Y636905D01*
X849070Y636483D01*
X849070Y636057D01*
X864310Y661457D02*
X864254Y661035D01*
X864144Y660623D01*
X863981Y660229D01*
X863768Y659861D01*
X863509Y659523D01*
X863207Y659221D01*
X862869Y658962D01*
X862501Y658749D01*
X862107Y658586D01*
X861695Y658476D01*
X861273Y658420D01*
X860847Y658420D01*
X860425Y658476D01*
X860013Y658586D01*
X859619Y658749D01*
X859251Y658962D01*
X858913Y659221D01*
X858611Y659523D01*
X858352Y659861D01*
X858139Y660229D01*
X857976Y660623D01*
X857866Y661035D01*
X857810Y661457D01*
X857810Y661883D01*
X857866Y662305D01*
X857976Y662717D01*
X858139Y663111D01*
X858352Y663479D01*
X858611Y663817D01*
X858913Y664119D01*
X859251Y664378D01*
X859619Y664591D01*
X860013Y664754D01*
X860425Y664864D01*
X860847Y664920D01*
X861273Y664920D01*
X861695Y664864D01*
X862107Y664754D01*
X862501Y664591D01*
X862869Y664378D01*
X863207Y664119D01*
X863509Y663817D01*
X863768Y663479D01*
X863981Y663111D01*
X864144Y662717D01*
X864254Y662305D01*
X864310Y661883D01*
X864310Y661457D01*
X871930Y681777D02*
X871874Y681355D01*
X871764Y680943D01*
X871601Y680549D01*
X871388Y680181D01*
X871129Y679843D01*
X870827Y679541D01*
X870489Y679282D01*
X870121Y679069D01*
X869727Y678906D01*
X869315Y678796D01*
X868893Y678740D01*
X868467Y678740D01*
X868045Y678796D01*
X867633Y678906D01*
X867239Y679069D01*
X866871Y679282D01*
X866533Y679541D01*
X866231Y679843D01*
X865972Y680181D01*
X865759Y680549D01*
X865596Y680943D01*
X865486Y681355D01*
X865430Y681777D01*
X865430Y682203D01*
X865486Y682625D01*
X865596Y683037D01*
X865759Y683431D01*
X865972Y683799D01*
X866231Y684137D01*
X866533Y684439D01*
X866871Y684698D01*
X867239Y684911D01*
X867633Y685074D01*
X868045Y685184D01*
X868467Y685240D01*
X868893Y685240D01*
X869315Y685184D01*
X869727Y685074D01*
X870121Y684911D01*
X870489Y684698D01*
X870827Y684439D01*
X871129Y684137D01*
X871388Y683799D01*
X871601Y683431D01*
X871764Y683037D01*
X871874Y682625D01*
X871930Y682203D01*
X871930Y681777D01*
X856690Y782107D02*
X856634Y781685D01*
X856524Y781273D01*
X856361Y780879D01*
X856148Y780511D01*
X855889Y780173D01*
X855587Y779871D01*
X855249Y779612D01*
X854881Y779399D01*
X854487Y779236D01*
X854075Y779126D01*
X853653Y779070D01*
X853227Y779070D01*
X852805Y779126D01*
X852393Y779236D01*
X851999Y779399D01*
X851631Y779612D01*
X851293Y779871D01*
X850991Y780173D01*
X850732Y780511D01*
X850519Y780879D01*
X850356Y781273D01*
X850246Y781685D01*
X850190Y782107D01*
X850190Y782533D01*
X850246Y782955D01*
X850356Y783367D01*
X850519Y783761D01*
X850732Y784129D01*
X850991Y784467D01*
X851293Y784769D01*
X851631Y785028D01*
X851999Y785241D01*
X852393Y785404D01*
X852805Y785514D01*
X853227Y785570D01*
X853653Y785570D01*
X854075Y785514D01*
X854487Y785404D01*
X854881Y785241D01*
X855249Y785028D01*
X855587Y784769D01*
X855889Y784467D01*
X856148Y784129D01*
X856361Y783761D01*
X856524Y783367D01*
X856634Y782955D01*
X856690Y782533D01*
X856690Y782107D01*
X868120Y764327D02*
X868064Y763905D01*
X867954Y763493D01*
X867791Y763099D01*
X867578Y762731D01*
X867319Y762393D01*
X867017Y762091D01*
X866679Y761832D01*
X866311Y761619D01*
X865917Y761456D01*
X865505Y761346D01*
X865083Y761290D01*
X864657Y761290D01*
X864235Y761346D01*
X863823Y761456D01*
X863429Y761619D01*
X863061Y761832D01*
X862723Y762091D01*
X862421Y762393D01*
X862162Y762731D01*
X861949Y763099D01*
X861786Y763493D01*
X861676Y763905D01*
X861620Y764327D01*
X861620Y764753D01*
X861676Y765175D01*
X861786Y765587D01*
X861949Y765981D01*
X862162Y766349D01*
X862421Y766687D01*
X862723Y766989D01*
X863061Y767248D01*
X863429Y767461D01*
X863823Y767624D01*
X864235Y767734D01*
X864657Y767790D01*
X865083Y767790D01*
X865505Y767734D01*
X865917Y767624D01*
X866311Y767461D01*
X866679Y767248D01*
X867017Y766989D01*
X867319Y766687D01*
X867578Y766349D01*
X867791Y765981D01*
X867954Y765587D01*
X868064Y765175D01*
X868120Y764753D01*
X868120Y764327D01*
X355156Y928370D02*
X354273Y928447D01*
X353399Y928601D01*
X352542Y928831D01*
X351708Y929134D01*
X350904Y929509D01*
X350136Y929953D01*
X349409Y930462D01*
X348729Y931032D01*
X348102Y931659D01*
X347532Y932339D01*
X347023Y933066D01*
X346579Y933834D01*
X346204Y934638D01*
X345901Y935472D01*
X345671Y936329D01*
X345517Y937203D01*
X345440Y938086D01*
X345440Y938974D01*
X345517Y939857D01*
X345671Y940731D01*
X345901Y941588D01*
X346204Y942422D01*
X346579Y943226D01*
X347023Y943994D01*
X347532Y944721D01*
X348102Y945401D01*
X348729Y946028D01*
X349409Y946598D01*
X350136Y947107D01*
X350904Y947551D01*
X351708Y947926D01*
X352542Y948229D01*
X353399Y948459D01*
X354273Y948613D01*
X355156Y948690D01*
X356044Y948690D01*
X356927Y948613D01*
X357801Y948459D01*
X358658Y948229D01*
X359492Y947926D01*
X360296Y947551D01*
X361064Y947107D01*
X361791Y946598D01*
X362471Y946028D01*
X363098Y945401D01*
X363668Y944721D01*
X364177Y943994D01*
X364621Y943226D01*
X364996Y942422D01*
X365299Y941588D01*
X365529Y940731D01*
X365683Y939857D01*
X365760Y938974D01*
X365760Y938086D01*
X365683Y937203D01*
X365529Y936329D01*
X365299Y935472D01*
X364996Y934638D01*
X364621Y933834D01*
X364177Y933066D01*
X363668Y932339D01*
X363098Y931659D01*
X362471Y931032D01*
X361791Y930462D01*
X361064Y929953D01*
X360296Y929509D01*
X359492Y929134D01*
X358658Y928831D01*
X357801Y928601D01*
X356927Y928447D01*
X356044Y928370D01*
X355156Y928370D01*
X355156Y882650D02*
X354273Y882727D01*
X353399Y882881D01*
X352542Y883111D01*
X351708Y883414D01*
X350904Y883789D01*
X350136Y884233D01*
X349409Y884742D01*
X348729Y885312D01*
X348102Y885939D01*
X347532Y886619D01*
X347023Y887346D01*
X346579Y888114D01*
X346204Y888918D01*
X345901Y889752D01*
X345671Y890609D01*
X345517Y891483D01*
X345440Y892366D01*
X345440Y893254D01*
X345517Y894137D01*
X345671Y895011D01*
X345901Y895868D01*
X346204Y896702D01*
X346579Y897506D01*
X347023Y898274D01*
X347532Y899001D01*
X348102Y899681D01*
X348729Y900308D01*
X349409Y900878D01*
X350136Y901387D01*
X350904Y901831D01*
X351708Y902206D01*
X352542Y902509D01*
X353399Y902739D01*
X354273Y902893D01*
X355156Y902970D01*
X356044Y902970D01*
X356927Y902893D01*
X357801Y902739D01*
X358658Y902509D01*
X359492Y902206D01*
X360296Y901831D01*
X361064Y901387D01*
X361791Y900878D01*
X362471Y900308D01*
X363098Y899681D01*
X363668Y899001D01*
X364177Y898274D01*
X364621Y897506D01*
X364996Y896702D01*
X365299Y895868D01*
X365529Y895011D01*
X365683Y894137D01*
X365760Y893254D01*
X365760Y892366D01*
X365683Y891483D01*
X365529Y890609D01*
X365299Y889752D01*
X364996Y888918D01*
X364621Y888114D01*
X364177Y887346D01*
X363668Y886619D01*
X363098Y885939D01*
X362471Y885312D01*
X361791Y884742D01*
X361064Y884233D01*
X360296Y883789D01*
X359492Y883414D01*
X358658Y883111D01*
X357801Y882881D01*
X356927Y882727D01*
X356044Y882650D01*
X355156Y882650D01*
X261620Y714199D02*
X261540Y712580D01*
X261382Y710967D01*
X261144Y709363D01*
X260827Y707773D01*
X260433Y706201D01*
X259963Y704649D01*
X259417Y703123D01*
X258796Y701625D01*
X258103Y700159D01*
X257339Y698730D01*
X256505Y697339D01*
X255605Y695991D01*
X254639Y694689D01*
X253611Y693436D01*
X252522Y692235D01*
X251376Y691088D01*
X250174Y689999D01*
X248921Y688971D01*
X247619Y688005D01*
X246271Y687105D01*
X244880Y686271D01*
X243451Y685507D01*
X241985Y684814D01*
X240487Y684193D01*
X238961Y683647D01*
X237410Y683177D01*
X235837Y682783D01*
X234247Y682466D01*
X232643Y682228D01*
X231030Y682070D01*
X229411Y681990D01*
X227789Y681990D01*
X226170Y682070D01*
X224557Y682228D01*
X222953Y682466D01*
X221363Y682783D01*
X219791Y683177D01*
X218239Y683647D01*
X216713Y684193D01*
X215215Y684814D01*
X213749Y685507D01*
X212320Y686271D01*
X210929Y687105D01*
X209581Y688005D01*
X208279Y688971D01*
X207026Y689999D01*
X205825Y691088D01*
X204678Y692235D01*
X203589Y693436D01*
X202561Y694689D01*
X201595Y695991D01*
X200695Y697339D01*
X199861Y698730D01*
X199097Y700159D01*
X198404Y701625D01*
X197783Y703123D01*
X197237Y704649D01*
X196767Y706201D01*
X196373Y707773D01*
X196056Y709363D01*
X195818Y710967D01*
X195660Y712580D01*
X195580Y714199D01*
X195580Y715821D01*
X195660Y717440D01*
X195818Y719053D01*
X196056Y720657D01*
X196373Y722247D01*
X196767Y723820D01*
X197237Y725371D01*
X197783Y726897D01*
X198404Y728395D01*
X199097Y729861D01*
X199861Y731290D01*
X200695Y732681D01*
X201595Y734029D01*
X202561Y735331D01*
X203589Y736584D01*
X204678Y737786D01*
X205825Y738932D01*
X207026Y740021D01*
X208279Y741049D01*
X209581Y742015D01*
X210929Y742915D01*
X212320Y743749D01*
X213749Y744513D01*
X215215Y745206D01*
X216713Y745827D01*
X218239Y746373D01*
X219791Y746843D01*
X221363Y747237D01*
X222953Y747554D01*
X224557Y747792D01*
X226170Y747950D01*
X227789Y748030D01*
X229411Y748030D01*
X231030Y747950D01*
X232643Y747792D01*
X234247Y747554D01*
X235837Y747237D01*
X237410Y746843D01*
X238961Y746373D01*
X240487Y745827D01*
X241985Y745206D01*
X243451Y744513D01*
X244880Y743749D01*
X246271Y742915D01*
X247619Y742015D01*
X248921Y741049D01*
X250174Y740021D01*
X251376Y738932D01*
X252522Y737786D01*
X253611Y736584D01*
X254639Y735331D01*
X255605Y734029D01*
X256505Y732681D01*
X257339Y731290D01*
X258103Y729861D01*
X258796Y728395D01*
X259417Y726897D01*
X259963Y725371D01*
X260433Y723820D01*
X260827Y722247D01*
X261144Y720657D01*
X261382Y719053D01*
X261540Y717440D01*
X261620Y715821D01*
X261620Y714199D01*
X152400Y714511D02*
X152322Y713516D01*
X152166Y712530D01*
X151933Y711560D01*
X151624Y710611D01*
X151242Y709689D01*
X150789Y708800D01*
X150268Y707949D01*
X149681Y707141D01*
X149033Y706383D01*
X148327Y705677D01*
X147569Y705029D01*
X146761Y704442D01*
X145910Y703921D01*
X145021Y703468D01*
X144099Y703086D01*
X143150Y702777D01*
X142180Y702544D01*
X141194Y702388D01*
X140199Y702310D01*
X139201Y702310D01*
X138206Y702388D01*
X137220Y702544D01*
X136250Y702777D01*
X135301Y703086D01*
X134379Y703468D01*
X133490Y703921D01*
X132639Y704442D01*
X131831Y705029D01*
X131073Y705677D01*
X130367Y706383D01*
X129719Y707141D01*
X129132Y707949D01*
X128611Y708800D01*
X128158Y709689D01*
X127776Y710611D01*
X127467Y711560D01*
X127234Y712530D01*
X127078Y713516D01*
X127000Y714511D01*
X127000Y715509D01*
X127078Y716504D01*
X127234Y717490D01*
X127467Y718460D01*
X127776Y719409D01*
X128158Y720331D01*
X128611Y721220D01*
X129132Y722071D01*
X129719Y722879D01*
X130367Y723637D01*
X131073Y724343D01*
X131831Y724991D01*
X132639Y725578D01*
X133490Y726099D01*
X134379Y726552D01*
X135301Y726934D01*
X136250Y727243D01*
X137220Y727476D01*
X138206Y727632D01*
X139201Y727710D01*
X140199Y727710D01*
X141194Y727632D01*
X142180Y727476D01*
X143150Y727243D01*
X144099Y726934D01*
X145021Y726552D01*
X145910Y726099D01*
X146761Y725578D01*
X147569Y724991D01*
X148327Y724343D01*
X149033Y723637D01*
X149681Y722879D01*
X150268Y722071D01*
X150789Y721220D01*
X151242Y720331D01*
X151624Y719409D01*
X151933Y718460D01*
X152166Y717490D01*
X152322Y716504D01*
X152400Y715509D01*
X152400Y714511D01*
X330200Y714511D02*
X330122Y713516D01*
X329966Y712530D01*
X329733Y711560D01*
X329424Y710611D01*
X329042Y709689D01*
X328589Y708800D01*
X328068Y707949D01*
X327481Y707141D01*
X326833Y706383D01*
X326127Y705677D01*
X325369Y705029D01*
X324561Y704442D01*
X323710Y703921D01*
X322821Y703468D01*
X321899Y703086D01*
X320950Y702777D01*
X319980Y702544D01*
X318994Y702388D01*
X317999Y702310D01*
X317001Y702310D01*
X316006Y702388D01*
X315020Y702544D01*
X314050Y702777D01*
X313101Y703086D01*
X312179Y703468D01*
X311290Y703921D01*
X310439Y704442D01*
X309631Y705029D01*
X308873Y705677D01*
X308167Y706383D01*
X307519Y707141D01*
X306932Y707949D01*
X306411Y708800D01*
X305958Y709689D01*
X305576Y710611D01*
X305267Y711560D01*
X305034Y712530D01*
X304878Y713516D01*
X304800Y714511D01*
X304800Y715509D01*
X304878Y716504D01*
X305034Y717490D01*
X305267Y718460D01*
X305576Y719409D01*
X305958Y720331D01*
X306411Y721220D01*
X306932Y722071D01*
X307519Y722879D01*
X308167Y723637D01*
X308873Y724343D01*
X309631Y724991D01*
X310439Y725578D01*
X311290Y726099D01*
X312179Y726552D01*
X313101Y726934D01*
X314050Y727243D01*
X315020Y727476D01*
X316006Y727632D01*
X317001Y727710D01*
X317999Y727710D01*
X318994Y727632D01*
X319980Y727476D01*
X320950Y727243D01*
X321899Y726934D01*
X322821Y726552D01*
X323710Y726099D01*
X324561Y725578D01*
X325369Y724991D01*
X326127Y724343D01*
X326833Y723637D01*
X327481Y722879D01*
X328068Y722071D01*
X328589Y721220D01*
X329042Y720331D01*
X329424Y719409D01*
X329733Y718460D01*
X329966Y717490D01*
X330122Y716504D01*
X330200Y715509D01*
X330200Y714511D01*
X795020Y714199D02*
X794940Y712580D01*
X794782Y710967D01*
X794544Y709363D01*
X794227Y707773D01*
X793833Y706201D01*
X793363Y704649D01*
X792817Y703123D01*
X792196Y701625D01*
X791503Y700159D01*
X790739Y698730D01*
X789905Y697339D01*
X789005Y695991D01*
X788039Y694689D01*
X787011Y693436D01*
X785922Y692235D01*
X784776Y691088D01*
X783574Y689999D01*
X782321Y688971D01*
X781019Y688005D01*
X779671Y687105D01*
X778280Y686271D01*
X776851Y685507D01*
X775385Y684814D01*
X773887Y684193D01*
X772361Y683647D01*
X770810Y683177D01*
X769237Y682783D01*
X767647Y682466D01*
X766043Y682228D01*
X764430Y682070D01*
X762811Y681990D01*
X761189Y681990D01*
X759570Y682070D01*
X757957Y682228D01*
X756353Y682466D01*
X754763Y682783D01*
X753191Y683177D01*
X751639Y683647D01*
X750113Y684193D01*
X748615Y684814D01*
X747149Y685507D01*
X745720Y686271D01*
X744329Y687105D01*
X742981Y688005D01*
X741679Y688971D01*
X740426Y689999D01*
X739225Y691088D01*
X738078Y692235D01*
X736989Y693436D01*
X735961Y694689D01*
X734995Y695991D01*
X734095Y697339D01*
X733261Y698730D01*
X732497Y700159D01*
X731804Y701625D01*
X731183Y703123D01*
X730637Y704649D01*
X730167Y706201D01*
X729773Y707773D01*
X729456Y709363D01*
X729218Y710967D01*
X729060Y712580D01*
X728980Y714199D01*
X728980Y715821D01*
X729060Y717440D01*
X729218Y719053D01*
X729456Y720657D01*
X729773Y722247D01*
X730167Y723820D01*
X730637Y725371D01*
X731183Y726897D01*
X731804Y728395D01*
X732497Y729861D01*
X733261Y731290D01*
X734095Y732681D01*
X734995Y734029D01*
X735961Y735331D01*
X736989Y736584D01*
X738078Y737786D01*
X739225Y738932D01*
X740426Y740021D01*
X741679Y741049D01*
X742981Y742015D01*
X744329Y742915D01*
X745720Y743749D01*
X747149Y744513D01*
X748615Y745206D01*
X750113Y745827D01*
X751639Y746373D01*
X753191Y746843D01*
X754763Y747237D01*
X756353Y747554D01*
X757957Y747792D01*
X759570Y747950D01*
X761189Y748030D01*
X762811Y748030D01*
X764430Y747950D01*
X766043Y747792D01*
X767647Y747554D01*
X769237Y747237D01*
X770810Y746843D01*
X772361Y746373D01*
X773887Y745827D01*
X775385Y745206D01*
X776851Y744513D01*
X778280Y743749D01*
X779671Y742915D01*
X781019Y742015D01*
X782321Y741049D01*
X783574Y740021D01*
X784776Y738932D01*
X785922Y737786D01*
X787011Y736584D01*
X788039Y735331D01*
X789005Y734029D01*
X789905Y732681D01*
X790739Y731290D01*
X791503Y729861D01*
X792196Y728395D01*
X792817Y726897D01*
X793363Y725371D01*
X793833Y723820D01*
X794227Y722247D01*
X794544Y720657D01*
X794782Y719053D01*
X794940Y717440D01*
X795020Y715821D01*
X795020Y714199D01*
X685800Y714511D02*
X685722Y713516D01*
X685566Y712530D01*
X685333Y711560D01*
X685024Y710611D01*
X684642Y709689D01*
X684189Y708800D01*
X683668Y707949D01*
X683081Y707141D01*
X682433Y706383D01*
X681727Y705677D01*
X680969Y705029D01*
X680161Y704442D01*
X679310Y703921D01*
X678421Y703468D01*
X677499Y703086D01*
X676550Y702777D01*
X675580Y702544D01*
X674594Y702388D01*
X673599Y702310D01*
X672601Y702310D01*
X671606Y702388D01*
X670620Y702544D01*
X669650Y702777D01*
X668701Y703086D01*
X667779Y703468D01*
X666890Y703921D01*
X666039Y704442D01*
X665231Y705029D01*
X664473Y705677D01*
X663767Y706383D01*
X663119Y707141D01*
X662532Y707949D01*
X662011Y708800D01*
X661558Y709689D01*
X661176Y710611D01*
X660867Y711560D01*
X660634Y712530D01*
X660478Y713516D01*
X660400Y714511D01*
X660400Y715509D01*
X660478Y716504D01*
X660634Y717490D01*
X660867Y718460D01*
X661176Y719409D01*
X661558Y720331D01*
X662011Y721220D01*
X662532Y722071D01*
X663119Y722879D01*
X663767Y723637D01*
X664473Y724343D01*
X665231Y724991D01*
X666039Y725578D01*
X666890Y726099D01*
X667779Y726552D01*
X668701Y726934D01*
X669650Y727243D01*
X670620Y727476D01*
X671606Y727632D01*
X672601Y727710D01*
X673599Y727710D01*
X674594Y727632D01*
X675580Y727476D01*
X676550Y727243D01*
X677499Y726934D01*
X678421Y726552D01*
X679310Y726099D01*
X680161Y725578D01*
X680969Y724991D01*
X681727Y724343D01*
X682433Y723637D01*
X683081Y722879D01*
X683668Y722071D01*
X684189Y721220D01*
X684642Y720331D01*
X685024Y719409D01*
X685333Y718460D01*
X685566Y717490D01*
X685722Y716504D01*
X685800Y715509D01*
X685800Y714511D01*
X863600Y714511D02*
X863522Y713516D01*
X863366Y712530D01*
X863133Y711560D01*
X862824Y710611D01*
X862442Y709689D01*
X861989Y708800D01*
X861468Y707949D01*
X860881Y707141D01*
X860233Y706383D01*
X859527Y705677D01*
X858769Y705029D01*
X857961Y704442D01*
X857110Y703921D01*
X856221Y703468D01*
X855299Y703086D01*
X854350Y702777D01*
X853380Y702544D01*
X852394Y702388D01*
X851399Y702310D01*
X850401Y702310D01*
X849406Y702388D01*
X848420Y702544D01*
X847450Y702777D01*
X846501Y703086D01*
X845579Y703468D01*
X844690Y703921D01*
X843839Y704442D01*
X843031Y705029D01*
X842273Y705677D01*
X841567Y706383D01*
X840919Y707141D01*
X840332Y707949D01*
X839811Y708800D01*
X839358Y709689D01*
X838976Y710611D01*
X838667Y711560D01*
X838434Y712530D01*
X838278Y713516D01*
X838200Y714511D01*
X838200Y715509D01*
X838278Y716504D01*
X838434Y717490D01*
X838667Y718460D01*
X838976Y719409D01*
X839358Y720331D01*
X839811Y721220D01*
X840332Y722071D01*
X840919Y722879D01*
X841567Y723637D01*
X842273Y724343D01*
X843031Y724991D01*
X843839Y725578D01*
X844690Y726099D01*
X845579Y726552D01*
X846501Y726934D01*
X847450Y727243D01*
X848420Y727476D01*
X849406Y727632D01*
X850401Y727710D01*
X851399Y727710D01*
X852394Y727632D01*
X853380Y727476D01*
X854350Y727243D01*
X855299Y726934D01*
X856221Y726552D01*
X857110Y726099D01*
X857961Y725578D01*
X858769Y724991D01*
X859527Y724343D01*
X860233Y723637D01*
X860881Y722879D01*
X861468Y722071D01*
X861989Y721220D01*
X862442Y720331D01*
X862824Y719409D01*
X863133Y718460D01*
X863366Y717490D01*
X863522Y716504D01*
X863600Y715509D01*
X863600Y714511D01*
X481330Y381868D02*
X481404Y383094D01*
X481552Y384313D01*
X481774Y385521D01*
X482067Y386713D01*
X482433Y387885D01*
X482868Y389034D01*
X483372Y390154D01*
X483943Y391241D01*
X484578Y392292D01*
X485276Y393302D01*
X486033Y394269D01*
X486847Y395188D01*
X487716Y396057D01*
X488635Y396871D01*
X489602Y397628D01*
X490612Y398326D01*
X491663Y398961D01*
X492751Y399532D01*
X493870Y400036D01*
X495019Y400471D01*
X496191Y400837D01*
X497383Y401130D01*
X498591Y401352D01*
X499810Y401500D01*
X501036Y401574D01*
X502264Y401574D01*
X503490Y401500D01*
X504709Y401352D01*
X505917Y401130D01*
X507109Y400837D01*
X508281Y400471D01*
X509430Y400036D01*
X510550Y399532D01*
X511637Y398961D01*
X512688Y398326D01*
X513698Y397628D01*
X514665Y396871D01*
X515584Y396057D01*
X516453Y395188D01*
X517267Y394269D01*
X518024Y393302D01*
X518722Y392292D01*
X519357Y391241D01*
X519928Y390154D01*
X520432Y389034D01*
X520867Y387885D01*
X521233Y386713D01*
X521526Y385521D01*
X521748Y384313D01*
X521896Y383094D01*
X521970Y381868D01*
X521970Y380640D01*
X521896Y379414D01*
X521748Y378195D01*
X521526Y376987D01*
X521233Y375795D01*
X520867Y374623D01*
X520432Y373474D01*
X519928Y372355D01*
X519357Y371267D01*
X518722Y370216D01*
X518024Y369206D01*
X517267Y368239D01*
X516453Y367320D01*
X515584Y366451D01*
X514665Y365637D01*
X513698Y364880D01*
X512688Y364182D01*
X511637Y363547D01*
X510550Y362976D01*
X509430Y362472D01*
X508281Y362037D01*
X507109Y361671D01*
X505917Y361378D01*
X504709Y361156D01*
X503490Y361008D01*
X502264Y360934D01*
X501036Y360934D01*
X499810Y361008D01*
X498591Y361156D01*
X497383Y361378D01*
X496191Y361671D01*
X495019Y362037D01*
X493870Y362472D01*
X492751Y362976D01*
X491663Y363547D01*
X490612Y364182D01*
X489602Y364880D01*
X488635Y365637D01*
X487716Y366451D01*
X486847Y367320D01*
X486033Y368239D01*
X485276Y369206D01*
X484578Y370216D01*
X483943Y371267D01*
X483372Y372355D01*
X482868Y373474D01*
X482433Y374623D01*
X482067Y375795D01*
X481774Y376987D01*
X481552Y378195D01*
X481404Y379414D01*
X481330Y380640D01*
X481330Y381868D01*
M02*
