G04 EAGLE Gerber RS-274X export*
G75*
%MOMM*%
%FSLAX34Y34*%
%LPD*%
%INSoldermask Top*%
%IPNEG*%
%AMOC8*
5,1,8,0,0,1.08239X$1,22.5*%
G01*
%ADD10C,3.251200*%
%ADD11C,0.853200*%
%ADD12R,1.511200X1.511200*%
%ADD13C,1.511200*%
%ADD14R,2.603200X3.003200*%
%ADD15C,2.235200*%
%ADD16C,2.082800*%
%ADD17C,1.908300*%
%ADD18R,1.203200X1.303200*%
%ADD19C,6.807200*%
%ADD20C,2.743200*%
%ADD21R,0.853200X2.403200*%
%ADD22R,2.403200X0.853200*%
%ADD23R,1.603200X1.603200*%
%ADD24C,0.505344*%
%ADD25R,1.303200X1.203200*%
%ADD26R,1.103200X1.703200*%
%ADD27R,1.003200X1.103200*%
%ADD28R,2.413000X0.812800*%
%ADD29R,0.812800X2.413000*%
%ADD30C,4.267200*%
%ADD31R,0.903200X1.203200*%
%ADD32R,1.203200X0.903200*%
%ADD33R,5.654800X7.203200*%
%ADD34R,1.803400X3.200400*%
%ADD35C,1.478200*%

G36*
X81713Y961630D02*
X81713Y961630D01*
X81756Y961642D01*
X81822Y961650D01*
X83506Y962101D01*
X83547Y962120D01*
X83610Y962139D01*
X85190Y962875D01*
X85226Y962901D01*
X85285Y962931D01*
X86713Y963930D01*
X86745Y963962D01*
X86798Y964001D01*
X88031Y965234D01*
X88056Y965271D01*
X88102Y965319D01*
X89101Y966747D01*
X89120Y966787D01*
X89157Y966842D01*
X89893Y968422D01*
X89905Y968465D01*
X89931Y968526D01*
X90382Y970210D01*
X90385Y970241D01*
X90392Y970262D01*
X90392Y970277D01*
X90402Y970319D01*
X90553Y972055D01*
X90549Y972100D01*
X90553Y972166D01*
X90402Y973902D01*
X90390Y973945D01*
X90382Y974011D01*
X89931Y975695D01*
X89912Y975735D01*
X89893Y975799D01*
X89157Y977378D01*
X89131Y977415D01*
X89101Y977474D01*
X88102Y978902D01*
X88070Y978933D01*
X88031Y978987D01*
X86798Y980219D01*
X86761Y980245D01*
X86713Y980290D01*
X85285Y981290D01*
X85245Y981309D01*
X85190Y981345D01*
X83610Y982082D01*
X83567Y982094D01*
X83506Y982120D01*
X81822Y982571D01*
X81778Y982575D01*
X81713Y982590D01*
X79977Y982742D01*
X79932Y982738D01*
X79866Y982742D01*
X78130Y982590D01*
X78087Y982579D01*
X78021Y982571D01*
X76337Y982120D01*
X76297Y982101D01*
X76233Y982082D01*
X74654Y981345D01*
X74617Y981320D01*
X74558Y981290D01*
X73130Y980290D01*
X73099Y980259D01*
X73045Y980219D01*
X71813Y978987D01*
X71787Y978950D01*
X71742Y978902D01*
X70742Y977474D01*
X70723Y977434D01*
X70687Y977378D01*
X69950Y975799D01*
X69938Y975756D01*
X69912Y975695D01*
X69461Y974011D01*
X69457Y973966D01*
X69442Y973902D01*
X69290Y972166D01*
X69294Y972121D01*
X69290Y972055D01*
X69442Y970319D01*
X69453Y970276D01*
X69457Y970241D01*
X69458Y970225D01*
X69460Y970220D01*
X69461Y970210D01*
X69912Y968526D01*
X69931Y968485D01*
X69950Y968422D01*
X70687Y966842D01*
X70712Y966806D01*
X70742Y966747D01*
X71742Y965319D01*
X71773Y965287D01*
X71813Y965234D01*
X73045Y964001D01*
X73082Y963976D01*
X73130Y963930D01*
X74558Y962931D01*
X74598Y962912D01*
X74654Y962875D01*
X76233Y962139D01*
X76276Y962127D01*
X76337Y962101D01*
X78021Y961650D01*
X78066Y961646D01*
X78130Y961630D01*
X79866Y961479D01*
X79911Y961483D01*
X79977Y961479D01*
X81713Y961630D01*
G37*
G36*
X962061Y67600D02*
X962061Y67600D01*
X962104Y67612D01*
X962170Y67619D01*
X963853Y68070D01*
X963894Y68089D01*
X963957Y68108D01*
X965537Y68845D01*
X965574Y68871D01*
X965633Y68900D01*
X967061Y69900D01*
X967092Y69932D01*
X967145Y69971D01*
X968378Y71204D01*
X968403Y71240D01*
X968449Y71288D01*
X969449Y72716D01*
X969467Y72756D01*
X969504Y72812D01*
X970241Y74392D01*
X970252Y74435D01*
X970278Y74496D01*
X970730Y76179D01*
X970732Y76210D01*
X970739Y76231D01*
X970739Y76247D01*
X970749Y76288D01*
X970901Y78025D01*
X970897Y78069D01*
X970901Y78135D01*
X970749Y79872D01*
X970737Y79915D01*
X970730Y79980D01*
X970278Y81664D01*
X970259Y81705D01*
X970241Y81768D01*
X969504Y83348D01*
X969478Y83384D01*
X969449Y83444D01*
X968449Y84872D01*
X968417Y84903D01*
X968378Y84956D01*
X967145Y86189D01*
X967109Y86214D01*
X967061Y86260D01*
X965633Y87260D01*
X965592Y87278D01*
X965537Y87315D01*
X963957Y88052D01*
X963914Y88063D01*
X963853Y88089D01*
X962170Y88541D01*
X962125Y88544D01*
X962061Y88560D01*
X960324Y88712D01*
X960280Y88708D01*
X960214Y88712D01*
X958477Y88560D01*
X958434Y88548D01*
X958368Y88541D01*
X956685Y88089D01*
X956644Y88070D01*
X956581Y88052D01*
X955001Y87315D01*
X954964Y87289D01*
X954905Y87260D01*
X953477Y86260D01*
X953446Y86228D01*
X953393Y86189D01*
X952160Y84956D01*
X952135Y84920D01*
X952089Y84872D01*
X951089Y83444D01*
X951070Y83403D01*
X951034Y83348D01*
X950297Y81768D01*
X950286Y81725D01*
X950259Y81664D01*
X949808Y79980D01*
X949804Y79936D01*
X949789Y79872D01*
X949637Y78135D01*
X949641Y78091D01*
X949637Y78025D01*
X949789Y76288D01*
X949801Y76245D01*
X949805Y76211D01*
X949805Y76195D01*
X949807Y76190D01*
X949808Y76179D01*
X950259Y74496D01*
X950278Y74455D01*
X950297Y74392D01*
X951034Y72812D01*
X951060Y72775D01*
X951089Y72716D01*
X952089Y71288D01*
X952121Y71257D01*
X952160Y71204D01*
X953393Y69971D01*
X953429Y69945D01*
X953477Y69900D01*
X954905Y68900D01*
X954946Y68881D01*
X955001Y68845D01*
X956581Y68108D01*
X956624Y68097D01*
X956685Y68070D01*
X958368Y67619D01*
X958413Y67615D01*
X958477Y67600D01*
X960214Y67448D01*
X960258Y67452D01*
X960324Y67448D01*
X962061Y67600D01*
G37*
G36*
X18301Y67579D02*
X18301Y67579D01*
X18344Y67591D01*
X18410Y67598D01*
X20094Y68050D01*
X20134Y68069D01*
X20198Y68087D01*
X21777Y68824D01*
X21814Y68850D01*
X21873Y68879D01*
X23301Y69879D01*
X23332Y69911D01*
X23386Y69950D01*
X24618Y71183D01*
X24644Y71219D01*
X24689Y71267D01*
X25689Y72695D01*
X25708Y72736D01*
X25744Y72791D01*
X26481Y74371D01*
X26492Y74414D01*
X26519Y74475D01*
X26970Y76158D01*
X26973Y76190D01*
X26980Y76211D01*
X26979Y76226D01*
X26989Y76267D01*
X27141Y78004D01*
X27137Y78048D01*
X27141Y78114D01*
X26989Y79851D01*
X26977Y79894D01*
X26970Y79960D01*
X26519Y81643D01*
X26500Y81684D01*
X26481Y81747D01*
X25744Y83327D01*
X25719Y83364D01*
X25689Y83423D01*
X24689Y84851D01*
X24658Y84882D01*
X24618Y84935D01*
X23386Y86168D01*
X23349Y86193D01*
X23301Y86239D01*
X21873Y87239D01*
X21833Y87258D01*
X21777Y87294D01*
X20198Y88031D01*
X20154Y88042D01*
X20094Y88069D01*
X18410Y88520D01*
X18365Y88524D01*
X18301Y88539D01*
X16565Y88691D01*
X16520Y88687D01*
X16454Y88691D01*
X14718Y88539D01*
X14674Y88527D01*
X14609Y88520D01*
X12925Y88069D01*
X12884Y88050D01*
X12821Y88031D01*
X11241Y87294D01*
X11205Y87268D01*
X11145Y87239D01*
X9718Y86239D01*
X9686Y86207D01*
X9633Y86168D01*
X8400Y84935D01*
X8375Y84899D01*
X8329Y84851D01*
X7329Y83423D01*
X7311Y83382D01*
X7274Y83327D01*
X6538Y81747D01*
X6526Y81704D01*
X6500Y81643D01*
X6049Y79960D01*
X6045Y79915D01*
X6029Y79851D01*
X5877Y78114D01*
X5881Y78070D01*
X5877Y78004D01*
X6029Y76267D01*
X6041Y76224D01*
X6045Y76190D01*
X6045Y76174D01*
X6047Y76169D01*
X6049Y76158D01*
X6500Y74475D01*
X6519Y74434D01*
X6538Y74371D01*
X7274Y72791D01*
X7300Y72754D01*
X7329Y72695D01*
X8329Y71267D01*
X8361Y71236D01*
X8400Y71183D01*
X9633Y69950D01*
X9670Y69925D01*
X9718Y69879D01*
X11145Y68879D01*
X11186Y68861D01*
X11241Y68824D01*
X12821Y68087D01*
X12864Y68076D01*
X12925Y68050D01*
X14609Y67598D01*
X14653Y67595D01*
X14718Y67579D01*
X16454Y67427D01*
X16498Y67431D01*
X16565Y67427D01*
X18301Y67579D01*
G37*
G36*
X201965Y952827D02*
X201965Y952827D01*
X202031Y952829D01*
X202074Y952847D01*
X202121Y952855D01*
X202178Y952889D01*
X202238Y952914D01*
X202273Y952945D01*
X202314Y952970D01*
X202356Y953021D01*
X202404Y953065D01*
X202426Y953107D01*
X202455Y953144D01*
X202476Y953206D01*
X202507Y953265D01*
X202515Y953319D01*
X202527Y953356D01*
X202526Y953396D01*
X202534Y953450D01*
X202534Y962816D01*
X203900Y962816D01*
X203965Y962827D01*
X204031Y962829D01*
X204074Y962847D01*
X204121Y962855D01*
X204178Y962889D01*
X204238Y962914D01*
X204273Y962945D01*
X204314Y962970D01*
X204356Y963021D01*
X204404Y963065D01*
X204426Y963107D01*
X204455Y963144D01*
X204476Y963206D01*
X204507Y963265D01*
X204515Y963319D01*
X204527Y963356D01*
X204526Y963396D01*
X204534Y963450D01*
X204534Y973450D01*
X204523Y973515D01*
X204521Y973581D01*
X204503Y973624D01*
X204495Y973671D01*
X204461Y973728D01*
X204436Y973788D01*
X204405Y973823D01*
X204380Y973864D01*
X204329Y973906D01*
X204285Y973954D01*
X204243Y973976D01*
X204206Y974005D01*
X204144Y974026D01*
X204085Y974057D01*
X204031Y974065D01*
X203994Y974077D01*
X203954Y974076D01*
X203900Y974084D01*
X195900Y974084D01*
X195835Y974073D01*
X195769Y974071D01*
X195726Y974053D01*
X195679Y974045D01*
X195622Y974011D01*
X195562Y973986D01*
X195527Y973955D01*
X195486Y973930D01*
X195445Y973879D01*
X195396Y973835D01*
X195374Y973793D01*
X195345Y973756D01*
X195324Y973694D01*
X195293Y973635D01*
X195285Y973581D01*
X195273Y973544D01*
X195274Y973504D01*
X195266Y973450D01*
X195266Y970084D01*
X191900Y970084D01*
X191835Y970073D01*
X191769Y970071D01*
X191726Y970053D01*
X191679Y970045D01*
X191622Y970011D01*
X191562Y969986D01*
X191527Y969955D01*
X191486Y969930D01*
X191445Y969879D01*
X191396Y969835D01*
X191374Y969793D01*
X191345Y969756D01*
X191324Y969694D01*
X191293Y969635D01*
X191285Y969581D01*
X191273Y969544D01*
X191274Y969504D01*
X191266Y969450D01*
X191266Y953450D01*
X191277Y953385D01*
X191279Y953319D01*
X191297Y953276D01*
X191305Y953229D01*
X191339Y953172D01*
X191364Y953112D01*
X191395Y953077D01*
X191420Y953036D01*
X191471Y952995D01*
X191515Y952946D01*
X191557Y952924D01*
X191594Y952895D01*
X191656Y952874D01*
X191715Y952843D01*
X191769Y952835D01*
X191806Y952823D01*
X191846Y952824D01*
X191900Y952816D01*
X201900Y952816D01*
X201965Y952827D01*
G37*
G36*
X125765Y952827D02*
X125765Y952827D01*
X125831Y952829D01*
X125874Y952847D01*
X125921Y952855D01*
X125978Y952889D01*
X126038Y952914D01*
X126073Y952945D01*
X126114Y952970D01*
X126156Y953021D01*
X126204Y953065D01*
X126226Y953107D01*
X126255Y953144D01*
X126276Y953206D01*
X126307Y953265D01*
X126315Y953319D01*
X126327Y953356D01*
X126326Y953396D01*
X126334Y953450D01*
X126334Y962816D01*
X127700Y962816D01*
X127765Y962827D01*
X127831Y962829D01*
X127874Y962847D01*
X127921Y962855D01*
X127978Y962889D01*
X128038Y962914D01*
X128073Y962945D01*
X128114Y962970D01*
X128156Y963021D01*
X128204Y963065D01*
X128226Y963107D01*
X128255Y963144D01*
X128276Y963206D01*
X128307Y963265D01*
X128315Y963319D01*
X128327Y963356D01*
X128326Y963396D01*
X128334Y963450D01*
X128334Y973450D01*
X128323Y973515D01*
X128321Y973581D01*
X128303Y973624D01*
X128295Y973671D01*
X128261Y973728D01*
X128236Y973788D01*
X128205Y973823D01*
X128180Y973864D01*
X128129Y973906D01*
X128085Y973954D01*
X128043Y973976D01*
X128006Y974005D01*
X127944Y974026D01*
X127885Y974057D01*
X127831Y974065D01*
X127794Y974077D01*
X127754Y974076D01*
X127700Y974084D01*
X119700Y974084D01*
X119635Y974073D01*
X119569Y974071D01*
X119526Y974053D01*
X119479Y974045D01*
X119422Y974011D01*
X119362Y973986D01*
X119327Y973955D01*
X119286Y973930D01*
X119245Y973879D01*
X119196Y973835D01*
X119174Y973793D01*
X119145Y973756D01*
X119124Y973694D01*
X119093Y973635D01*
X119085Y973581D01*
X119073Y973544D01*
X119074Y973504D01*
X119066Y973450D01*
X119066Y970084D01*
X115700Y970084D01*
X115635Y970073D01*
X115569Y970071D01*
X115526Y970053D01*
X115479Y970045D01*
X115422Y970011D01*
X115362Y969986D01*
X115327Y969955D01*
X115286Y969930D01*
X115245Y969879D01*
X115196Y969835D01*
X115174Y969793D01*
X115145Y969756D01*
X115124Y969694D01*
X115093Y969635D01*
X115085Y969581D01*
X115073Y969544D01*
X115074Y969504D01*
X115066Y969450D01*
X115066Y953450D01*
X115077Y953385D01*
X115079Y953319D01*
X115097Y953276D01*
X115105Y953229D01*
X115139Y953172D01*
X115164Y953112D01*
X115195Y953077D01*
X115220Y953036D01*
X115271Y952995D01*
X115315Y952946D01*
X115357Y952924D01*
X115394Y952895D01*
X115456Y952874D01*
X115515Y952843D01*
X115569Y952835D01*
X115606Y952823D01*
X115646Y952824D01*
X115700Y952816D01*
X125700Y952816D01*
X125765Y952827D01*
G37*
G36*
X127765Y892827D02*
X127765Y892827D01*
X127831Y892829D01*
X127874Y892847D01*
X127921Y892855D01*
X127978Y892889D01*
X128038Y892914D01*
X128073Y892945D01*
X128114Y892970D01*
X128156Y893021D01*
X128204Y893065D01*
X128226Y893107D01*
X128255Y893144D01*
X128276Y893206D01*
X128307Y893265D01*
X128315Y893319D01*
X128327Y893356D01*
X128326Y893396D01*
X128334Y893450D01*
X128334Y903450D01*
X128323Y903515D01*
X128321Y903581D01*
X128303Y903624D01*
X128295Y903671D01*
X128261Y903728D01*
X128236Y903788D01*
X128205Y903823D01*
X128180Y903864D01*
X128129Y903906D01*
X128085Y903954D01*
X128043Y903976D01*
X128006Y904005D01*
X127944Y904026D01*
X127885Y904057D01*
X127831Y904065D01*
X127794Y904077D01*
X127754Y904076D01*
X127700Y904084D01*
X126334Y904084D01*
X126334Y913450D01*
X126323Y913515D01*
X126321Y913581D01*
X126303Y913624D01*
X126295Y913671D01*
X126261Y913728D01*
X126236Y913788D01*
X126205Y913823D01*
X126180Y913864D01*
X126129Y913906D01*
X126085Y913954D01*
X126043Y913976D01*
X126006Y914005D01*
X125944Y914026D01*
X125885Y914057D01*
X125831Y914065D01*
X125794Y914077D01*
X125754Y914076D01*
X125700Y914084D01*
X115700Y914084D01*
X115635Y914073D01*
X115569Y914071D01*
X115526Y914053D01*
X115479Y914045D01*
X115422Y914011D01*
X115362Y913986D01*
X115327Y913955D01*
X115286Y913930D01*
X115245Y913879D01*
X115196Y913835D01*
X115174Y913793D01*
X115145Y913756D01*
X115124Y913694D01*
X115093Y913635D01*
X115085Y913581D01*
X115073Y913544D01*
X115074Y913504D01*
X115066Y913450D01*
X115066Y897450D01*
X115077Y897385D01*
X115079Y897319D01*
X115097Y897276D01*
X115105Y897229D01*
X115139Y897172D01*
X115164Y897112D01*
X115195Y897077D01*
X115220Y897036D01*
X115271Y896995D01*
X115315Y896946D01*
X115357Y896924D01*
X115394Y896895D01*
X115456Y896874D01*
X115515Y896843D01*
X115569Y896835D01*
X115606Y896823D01*
X115646Y896824D01*
X115700Y896816D01*
X119066Y896816D01*
X119066Y893450D01*
X119077Y893385D01*
X119079Y893319D01*
X119097Y893276D01*
X119105Y893229D01*
X119139Y893172D01*
X119164Y893112D01*
X119195Y893077D01*
X119220Y893036D01*
X119271Y892995D01*
X119315Y892946D01*
X119357Y892924D01*
X119394Y892895D01*
X119456Y892874D01*
X119515Y892843D01*
X119569Y892835D01*
X119606Y892823D01*
X119646Y892824D01*
X119700Y892816D01*
X127700Y892816D01*
X127765Y892827D01*
G37*
G36*
X203965Y892827D02*
X203965Y892827D01*
X204031Y892829D01*
X204074Y892847D01*
X204121Y892855D01*
X204178Y892889D01*
X204238Y892914D01*
X204273Y892945D01*
X204314Y892970D01*
X204356Y893021D01*
X204404Y893065D01*
X204426Y893107D01*
X204455Y893144D01*
X204476Y893206D01*
X204507Y893265D01*
X204515Y893319D01*
X204527Y893356D01*
X204526Y893396D01*
X204534Y893450D01*
X204534Y903450D01*
X204523Y903515D01*
X204521Y903581D01*
X204503Y903624D01*
X204495Y903671D01*
X204461Y903728D01*
X204436Y903788D01*
X204405Y903823D01*
X204380Y903864D01*
X204329Y903906D01*
X204285Y903954D01*
X204243Y903976D01*
X204206Y904005D01*
X204144Y904026D01*
X204085Y904057D01*
X204031Y904065D01*
X203994Y904077D01*
X203954Y904076D01*
X203900Y904084D01*
X202534Y904084D01*
X202534Y913450D01*
X202523Y913515D01*
X202521Y913581D01*
X202503Y913624D01*
X202495Y913671D01*
X202461Y913728D01*
X202436Y913788D01*
X202405Y913823D01*
X202380Y913864D01*
X202329Y913906D01*
X202285Y913954D01*
X202243Y913976D01*
X202206Y914005D01*
X202144Y914026D01*
X202085Y914057D01*
X202031Y914065D01*
X201994Y914077D01*
X201954Y914076D01*
X201900Y914084D01*
X191900Y914084D01*
X191835Y914073D01*
X191769Y914071D01*
X191726Y914053D01*
X191679Y914045D01*
X191622Y914011D01*
X191562Y913986D01*
X191527Y913955D01*
X191486Y913930D01*
X191445Y913879D01*
X191396Y913835D01*
X191374Y913793D01*
X191345Y913756D01*
X191324Y913694D01*
X191293Y913635D01*
X191285Y913581D01*
X191273Y913544D01*
X191274Y913504D01*
X191266Y913450D01*
X191266Y897450D01*
X191277Y897385D01*
X191279Y897319D01*
X191297Y897276D01*
X191305Y897229D01*
X191339Y897172D01*
X191364Y897112D01*
X191395Y897077D01*
X191420Y897036D01*
X191471Y896995D01*
X191515Y896946D01*
X191557Y896924D01*
X191594Y896895D01*
X191656Y896874D01*
X191715Y896843D01*
X191769Y896835D01*
X191806Y896823D01*
X191846Y896824D01*
X191900Y896816D01*
X195266Y896816D01*
X195266Y893450D01*
X195277Y893385D01*
X195279Y893319D01*
X195297Y893276D01*
X195305Y893229D01*
X195339Y893172D01*
X195364Y893112D01*
X195395Y893077D01*
X195420Y893036D01*
X195471Y892995D01*
X195515Y892946D01*
X195557Y892924D01*
X195594Y892895D01*
X195656Y892874D01*
X195715Y892843D01*
X195769Y892835D01*
X195806Y892823D01*
X195846Y892824D01*
X195900Y892816D01*
X203900Y892816D01*
X203965Y892827D01*
G37*
G36*
X528825Y21097D02*
X528825Y21097D01*
X528891Y21099D01*
X528934Y21117D01*
X528981Y21125D01*
X529038Y21159D01*
X529098Y21184D01*
X529133Y21215D01*
X529174Y21240D01*
X529216Y21291D01*
X529264Y21335D01*
X529286Y21377D01*
X529315Y21414D01*
X529336Y21476D01*
X529367Y21535D01*
X529375Y21589D01*
X529387Y21626D01*
X529386Y21666D01*
X529394Y21720D01*
X529394Y25086D01*
X532760Y25086D01*
X532825Y25097D01*
X532891Y25099D01*
X532934Y25117D01*
X532981Y25125D01*
X533038Y25159D01*
X533098Y25184D01*
X533133Y25215D01*
X533174Y25240D01*
X533216Y25291D01*
X533264Y25335D01*
X533286Y25377D01*
X533315Y25414D01*
X533336Y25476D01*
X533367Y25535D01*
X533375Y25589D01*
X533387Y25626D01*
X533386Y25666D01*
X533394Y25720D01*
X533394Y33720D01*
X533383Y33785D01*
X533381Y33851D01*
X533363Y33894D01*
X533355Y33941D01*
X533321Y33998D01*
X533296Y34058D01*
X533265Y34093D01*
X533240Y34134D01*
X533189Y34176D01*
X533145Y34224D01*
X533103Y34246D01*
X533066Y34275D01*
X533004Y34296D01*
X532945Y34327D01*
X532891Y34335D01*
X532854Y34347D01*
X532814Y34346D01*
X532760Y34354D01*
X522760Y34354D01*
X522695Y34343D01*
X522629Y34341D01*
X522586Y34323D01*
X522539Y34315D01*
X522482Y34281D01*
X522422Y34256D01*
X522387Y34225D01*
X522346Y34200D01*
X522305Y34149D01*
X522256Y34105D01*
X522234Y34063D01*
X522205Y34026D01*
X522184Y33964D01*
X522153Y33905D01*
X522145Y33851D01*
X522133Y33814D01*
X522134Y33774D01*
X522126Y33720D01*
X522126Y32354D01*
X512760Y32354D01*
X512695Y32343D01*
X512629Y32341D01*
X512586Y32323D01*
X512539Y32315D01*
X512482Y32281D01*
X512422Y32256D01*
X512387Y32225D01*
X512346Y32200D01*
X512305Y32149D01*
X512256Y32105D01*
X512234Y32063D01*
X512205Y32026D01*
X512184Y31964D01*
X512153Y31905D01*
X512145Y31851D01*
X512133Y31814D01*
X512134Y31774D01*
X512126Y31720D01*
X512126Y21720D01*
X512137Y21655D01*
X512139Y21589D01*
X512157Y21546D01*
X512165Y21499D01*
X512199Y21442D01*
X512224Y21382D01*
X512255Y21347D01*
X512280Y21306D01*
X512331Y21265D01*
X512375Y21216D01*
X512417Y21194D01*
X512454Y21165D01*
X512516Y21144D01*
X512575Y21113D01*
X512629Y21105D01*
X512666Y21093D01*
X512706Y21094D01*
X512760Y21086D01*
X528760Y21086D01*
X528825Y21097D01*
G37*
G36*
X792865Y21097D02*
X792865Y21097D01*
X792931Y21099D01*
X792974Y21117D01*
X793021Y21125D01*
X793078Y21159D01*
X793138Y21184D01*
X793173Y21215D01*
X793214Y21240D01*
X793256Y21291D01*
X793304Y21335D01*
X793326Y21377D01*
X793355Y21414D01*
X793376Y21476D01*
X793407Y21535D01*
X793415Y21589D01*
X793427Y21626D01*
X793426Y21666D01*
X793434Y21720D01*
X793434Y31720D01*
X793423Y31785D01*
X793421Y31851D01*
X793403Y31894D01*
X793395Y31941D01*
X793361Y31998D01*
X793336Y32058D01*
X793305Y32093D01*
X793280Y32134D01*
X793229Y32176D01*
X793185Y32224D01*
X793143Y32246D01*
X793106Y32275D01*
X793044Y32296D01*
X792985Y32327D01*
X792931Y32335D01*
X792894Y32347D01*
X792854Y32346D01*
X792800Y32354D01*
X783434Y32354D01*
X783434Y33720D01*
X783423Y33785D01*
X783421Y33851D01*
X783403Y33894D01*
X783395Y33941D01*
X783361Y33998D01*
X783336Y34058D01*
X783305Y34093D01*
X783280Y34134D01*
X783229Y34176D01*
X783185Y34224D01*
X783143Y34246D01*
X783106Y34275D01*
X783044Y34296D01*
X782985Y34327D01*
X782931Y34335D01*
X782894Y34347D01*
X782854Y34346D01*
X782800Y34354D01*
X772800Y34354D01*
X772735Y34343D01*
X772669Y34341D01*
X772626Y34323D01*
X772579Y34315D01*
X772522Y34281D01*
X772462Y34256D01*
X772427Y34225D01*
X772386Y34200D01*
X772345Y34149D01*
X772296Y34105D01*
X772274Y34063D01*
X772245Y34026D01*
X772224Y33964D01*
X772193Y33905D01*
X772185Y33851D01*
X772173Y33814D01*
X772174Y33774D01*
X772166Y33720D01*
X772166Y25720D01*
X772177Y25655D01*
X772179Y25589D01*
X772197Y25546D01*
X772205Y25499D01*
X772239Y25442D01*
X772264Y25382D01*
X772295Y25347D01*
X772320Y25306D01*
X772371Y25265D01*
X772415Y25216D01*
X772457Y25194D01*
X772494Y25165D01*
X772556Y25144D01*
X772615Y25113D01*
X772669Y25105D01*
X772706Y25093D01*
X772746Y25094D01*
X772800Y25086D01*
X776166Y25086D01*
X776166Y21720D01*
X776177Y21655D01*
X776179Y21589D01*
X776197Y21546D01*
X776205Y21499D01*
X776239Y21442D01*
X776264Y21382D01*
X776295Y21347D01*
X776320Y21306D01*
X776371Y21265D01*
X776415Y21216D01*
X776457Y21194D01*
X776494Y21165D01*
X776556Y21144D01*
X776615Y21113D01*
X776669Y21105D01*
X776706Y21093D01*
X776746Y21094D01*
X776800Y21086D01*
X792800Y21086D01*
X792865Y21097D01*
G37*
G36*
X147705Y21097D02*
X147705Y21097D01*
X147771Y21099D01*
X147814Y21117D01*
X147861Y21125D01*
X147918Y21159D01*
X147978Y21184D01*
X148013Y21215D01*
X148054Y21240D01*
X148096Y21291D01*
X148144Y21335D01*
X148166Y21377D01*
X148195Y21414D01*
X148216Y21476D01*
X148247Y21535D01*
X148255Y21589D01*
X148267Y21626D01*
X148266Y21666D01*
X148274Y21720D01*
X148274Y31720D01*
X148263Y31785D01*
X148261Y31851D01*
X148243Y31894D01*
X148235Y31941D01*
X148201Y31998D01*
X148176Y32058D01*
X148145Y32093D01*
X148120Y32134D01*
X148069Y32176D01*
X148025Y32224D01*
X147983Y32246D01*
X147946Y32275D01*
X147884Y32296D01*
X147825Y32327D01*
X147771Y32335D01*
X147734Y32347D01*
X147694Y32346D01*
X147640Y32354D01*
X138274Y32354D01*
X138274Y33720D01*
X138263Y33785D01*
X138261Y33851D01*
X138243Y33894D01*
X138235Y33941D01*
X138201Y33998D01*
X138176Y34058D01*
X138145Y34093D01*
X138120Y34134D01*
X138069Y34176D01*
X138025Y34224D01*
X137983Y34246D01*
X137946Y34275D01*
X137884Y34296D01*
X137825Y34327D01*
X137771Y34335D01*
X137734Y34347D01*
X137694Y34346D01*
X137640Y34354D01*
X127640Y34354D01*
X127575Y34343D01*
X127509Y34341D01*
X127466Y34323D01*
X127419Y34315D01*
X127362Y34281D01*
X127302Y34256D01*
X127267Y34225D01*
X127226Y34200D01*
X127185Y34149D01*
X127136Y34105D01*
X127114Y34063D01*
X127085Y34026D01*
X127064Y33964D01*
X127033Y33905D01*
X127025Y33851D01*
X127013Y33814D01*
X127014Y33774D01*
X127006Y33720D01*
X127006Y25720D01*
X127017Y25655D01*
X127019Y25589D01*
X127037Y25546D01*
X127045Y25499D01*
X127079Y25442D01*
X127104Y25382D01*
X127135Y25347D01*
X127160Y25306D01*
X127211Y25265D01*
X127255Y25216D01*
X127297Y25194D01*
X127334Y25165D01*
X127396Y25144D01*
X127455Y25113D01*
X127509Y25105D01*
X127546Y25093D01*
X127586Y25094D01*
X127640Y25086D01*
X131006Y25086D01*
X131006Y21720D01*
X131017Y21655D01*
X131019Y21589D01*
X131037Y21546D01*
X131045Y21499D01*
X131079Y21442D01*
X131104Y21382D01*
X131135Y21347D01*
X131160Y21306D01*
X131211Y21265D01*
X131255Y21216D01*
X131297Y21194D01*
X131334Y21165D01*
X131396Y21144D01*
X131455Y21113D01*
X131509Y21105D01*
X131546Y21093D01*
X131586Y21094D01*
X131640Y21086D01*
X147640Y21086D01*
X147705Y21097D01*
G37*
G36*
X203705Y21097D02*
X203705Y21097D01*
X203771Y21099D01*
X203814Y21117D01*
X203861Y21125D01*
X203918Y21159D01*
X203978Y21184D01*
X204013Y21215D01*
X204054Y21240D01*
X204096Y21291D01*
X204144Y21335D01*
X204166Y21377D01*
X204195Y21414D01*
X204216Y21476D01*
X204247Y21535D01*
X204255Y21589D01*
X204267Y21626D01*
X204266Y21666D01*
X204274Y21720D01*
X204274Y25086D01*
X207640Y25086D01*
X207705Y25097D01*
X207771Y25099D01*
X207814Y25117D01*
X207861Y25125D01*
X207918Y25159D01*
X207978Y25184D01*
X208013Y25215D01*
X208054Y25240D01*
X208096Y25291D01*
X208144Y25335D01*
X208166Y25377D01*
X208195Y25414D01*
X208216Y25476D01*
X208247Y25535D01*
X208255Y25589D01*
X208267Y25626D01*
X208266Y25666D01*
X208274Y25720D01*
X208274Y33720D01*
X208263Y33785D01*
X208261Y33851D01*
X208243Y33894D01*
X208235Y33941D01*
X208201Y33998D01*
X208176Y34058D01*
X208145Y34093D01*
X208120Y34134D01*
X208069Y34176D01*
X208025Y34224D01*
X207983Y34246D01*
X207946Y34275D01*
X207884Y34296D01*
X207825Y34327D01*
X207771Y34335D01*
X207734Y34347D01*
X207694Y34346D01*
X207640Y34354D01*
X197640Y34354D01*
X197575Y34343D01*
X197509Y34341D01*
X197466Y34323D01*
X197419Y34315D01*
X197362Y34281D01*
X197302Y34256D01*
X197267Y34225D01*
X197226Y34200D01*
X197185Y34149D01*
X197136Y34105D01*
X197114Y34063D01*
X197085Y34026D01*
X197064Y33964D01*
X197033Y33905D01*
X197025Y33851D01*
X197013Y33814D01*
X197014Y33774D01*
X197006Y33720D01*
X197006Y32354D01*
X187640Y32354D01*
X187575Y32343D01*
X187509Y32341D01*
X187466Y32323D01*
X187419Y32315D01*
X187362Y32281D01*
X187302Y32256D01*
X187267Y32225D01*
X187226Y32200D01*
X187185Y32149D01*
X187136Y32105D01*
X187114Y32063D01*
X187085Y32026D01*
X187064Y31964D01*
X187033Y31905D01*
X187025Y31851D01*
X187013Y31814D01*
X187014Y31774D01*
X187006Y31720D01*
X187006Y21720D01*
X187017Y21655D01*
X187019Y21589D01*
X187037Y21546D01*
X187045Y21499D01*
X187079Y21442D01*
X187104Y21382D01*
X187135Y21347D01*
X187160Y21306D01*
X187211Y21265D01*
X187255Y21216D01*
X187297Y21194D01*
X187334Y21165D01*
X187396Y21144D01*
X187455Y21113D01*
X187509Y21105D01*
X187546Y21093D01*
X187586Y21094D01*
X187640Y21086D01*
X203640Y21086D01*
X203705Y21097D01*
G37*
G36*
X848865Y21097D02*
X848865Y21097D01*
X848931Y21099D01*
X848974Y21117D01*
X849021Y21125D01*
X849078Y21159D01*
X849138Y21184D01*
X849173Y21215D01*
X849214Y21240D01*
X849256Y21291D01*
X849304Y21335D01*
X849326Y21377D01*
X849355Y21414D01*
X849376Y21476D01*
X849407Y21535D01*
X849415Y21589D01*
X849427Y21626D01*
X849426Y21666D01*
X849434Y21720D01*
X849434Y25086D01*
X852800Y25086D01*
X852865Y25097D01*
X852931Y25099D01*
X852974Y25117D01*
X853021Y25125D01*
X853078Y25159D01*
X853138Y25184D01*
X853173Y25215D01*
X853214Y25240D01*
X853256Y25291D01*
X853304Y25335D01*
X853326Y25377D01*
X853355Y25414D01*
X853376Y25476D01*
X853407Y25535D01*
X853415Y25589D01*
X853427Y25626D01*
X853426Y25666D01*
X853434Y25720D01*
X853434Y33720D01*
X853423Y33785D01*
X853421Y33851D01*
X853403Y33894D01*
X853395Y33941D01*
X853361Y33998D01*
X853336Y34058D01*
X853305Y34093D01*
X853280Y34134D01*
X853229Y34176D01*
X853185Y34224D01*
X853143Y34246D01*
X853106Y34275D01*
X853044Y34296D01*
X852985Y34327D01*
X852931Y34335D01*
X852894Y34347D01*
X852854Y34346D01*
X852800Y34354D01*
X842800Y34354D01*
X842735Y34343D01*
X842669Y34341D01*
X842626Y34323D01*
X842579Y34315D01*
X842522Y34281D01*
X842462Y34256D01*
X842427Y34225D01*
X842386Y34200D01*
X842345Y34149D01*
X842296Y34105D01*
X842274Y34063D01*
X842245Y34026D01*
X842224Y33964D01*
X842193Y33905D01*
X842185Y33851D01*
X842173Y33814D01*
X842174Y33774D01*
X842166Y33720D01*
X842166Y32354D01*
X832800Y32354D01*
X832735Y32343D01*
X832669Y32341D01*
X832626Y32323D01*
X832579Y32315D01*
X832522Y32281D01*
X832462Y32256D01*
X832427Y32225D01*
X832386Y32200D01*
X832345Y32149D01*
X832296Y32105D01*
X832274Y32063D01*
X832245Y32026D01*
X832224Y31964D01*
X832193Y31905D01*
X832185Y31851D01*
X832173Y31814D01*
X832174Y31774D01*
X832166Y31720D01*
X832166Y21720D01*
X832177Y21655D01*
X832179Y21589D01*
X832197Y21546D01*
X832205Y21499D01*
X832239Y21442D01*
X832264Y21382D01*
X832295Y21347D01*
X832320Y21306D01*
X832371Y21265D01*
X832415Y21216D01*
X832457Y21194D01*
X832494Y21165D01*
X832556Y21144D01*
X832615Y21113D01*
X832669Y21105D01*
X832706Y21093D01*
X832746Y21094D01*
X832800Y21086D01*
X848800Y21086D01*
X848865Y21097D01*
G37*
G36*
X472825Y21097D02*
X472825Y21097D01*
X472891Y21099D01*
X472934Y21117D01*
X472981Y21125D01*
X473038Y21159D01*
X473098Y21184D01*
X473133Y21215D01*
X473174Y21240D01*
X473216Y21291D01*
X473264Y21335D01*
X473286Y21377D01*
X473315Y21414D01*
X473336Y21476D01*
X473367Y21535D01*
X473375Y21589D01*
X473387Y21626D01*
X473386Y21666D01*
X473394Y21720D01*
X473394Y31720D01*
X473383Y31785D01*
X473381Y31851D01*
X473363Y31894D01*
X473355Y31941D01*
X473321Y31998D01*
X473296Y32058D01*
X473265Y32093D01*
X473240Y32134D01*
X473189Y32176D01*
X473145Y32224D01*
X473103Y32246D01*
X473066Y32275D01*
X473004Y32296D01*
X472945Y32327D01*
X472891Y32335D01*
X472854Y32347D01*
X472814Y32346D01*
X472760Y32354D01*
X463394Y32354D01*
X463394Y33720D01*
X463383Y33785D01*
X463381Y33851D01*
X463363Y33894D01*
X463355Y33941D01*
X463321Y33998D01*
X463296Y34058D01*
X463265Y34093D01*
X463240Y34134D01*
X463189Y34176D01*
X463145Y34224D01*
X463103Y34246D01*
X463066Y34275D01*
X463004Y34296D01*
X462945Y34327D01*
X462891Y34335D01*
X462854Y34347D01*
X462814Y34346D01*
X462760Y34354D01*
X452760Y34354D01*
X452695Y34343D01*
X452629Y34341D01*
X452586Y34323D01*
X452539Y34315D01*
X452482Y34281D01*
X452422Y34256D01*
X452387Y34225D01*
X452346Y34200D01*
X452305Y34149D01*
X452256Y34105D01*
X452234Y34063D01*
X452205Y34026D01*
X452184Y33964D01*
X452153Y33905D01*
X452145Y33851D01*
X452133Y33814D01*
X452134Y33774D01*
X452126Y33720D01*
X452126Y25720D01*
X452137Y25655D01*
X452139Y25589D01*
X452157Y25546D01*
X452165Y25499D01*
X452199Y25442D01*
X452224Y25382D01*
X452255Y25347D01*
X452280Y25306D01*
X452331Y25265D01*
X452375Y25216D01*
X452417Y25194D01*
X452454Y25165D01*
X452516Y25144D01*
X452575Y25113D01*
X452629Y25105D01*
X452666Y25093D01*
X452706Y25094D01*
X452760Y25086D01*
X456126Y25086D01*
X456126Y21720D01*
X456137Y21655D01*
X456139Y21589D01*
X456157Y21546D01*
X456165Y21499D01*
X456199Y21442D01*
X456224Y21382D01*
X456255Y21347D01*
X456280Y21306D01*
X456331Y21265D01*
X456375Y21216D01*
X456417Y21194D01*
X456454Y21165D01*
X456516Y21144D01*
X456575Y21113D01*
X456629Y21105D01*
X456666Y21093D01*
X456706Y21094D01*
X456760Y21086D01*
X472760Y21086D01*
X472825Y21097D01*
G37*
G36*
X163765Y952827D02*
X163765Y952827D01*
X163831Y952829D01*
X163874Y952847D01*
X163921Y952855D01*
X163978Y952889D01*
X164038Y952914D01*
X164073Y952945D01*
X164114Y952970D01*
X164156Y953021D01*
X164204Y953065D01*
X164226Y953107D01*
X164255Y953144D01*
X164276Y953206D01*
X164307Y953265D01*
X164315Y953319D01*
X164327Y953356D01*
X164326Y953396D01*
X164334Y953450D01*
X164334Y969450D01*
X164323Y969515D01*
X164321Y969581D01*
X164303Y969624D01*
X164295Y969671D01*
X164261Y969728D01*
X164236Y969788D01*
X164205Y969823D01*
X164180Y969864D01*
X164129Y969906D01*
X164085Y969954D01*
X164043Y969976D01*
X164006Y970005D01*
X163944Y970026D01*
X163885Y970057D01*
X163831Y970065D01*
X163794Y970077D01*
X163754Y970076D01*
X163700Y970084D01*
X158334Y970084D01*
X158334Y973450D01*
X158323Y973515D01*
X158321Y973581D01*
X158303Y973624D01*
X158295Y973671D01*
X158261Y973728D01*
X158236Y973788D01*
X158205Y973823D01*
X158180Y973864D01*
X158129Y973906D01*
X158085Y973954D01*
X158043Y973976D01*
X158006Y974005D01*
X157944Y974026D01*
X157885Y974057D01*
X157831Y974065D01*
X157794Y974077D01*
X157754Y974076D01*
X157700Y974084D01*
X151700Y974084D01*
X151635Y974073D01*
X151569Y974071D01*
X151526Y974053D01*
X151479Y974045D01*
X151422Y974011D01*
X151362Y973986D01*
X151327Y973955D01*
X151286Y973930D01*
X151245Y973879D01*
X151196Y973835D01*
X151174Y973793D01*
X151145Y973756D01*
X151124Y973694D01*
X151093Y973635D01*
X151085Y973581D01*
X151073Y973544D01*
X151074Y973504D01*
X151066Y973450D01*
X151066Y963450D01*
X151077Y963385D01*
X151079Y963319D01*
X151097Y963276D01*
X151105Y963229D01*
X151139Y963172D01*
X151164Y963112D01*
X151195Y963077D01*
X151220Y963036D01*
X151271Y962995D01*
X151315Y962946D01*
X151357Y962924D01*
X151394Y962895D01*
X151456Y962874D01*
X151515Y962843D01*
X151569Y962835D01*
X151606Y962823D01*
X151646Y962824D01*
X151700Y962816D01*
X153066Y962816D01*
X153066Y953450D01*
X153077Y953385D01*
X153079Y953319D01*
X153097Y953276D01*
X153105Y953229D01*
X153139Y953172D01*
X153164Y953112D01*
X153195Y953077D01*
X153220Y953036D01*
X153271Y952995D01*
X153315Y952946D01*
X153357Y952924D01*
X153394Y952895D01*
X153456Y952874D01*
X153515Y952843D01*
X153569Y952835D01*
X153606Y952823D01*
X153646Y952824D01*
X153700Y952816D01*
X163700Y952816D01*
X163765Y952827D01*
G37*
G36*
X239965Y952827D02*
X239965Y952827D01*
X240031Y952829D01*
X240074Y952847D01*
X240121Y952855D01*
X240178Y952889D01*
X240238Y952914D01*
X240273Y952945D01*
X240314Y952970D01*
X240356Y953021D01*
X240404Y953065D01*
X240426Y953107D01*
X240455Y953144D01*
X240476Y953206D01*
X240507Y953265D01*
X240515Y953319D01*
X240527Y953356D01*
X240526Y953396D01*
X240534Y953450D01*
X240534Y969450D01*
X240523Y969515D01*
X240521Y969581D01*
X240503Y969624D01*
X240495Y969671D01*
X240461Y969728D01*
X240436Y969788D01*
X240405Y969823D01*
X240380Y969864D01*
X240329Y969906D01*
X240285Y969954D01*
X240243Y969976D01*
X240206Y970005D01*
X240144Y970026D01*
X240085Y970057D01*
X240031Y970065D01*
X239994Y970077D01*
X239954Y970076D01*
X239900Y970084D01*
X234534Y970084D01*
X234534Y973450D01*
X234523Y973515D01*
X234521Y973581D01*
X234503Y973624D01*
X234495Y973671D01*
X234461Y973728D01*
X234436Y973788D01*
X234405Y973823D01*
X234380Y973864D01*
X234329Y973906D01*
X234285Y973954D01*
X234243Y973976D01*
X234206Y974005D01*
X234144Y974026D01*
X234085Y974057D01*
X234031Y974065D01*
X233994Y974077D01*
X233954Y974076D01*
X233900Y974084D01*
X227900Y974084D01*
X227835Y974073D01*
X227769Y974071D01*
X227726Y974053D01*
X227679Y974045D01*
X227622Y974011D01*
X227562Y973986D01*
X227527Y973955D01*
X227486Y973930D01*
X227445Y973879D01*
X227396Y973835D01*
X227374Y973793D01*
X227345Y973756D01*
X227324Y973694D01*
X227293Y973635D01*
X227285Y973581D01*
X227273Y973544D01*
X227274Y973504D01*
X227266Y973450D01*
X227266Y963450D01*
X227277Y963385D01*
X227279Y963319D01*
X227297Y963276D01*
X227305Y963229D01*
X227339Y963172D01*
X227364Y963112D01*
X227395Y963077D01*
X227420Y963036D01*
X227471Y962995D01*
X227515Y962946D01*
X227557Y962924D01*
X227594Y962895D01*
X227656Y962874D01*
X227715Y962843D01*
X227769Y962835D01*
X227806Y962823D01*
X227846Y962824D01*
X227900Y962816D01*
X229266Y962816D01*
X229266Y953450D01*
X229277Y953385D01*
X229279Y953319D01*
X229297Y953276D01*
X229305Y953229D01*
X229339Y953172D01*
X229364Y953112D01*
X229395Y953077D01*
X229420Y953036D01*
X229471Y952995D01*
X229515Y952946D01*
X229557Y952924D01*
X229594Y952895D01*
X229656Y952874D01*
X229715Y952843D01*
X229769Y952835D01*
X229806Y952823D01*
X229846Y952824D01*
X229900Y952816D01*
X239900Y952816D01*
X239965Y952827D01*
G37*
G36*
X157765Y892827D02*
X157765Y892827D01*
X157831Y892829D01*
X157874Y892847D01*
X157921Y892855D01*
X157978Y892889D01*
X158038Y892914D01*
X158073Y892945D01*
X158114Y892970D01*
X158156Y893021D01*
X158204Y893065D01*
X158226Y893107D01*
X158255Y893144D01*
X158276Y893206D01*
X158307Y893265D01*
X158315Y893319D01*
X158327Y893356D01*
X158326Y893396D01*
X158334Y893450D01*
X158334Y896816D01*
X163700Y896816D01*
X163765Y896827D01*
X163831Y896829D01*
X163874Y896847D01*
X163921Y896855D01*
X163978Y896889D01*
X164038Y896914D01*
X164073Y896945D01*
X164114Y896970D01*
X164156Y897021D01*
X164204Y897065D01*
X164226Y897107D01*
X164255Y897144D01*
X164276Y897206D01*
X164307Y897265D01*
X164315Y897319D01*
X164327Y897356D01*
X164326Y897396D01*
X164334Y897450D01*
X164334Y913450D01*
X164323Y913515D01*
X164321Y913581D01*
X164303Y913624D01*
X164295Y913671D01*
X164261Y913728D01*
X164236Y913788D01*
X164205Y913823D01*
X164180Y913864D01*
X164129Y913906D01*
X164085Y913954D01*
X164043Y913976D01*
X164006Y914005D01*
X163944Y914026D01*
X163885Y914057D01*
X163831Y914065D01*
X163794Y914077D01*
X163754Y914076D01*
X163700Y914084D01*
X153700Y914084D01*
X153635Y914073D01*
X153569Y914071D01*
X153526Y914053D01*
X153479Y914045D01*
X153422Y914011D01*
X153362Y913986D01*
X153327Y913955D01*
X153286Y913930D01*
X153245Y913879D01*
X153196Y913835D01*
X153174Y913793D01*
X153145Y913756D01*
X153124Y913694D01*
X153093Y913635D01*
X153085Y913581D01*
X153073Y913544D01*
X153074Y913504D01*
X153066Y913450D01*
X153066Y904084D01*
X151700Y904084D01*
X151635Y904073D01*
X151569Y904071D01*
X151526Y904053D01*
X151479Y904045D01*
X151422Y904011D01*
X151362Y903986D01*
X151327Y903955D01*
X151286Y903930D01*
X151245Y903879D01*
X151196Y903835D01*
X151174Y903793D01*
X151145Y903756D01*
X151124Y903694D01*
X151093Y903635D01*
X151085Y903581D01*
X151073Y903544D01*
X151074Y903504D01*
X151066Y903450D01*
X151066Y893450D01*
X151077Y893385D01*
X151079Y893319D01*
X151097Y893276D01*
X151105Y893229D01*
X151139Y893172D01*
X151164Y893112D01*
X151195Y893077D01*
X151220Y893036D01*
X151271Y892995D01*
X151315Y892946D01*
X151357Y892924D01*
X151394Y892895D01*
X151456Y892874D01*
X151515Y892843D01*
X151569Y892835D01*
X151606Y892823D01*
X151646Y892824D01*
X151700Y892816D01*
X157700Y892816D01*
X157765Y892827D01*
G37*
G36*
X233965Y892827D02*
X233965Y892827D01*
X234031Y892829D01*
X234074Y892847D01*
X234121Y892855D01*
X234178Y892889D01*
X234238Y892914D01*
X234273Y892945D01*
X234314Y892970D01*
X234356Y893021D01*
X234404Y893065D01*
X234426Y893107D01*
X234455Y893144D01*
X234476Y893206D01*
X234507Y893265D01*
X234515Y893319D01*
X234527Y893356D01*
X234526Y893396D01*
X234534Y893450D01*
X234534Y896816D01*
X239900Y896816D01*
X239965Y896827D01*
X240031Y896829D01*
X240074Y896847D01*
X240121Y896855D01*
X240178Y896889D01*
X240238Y896914D01*
X240273Y896945D01*
X240314Y896970D01*
X240356Y897021D01*
X240404Y897065D01*
X240426Y897107D01*
X240455Y897144D01*
X240476Y897206D01*
X240507Y897265D01*
X240515Y897319D01*
X240527Y897356D01*
X240526Y897396D01*
X240534Y897450D01*
X240534Y913450D01*
X240523Y913515D01*
X240521Y913581D01*
X240503Y913624D01*
X240495Y913671D01*
X240461Y913728D01*
X240436Y913788D01*
X240405Y913823D01*
X240380Y913864D01*
X240329Y913906D01*
X240285Y913954D01*
X240243Y913976D01*
X240206Y914005D01*
X240144Y914026D01*
X240085Y914057D01*
X240031Y914065D01*
X239994Y914077D01*
X239954Y914076D01*
X239900Y914084D01*
X229900Y914084D01*
X229835Y914073D01*
X229769Y914071D01*
X229726Y914053D01*
X229679Y914045D01*
X229622Y914011D01*
X229562Y913986D01*
X229527Y913955D01*
X229486Y913930D01*
X229445Y913879D01*
X229396Y913835D01*
X229374Y913793D01*
X229345Y913756D01*
X229324Y913694D01*
X229293Y913635D01*
X229285Y913581D01*
X229273Y913544D01*
X229274Y913504D01*
X229266Y913450D01*
X229266Y904084D01*
X227900Y904084D01*
X227835Y904073D01*
X227769Y904071D01*
X227726Y904053D01*
X227679Y904045D01*
X227622Y904011D01*
X227562Y903986D01*
X227527Y903955D01*
X227486Y903930D01*
X227445Y903879D01*
X227396Y903835D01*
X227374Y903793D01*
X227345Y903756D01*
X227324Y903694D01*
X227293Y903635D01*
X227285Y903581D01*
X227273Y903544D01*
X227274Y903504D01*
X227266Y903450D01*
X227266Y893450D01*
X227277Y893385D01*
X227279Y893319D01*
X227297Y893276D01*
X227305Y893229D01*
X227339Y893172D01*
X227364Y893112D01*
X227395Y893077D01*
X227420Y893036D01*
X227471Y892995D01*
X227515Y892946D01*
X227557Y892924D01*
X227594Y892895D01*
X227656Y892874D01*
X227715Y892843D01*
X227769Y892835D01*
X227806Y892823D01*
X227846Y892824D01*
X227900Y892816D01*
X233900Y892816D01*
X233965Y892827D01*
G37*
G36*
X852865Y57097D02*
X852865Y57097D01*
X852931Y57099D01*
X852974Y57117D01*
X853021Y57125D01*
X853078Y57159D01*
X853138Y57184D01*
X853173Y57215D01*
X853214Y57240D01*
X853256Y57291D01*
X853304Y57335D01*
X853326Y57377D01*
X853355Y57414D01*
X853376Y57476D01*
X853407Y57535D01*
X853415Y57589D01*
X853427Y57626D01*
X853426Y57666D01*
X853434Y57720D01*
X853434Y63720D01*
X853423Y63785D01*
X853421Y63851D01*
X853403Y63894D01*
X853395Y63941D01*
X853361Y63998D01*
X853336Y64058D01*
X853305Y64093D01*
X853280Y64134D01*
X853229Y64176D01*
X853185Y64224D01*
X853143Y64246D01*
X853106Y64275D01*
X853044Y64296D01*
X852985Y64327D01*
X852931Y64335D01*
X852894Y64347D01*
X852854Y64346D01*
X852800Y64354D01*
X849434Y64354D01*
X849434Y69720D01*
X849423Y69785D01*
X849421Y69851D01*
X849403Y69894D01*
X849395Y69941D01*
X849361Y69998D01*
X849336Y70058D01*
X849305Y70093D01*
X849280Y70134D01*
X849229Y70176D01*
X849185Y70224D01*
X849143Y70246D01*
X849106Y70275D01*
X849044Y70296D01*
X848985Y70327D01*
X848931Y70335D01*
X848894Y70347D01*
X848854Y70346D01*
X848800Y70354D01*
X832800Y70354D01*
X832735Y70343D01*
X832669Y70341D01*
X832626Y70323D01*
X832579Y70315D01*
X832522Y70281D01*
X832462Y70256D01*
X832427Y70225D01*
X832386Y70200D01*
X832345Y70149D01*
X832296Y70105D01*
X832274Y70063D01*
X832245Y70026D01*
X832224Y69964D01*
X832193Y69905D01*
X832185Y69851D01*
X832173Y69814D01*
X832174Y69774D01*
X832166Y69720D01*
X832166Y59720D01*
X832177Y59655D01*
X832179Y59589D01*
X832197Y59546D01*
X832205Y59499D01*
X832239Y59442D01*
X832264Y59382D01*
X832295Y59347D01*
X832320Y59306D01*
X832371Y59265D01*
X832415Y59216D01*
X832457Y59194D01*
X832494Y59165D01*
X832556Y59144D01*
X832615Y59113D01*
X832669Y59105D01*
X832706Y59093D01*
X832746Y59094D01*
X832800Y59086D01*
X842166Y59086D01*
X842166Y57720D01*
X842177Y57655D01*
X842179Y57589D01*
X842197Y57546D01*
X842205Y57499D01*
X842239Y57442D01*
X842264Y57382D01*
X842295Y57347D01*
X842320Y57306D01*
X842371Y57265D01*
X842415Y57216D01*
X842457Y57194D01*
X842494Y57165D01*
X842556Y57144D01*
X842615Y57113D01*
X842669Y57105D01*
X842706Y57093D01*
X842746Y57094D01*
X842800Y57086D01*
X852800Y57086D01*
X852865Y57097D01*
G37*
G36*
X532825Y57097D02*
X532825Y57097D01*
X532891Y57099D01*
X532934Y57117D01*
X532981Y57125D01*
X533038Y57159D01*
X533098Y57184D01*
X533133Y57215D01*
X533174Y57240D01*
X533216Y57291D01*
X533264Y57335D01*
X533286Y57377D01*
X533315Y57414D01*
X533336Y57476D01*
X533367Y57535D01*
X533375Y57589D01*
X533387Y57626D01*
X533386Y57666D01*
X533394Y57720D01*
X533394Y63720D01*
X533383Y63785D01*
X533381Y63851D01*
X533363Y63894D01*
X533355Y63941D01*
X533321Y63998D01*
X533296Y64058D01*
X533265Y64093D01*
X533240Y64134D01*
X533189Y64176D01*
X533145Y64224D01*
X533103Y64246D01*
X533066Y64275D01*
X533004Y64296D01*
X532945Y64327D01*
X532891Y64335D01*
X532854Y64347D01*
X532814Y64346D01*
X532760Y64354D01*
X529394Y64354D01*
X529394Y69720D01*
X529383Y69785D01*
X529381Y69851D01*
X529363Y69894D01*
X529355Y69941D01*
X529321Y69998D01*
X529296Y70058D01*
X529265Y70093D01*
X529240Y70134D01*
X529189Y70176D01*
X529145Y70224D01*
X529103Y70246D01*
X529066Y70275D01*
X529004Y70296D01*
X528945Y70327D01*
X528891Y70335D01*
X528854Y70347D01*
X528814Y70346D01*
X528760Y70354D01*
X512760Y70354D01*
X512695Y70343D01*
X512629Y70341D01*
X512586Y70323D01*
X512539Y70315D01*
X512482Y70281D01*
X512422Y70256D01*
X512387Y70225D01*
X512346Y70200D01*
X512305Y70149D01*
X512256Y70105D01*
X512234Y70063D01*
X512205Y70026D01*
X512184Y69964D01*
X512153Y69905D01*
X512145Y69851D01*
X512133Y69814D01*
X512134Y69774D01*
X512126Y69720D01*
X512126Y59720D01*
X512137Y59655D01*
X512139Y59589D01*
X512157Y59546D01*
X512165Y59499D01*
X512199Y59442D01*
X512224Y59382D01*
X512255Y59347D01*
X512280Y59306D01*
X512331Y59265D01*
X512375Y59216D01*
X512417Y59194D01*
X512454Y59165D01*
X512516Y59144D01*
X512575Y59113D01*
X512629Y59105D01*
X512666Y59093D01*
X512706Y59094D01*
X512760Y59086D01*
X522126Y59086D01*
X522126Y57720D01*
X522137Y57655D01*
X522139Y57589D01*
X522157Y57546D01*
X522165Y57499D01*
X522199Y57442D01*
X522224Y57382D01*
X522255Y57347D01*
X522280Y57306D01*
X522331Y57265D01*
X522375Y57216D01*
X522417Y57194D01*
X522454Y57165D01*
X522516Y57144D01*
X522575Y57113D01*
X522629Y57105D01*
X522666Y57093D01*
X522706Y57094D01*
X522760Y57086D01*
X532760Y57086D01*
X532825Y57097D01*
G37*
G36*
X137705Y57097D02*
X137705Y57097D01*
X137771Y57099D01*
X137814Y57117D01*
X137861Y57125D01*
X137918Y57159D01*
X137978Y57184D01*
X138013Y57215D01*
X138054Y57240D01*
X138096Y57291D01*
X138144Y57335D01*
X138166Y57377D01*
X138195Y57414D01*
X138216Y57476D01*
X138247Y57535D01*
X138255Y57589D01*
X138267Y57626D01*
X138266Y57666D01*
X138274Y57720D01*
X138274Y59086D01*
X147640Y59086D01*
X147705Y59097D01*
X147771Y59099D01*
X147814Y59117D01*
X147861Y59125D01*
X147918Y59159D01*
X147978Y59184D01*
X148013Y59215D01*
X148054Y59240D01*
X148096Y59291D01*
X148144Y59335D01*
X148166Y59377D01*
X148195Y59414D01*
X148216Y59476D01*
X148247Y59535D01*
X148255Y59589D01*
X148267Y59626D01*
X148266Y59666D01*
X148274Y59720D01*
X148274Y69720D01*
X148263Y69785D01*
X148261Y69851D01*
X148243Y69894D01*
X148235Y69941D01*
X148201Y69998D01*
X148176Y70058D01*
X148145Y70093D01*
X148120Y70134D01*
X148069Y70176D01*
X148025Y70224D01*
X147983Y70246D01*
X147946Y70275D01*
X147884Y70296D01*
X147825Y70327D01*
X147771Y70335D01*
X147734Y70347D01*
X147694Y70346D01*
X147640Y70354D01*
X131640Y70354D01*
X131575Y70343D01*
X131509Y70341D01*
X131466Y70323D01*
X131419Y70315D01*
X131362Y70281D01*
X131302Y70256D01*
X131267Y70225D01*
X131226Y70200D01*
X131185Y70149D01*
X131136Y70105D01*
X131114Y70063D01*
X131085Y70026D01*
X131064Y69964D01*
X131033Y69905D01*
X131025Y69851D01*
X131013Y69814D01*
X131014Y69774D01*
X131006Y69720D01*
X131006Y64354D01*
X127640Y64354D01*
X127575Y64343D01*
X127509Y64341D01*
X127466Y64323D01*
X127419Y64315D01*
X127362Y64281D01*
X127302Y64256D01*
X127267Y64225D01*
X127226Y64200D01*
X127185Y64149D01*
X127136Y64105D01*
X127114Y64063D01*
X127085Y64026D01*
X127064Y63964D01*
X127033Y63905D01*
X127025Y63851D01*
X127013Y63814D01*
X127014Y63774D01*
X127006Y63720D01*
X127006Y57720D01*
X127017Y57655D01*
X127019Y57589D01*
X127037Y57546D01*
X127045Y57499D01*
X127079Y57442D01*
X127104Y57382D01*
X127135Y57347D01*
X127160Y57306D01*
X127211Y57265D01*
X127255Y57216D01*
X127297Y57194D01*
X127334Y57165D01*
X127396Y57144D01*
X127455Y57113D01*
X127509Y57105D01*
X127546Y57093D01*
X127586Y57094D01*
X127640Y57086D01*
X137640Y57086D01*
X137705Y57097D01*
G37*
G36*
X782865Y57097D02*
X782865Y57097D01*
X782931Y57099D01*
X782974Y57117D01*
X783021Y57125D01*
X783078Y57159D01*
X783138Y57184D01*
X783173Y57215D01*
X783214Y57240D01*
X783256Y57291D01*
X783304Y57335D01*
X783326Y57377D01*
X783355Y57414D01*
X783376Y57476D01*
X783407Y57535D01*
X783415Y57589D01*
X783427Y57626D01*
X783426Y57666D01*
X783434Y57720D01*
X783434Y59086D01*
X792800Y59086D01*
X792865Y59097D01*
X792931Y59099D01*
X792974Y59117D01*
X793021Y59125D01*
X793078Y59159D01*
X793138Y59184D01*
X793173Y59215D01*
X793214Y59240D01*
X793256Y59291D01*
X793304Y59335D01*
X793326Y59377D01*
X793355Y59414D01*
X793376Y59476D01*
X793407Y59535D01*
X793415Y59589D01*
X793427Y59626D01*
X793426Y59666D01*
X793434Y59720D01*
X793434Y69720D01*
X793423Y69785D01*
X793421Y69851D01*
X793403Y69894D01*
X793395Y69941D01*
X793361Y69998D01*
X793336Y70058D01*
X793305Y70093D01*
X793280Y70134D01*
X793229Y70176D01*
X793185Y70224D01*
X793143Y70246D01*
X793106Y70275D01*
X793044Y70296D01*
X792985Y70327D01*
X792931Y70335D01*
X792894Y70347D01*
X792854Y70346D01*
X792800Y70354D01*
X776800Y70354D01*
X776735Y70343D01*
X776669Y70341D01*
X776626Y70323D01*
X776579Y70315D01*
X776522Y70281D01*
X776462Y70256D01*
X776427Y70225D01*
X776386Y70200D01*
X776345Y70149D01*
X776296Y70105D01*
X776274Y70063D01*
X776245Y70026D01*
X776224Y69964D01*
X776193Y69905D01*
X776185Y69851D01*
X776173Y69814D01*
X776174Y69774D01*
X776166Y69720D01*
X776166Y64354D01*
X772800Y64354D01*
X772735Y64343D01*
X772669Y64341D01*
X772626Y64323D01*
X772579Y64315D01*
X772522Y64281D01*
X772462Y64256D01*
X772427Y64225D01*
X772386Y64200D01*
X772345Y64149D01*
X772296Y64105D01*
X772274Y64063D01*
X772245Y64026D01*
X772224Y63964D01*
X772193Y63905D01*
X772185Y63851D01*
X772173Y63814D01*
X772174Y63774D01*
X772166Y63720D01*
X772166Y57720D01*
X772177Y57655D01*
X772179Y57589D01*
X772197Y57546D01*
X772205Y57499D01*
X772239Y57442D01*
X772264Y57382D01*
X772295Y57347D01*
X772320Y57306D01*
X772371Y57265D01*
X772415Y57216D01*
X772457Y57194D01*
X772494Y57165D01*
X772556Y57144D01*
X772615Y57113D01*
X772669Y57105D01*
X772706Y57093D01*
X772746Y57094D01*
X772800Y57086D01*
X782800Y57086D01*
X782865Y57097D01*
G37*
G36*
X207705Y57097D02*
X207705Y57097D01*
X207771Y57099D01*
X207814Y57117D01*
X207861Y57125D01*
X207918Y57159D01*
X207978Y57184D01*
X208013Y57215D01*
X208054Y57240D01*
X208096Y57291D01*
X208144Y57335D01*
X208166Y57377D01*
X208195Y57414D01*
X208216Y57476D01*
X208247Y57535D01*
X208255Y57589D01*
X208267Y57626D01*
X208266Y57666D01*
X208274Y57720D01*
X208274Y63720D01*
X208263Y63785D01*
X208261Y63851D01*
X208243Y63894D01*
X208235Y63941D01*
X208201Y63998D01*
X208176Y64058D01*
X208145Y64093D01*
X208120Y64134D01*
X208069Y64176D01*
X208025Y64224D01*
X207983Y64246D01*
X207946Y64275D01*
X207884Y64296D01*
X207825Y64327D01*
X207771Y64335D01*
X207734Y64347D01*
X207694Y64346D01*
X207640Y64354D01*
X204274Y64354D01*
X204274Y69720D01*
X204263Y69785D01*
X204261Y69851D01*
X204243Y69894D01*
X204235Y69941D01*
X204201Y69998D01*
X204176Y70058D01*
X204145Y70093D01*
X204120Y70134D01*
X204069Y70176D01*
X204025Y70224D01*
X203983Y70246D01*
X203946Y70275D01*
X203884Y70296D01*
X203825Y70327D01*
X203771Y70335D01*
X203734Y70347D01*
X203694Y70346D01*
X203640Y70354D01*
X187640Y70354D01*
X187575Y70343D01*
X187509Y70341D01*
X187466Y70323D01*
X187419Y70315D01*
X187362Y70281D01*
X187302Y70256D01*
X187267Y70225D01*
X187226Y70200D01*
X187185Y70149D01*
X187136Y70105D01*
X187114Y70063D01*
X187085Y70026D01*
X187064Y69964D01*
X187033Y69905D01*
X187025Y69851D01*
X187013Y69814D01*
X187014Y69774D01*
X187006Y69720D01*
X187006Y59720D01*
X187017Y59655D01*
X187019Y59589D01*
X187037Y59546D01*
X187045Y59499D01*
X187079Y59442D01*
X187104Y59382D01*
X187135Y59347D01*
X187160Y59306D01*
X187211Y59265D01*
X187255Y59216D01*
X187297Y59194D01*
X187334Y59165D01*
X187396Y59144D01*
X187455Y59113D01*
X187509Y59105D01*
X187546Y59093D01*
X187586Y59094D01*
X187640Y59086D01*
X197006Y59086D01*
X197006Y57720D01*
X197017Y57655D01*
X197019Y57589D01*
X197037Y57546D01*
X197045Y57499D01*
X197079Y57442D01*
X197104Y57382D01*
X197135Y57347D01*
X197160Y57306D01*
X197211Y57265D01*
X197255Y57216D01*
X197297Y57194D01*
X197334Y57165D01*
X197396Y57144D01*
X197455Y57113D01*
X197509Y57105D01*
X197546Y57093D01*
X197586Y57094D01*
X197640Y57086D01*
X207640Y57086D01*
X207705Y57097D01*
G37*
G36*
X462825Y57097D02*
X462825Y57097D01*
X462891Y57099D01*
X462934Y57117D01*
X462981Y57125D01*
X463038Y57159D01*
X463098Y57184D01*
X463133Y57215D01*
X463174Y57240D01*
X463216Y57291D01*
X463264Y57335D01*
X463286Y57377D01*
X463315Y57414D01*
X463336Y57476D01*
X463367Y57535D01*
X463375Y57589D01*
X463387Y57626D01*
X463386Y57666D01*
X463394Y57720D01*
X463394Y59086D01*
X472760Y59086D01*
X472825Y59097D01*
X472891Y59099D01*
X472934Y59117D01*
X472981Y59125D01*
X473038Y59159D01*
X473098Y59184D01*
X473133Y59215D01*
X473174Y59240D01*
X473216Y59291D01*
X473264Y59335D01*
X473286Y59377D01*
X473315Y59414D01*
X473336Y59476D01*
X473367Y59535D01*
X473375Y59589D01*
X473387Y59626D01*
X473386Y59666D01*
X473394Y59720D01*
X473394Y69720D01*
X473383Y69785D01*
X473381Y69851D01*
X473363Y69894D01*
X473355Y69941D01*
X473321Y69998D01*
X473296Y70058D01*
X473265Y70093D01*
X473240Y70134D01*
X473189Y70176D01*
X473145Y70224D01*
X473103Y70246D01*
X473066Y70275D01*
X473004Y70296D01*
X472945Y70327D01*
X472891Y70335D01*
X472854Y70347D01*
X472814Y70346D01*
X472760Y70354D01*
X456760Y70354D01*
X456695Y70343D01*
X456629Y70341D01*
X456586Y70323D01*
X456539Y70315D01*
X456482Y70281D01*
X456422Y70256D01*
X456387Y70225D01*
X456346Y70200D01*
X456305Y70149D01*
X456256Y70105D01*
X456234Y70063D01*
X456205Y70026D01*
X456184Y69964D01*
X456153Y69905D01*
X456145Y69851D01*
X456133Y69814D01*
X456134Y69774D01*
X456126Y69720D01*
X456126Y64354D01*
X452760Y64354D01*
X452695Y64343D01*
X452629Y64341D01*
X452586Y64323D01*
X452539Y64315D01*
X452482Y64281D01*
X452422Y64256D01*
X452387Y64225D01*
X452346Y64200D01*
X452305Y64149D01*
X452256Y64105D01*
X452234Y64063D01*
X452205Y64026D01*
X452184Y63964D01*
X452153Y63905D01*
X452145Y63851D01*
X452133Y63814D01*
X452134Y63774D01*
X452126Y63720D01*
X452126Y57720D01*
X452137Y57655D01*
X452139Y57589D01*
X452157Y57546D01*
X452165Y57499D01*
X452199Y57442D01*
X452224Y57382D01*
X452255Y57347D01*
X452280Y57306D01*
X452331Y57265D01*
X452375Y57216D01*
X452417Y57194D01*
X452454Y57165D01*
X452516Y57144D01*
X452575Y57113D01*
X452629Y57105D01*
X452666Y57093D01*
X452706Y57094D01*
X452760Y57086D01*
X462760Y57086D01*
X462825Y57097D01*
G37*
D10*
X38100Y951230D03*
X38100Y537210D03*
X939800Y537210D03*
X939800Y951230D03*
X38100Y38354D03*
X38100Y452374D03*
X939800Y452374D03*
X939800Y38354D03*
D11*
X130810Y645160D03*
X140970Y631190D03*
X152400Y619760D03*
X304800Y631190D03*
X322580Y647700D03*
X334010Y666750D03*
X294640Y812800D03*
X314960Y795020D03*
X330200Y777240D03*
X156210Y803910D03*
X179070Y817880D03*
X111760Y732790D03*
X120650Y753110D03*
X655320Y767080D03*
X665480Y782320D03*
X655320Y671830D03*
X665480Y651510D03*
X680720Y633730D03*
X845820Y636270D03*
X861060Y661670D03*
X868680Y681990D03*
X853440Y782320D03*
X864870Y764540D03*
D12*
X457200Y938530D03*
D13*
X457200Y913130D03*
X457200Y887730D03*
X457200Y862330D03*
X457200Y836930D03*
X457200Y811530D03*
X457200Y786130D03*
X457200Y760730D03*
X457200Y735330D03*
X457200Y709930D03*
X457200Y684530D03*
X457200Y659130D03*
X457200Y633730D03*
X457200Y608330D03*
X457200Y582930D03*
X609600Y582930D03*
X609600Y608330D03*
X609600Y633730D03*
X609600Y659130D03*
X609600Y684530D03*
X609600Y709930D03*
X609600Y735330D03*
X609600Y760730D03*
X609600Y786130D03*
X609600Y811530D03*
X609600Y836930D03*
X609600Y862330D03*
X609600Y887730D03*
X609600Y913130D03*
X609600Y938530D03*
D14*
X298600Y938530D03*
X298600Y877530D03*
X412600Y938530D03*
X412600Y877530D03*
D15*
X355600Y938530D03*
X355600Y892810D03*
D16*
X908050Y900430D03*
X908050Y875030D03*
X908050Y849630D03*
X908050Y824230D03*
X908050Y798830D03*
X908050Y773430D03*
X908050Y748030D03*
X908050Y722630D03*
X889000Y568960D03*
X863600Y568960D03*
X838200Y568960D03*
X812800Y568960D03*
X787400Y568960D03*
X762000Y568960D03*
X736600Y568960D03*
X711200Y568960D03*
D17*
X69850Y900430D03*
X69850Y875030D03*
X69850Y849630D03*
X69850Y824230D03*
X69850Y798830D03*
X69850Y773430D03*
X69850Y748030D03*
X69850Y722630D03*
D18*
X427990Y813680D03*
X427990Y796680D03*
X886460Y625720D03*
X886460Y608720D03*
D19*
X228600Y715010D03*
D20*
X139700Y715010D03*
X317500Y715010D03*
D19*
X762000Y715010D03*
D20*
X673100Y715010D03*
X850900Y715010D03*
D21*
X236950Y568910D03*
X236950Y531910D03*
X116300Y568910D03*
X116300Y531910D03*
X658400Y530910D03*
X658400Y567910D03*
X313150Y568910D03*
X313150Y531910D03*
X383000Y822910D03*
X383000Y785910D03*
D22*
X651560Y865600D03*
X688560Y865600D03*
D23*
X127050Y840740D03*
X165050Y840740D03*
X809040Y847090D03*
X847040Y847090D03*
D24*
X184590Y858840D02*
X184590Y865820D01*
X191570Y865820D01*
X191570Y858840D01*
X184590Y858840D01*
X184590Y863640D02*
X191570Y863640D01*
X202130Y865820D02*
X202130Y858840D01*
X202130Y865820D02*
X209110Y865820D01*
X209110Y858840D01*
X202130Y858840D01*
X202130Y863640D02*
X209110Y863640D01*
X724340Y862010D02*
X724340Y855030D01*
X724340Y862010D02*
X731320Y862010D01*
X731320Y855030D01*
X724340Y855030D01*
X724340Y859830D02*
X731320Y859830D01*
X741880Y862010D02*
X741880Y855030D01*
X741880Y862010D02*
X748860Y862010D01*
X748860Y855030D01*
X741880Y855030D01*
X741880Y859830D02*
X748860Y859830D01*
D25*
X241690Y862330D03*
X258690Y862330D03*
X772550Y858520D03*
X789550Y858520D03*
D26*
X727700Y956680D03*
X694700Y956680D03*
X694700Y907680D03*
X727700Y907680D03*
X803900Y956680D03*
X770900Y956680D03*
X770900Y907680D03*
X803900Y907680D03*
X880100Y956680D03*
X847100Y956680D03*
X847100Y907680D03*
X880100Y907680D03*
D18*
X825500Y972430D03*
X825500Y955430D03*
X749300Y972430D03*
X749300Y955430D03*
X642620Y967350D03*
X642620Y950350D03*
D22*
X742900Y360204D03*
X705900Y360204D03*
D21*
X90900Y393904D03*
X90900Y356904D03*
D17*
X889000Y420624D03*
X863600Y420624D03*
X838200Y420624D03*
X812800Y420624D03*
X787400Y420624D03*
X762000Y420624D03*
X736600Y420624D03*
X711200Y420624D03*
D16*
X88900Y420624D03*
X114300Y420624D03*
X139700Y420624D03*
X165100Y420624D03*
X190500Y420624D03*
X215900Y420624D03*
X241300Y420624D03*
X266700Y420624D03*
D27*
X403504Y28100D03*
X422504Y28100D03*
X413004Y49100D03*
X86004Y28100D03*
X105004Y28100D03*
X95504Y49100D03*
X727354Y47150D03*
X746354Y47150D03*
X736854Y68150D03*
D18*
X387350Y72254D03*
X387350Y55254D03*
X69850Y72254D03*
X69850Y55254D03*
X697413Y58975D03*
X697413Y41975D03*
D23*
X323900Y95504D03*
X361900Y95504D03*
X38150Y89154D03*
X76150Y89154D03*
X692200Y89154D03*
X730200Y89154D03*
D18*
X584200Y65396D03*
X584200Y48396D03*
X260350Y65396D03*
X260350Y48396D03*
X901700Y48904D03*
X901700Y65904D03*
D28*
X596138Y387096D03*
X596138Y374396D03*
X596138Y361696D03*
X596138Y348996D03*
X648462Y348996D03*
X648462Y361696D03*
X648462Y374396D03*
X648462Y387096D03*
D29*
X342900Y369316D03*
X330200Y369316D03*
X317500Y369316D03*
X304800Y369316D03*
X304800Y316992D03*
X317500Y316992D03*
X330200Y316992D03*
X342900Y316992D03*
D30*
X501650Y381254D03*
D25*
X283600Y393954D03*
X300600Y393954D03*
X321446Y393700D03*
X338446Y393700D03*
X395850Y342646D03*
X378850Y342646D03*
X395850Y368046D03*
X378850Y368046D03*
D18*
X342900Y281804D03*
X342900Y264804D03*
X269240Y334654D03*
X269240Y351654D03*
D25*
X395850Y317246D03*
X378850Y317246D03*
D18*
X304800Y264804D03*
X304800Y281804D03*
D25*
X630800Y406146D03*
X613800Y406146D03*
D18*
X240030Y334654D03*
X240030Y351654D03*
X679450Y379104D03*
X679450Y396104D03*
D22*
X889050Y370554D03*
X926050Y370554D03*
D25*
X573650Y19304D03*
X556650Y19304D03*
X249800Y19304D03*
X232800Y19304D03*
X690000Y18796D03*
X707000Y18796D03*
D31*
X124700Y968450D03*
X154700Y968450D03*
X154700Y898450D03*
X124079Y898322D03*
X200900Y968450D03*
X230900Y968450D03*
X230900Y898450D03*
X200279Y898322D03*
D32*
X457760Y30720D03*
X457760Y60720D03*
X527760Y60720D03*
X527888Y30099D03*
X132640Y30720D03*
X132640Y60720D03*
X202640Y60720D03*
X202768Y30099D03*
X777800Y30720D03*
X777800Y60720D03*
X847800Y60720D03*
X847928Y30099D03*
D24*
X562290Y44890D02*
X555310Y44890D01*
X555310Y51870D01*
X562290Y51870D01*
X562290Y44890D01*
X562290Y49690D02*
X555310Y49690D01*
X555310Y62430D02*
X562290Y62430D01*
X555310Y62430D02*
X555310Y69410D01*
X562290Y69410D01*
X562290Y62430D01*
X562290Y67230D02*
X555310Y67230D01*
X238440Y44890D02*
X231460Y44890D01*
X231460Y51870D01*
X238440Y51870D01*
X238440Y44890D01*
X238440Y49690D02*
X231460Y49690D01*
X231460Y62430D02*
X238440Y62430D01*
X231460Y62430D02*
X231460Y69410D01*
X238440Y69410D01*
X238440Y62430D01*
X238440Y67230D02*
X231460Y67230D01*
X872810Y44890D02*
X879790Y44890D01*
X872810Y44890D02*
X872810Y51870D01*
X879790Y51870D01*
X879790Y44890D01*
X879790Y49690D02*
X872810Y49690D01*
X872810Y62430D02*
X879790Y62430D01*
X872810Y62430D02*
X872810Y69410D01*
X879790Y69410D01*
X879790Y62430D01*
X879790Y67230D02*
X872810Y67230D01*
D23*
X457250Y533400D03*
X495250Y533400D03*
D33*
X400050Y546622D03*
D34*
X377952Y614426D03*
X422656Y614426D03*
D33*
X393700Y686322D03*
D34*
X371602Y754126D03*
X416306Y754126D03*
D33*
X933450Y659878D03*
D34*
X955548Y592074D03*
X910844Y592074D03*
D18*
X438150Y675250D03*
X438150Y658250D03*
D27*
X337820Y632030D03*
X347320Y611030D03*
X328320Y611030D03*
X657860Y626950D03*
X667360Y605950D03*
X648360Y605950D03*
X488950Y906350D03*
X498450Y885350D03*
X479450Y885350D03*
D25*
X416950Y901700D03*
X433950Y901700D03*
X480450Y869950D03*
X497450Y869950D03*
D35*
X927100Y704850D03*
X400050Y608490D03*
X260350Y920750D03*
X257175Y879475D03*
M02*
