G04 EAGLE Gerber RS-274X export*
G75*
%MOMM*%
%FSLAX34Y34*%
%LPD*%
%INSoldermask Bottom*%
%IPNEG*%
%AMOC8*
5,1,8,0,0,1.08239X$1,22.5*%
G01*
%ADD10C,3.251200*%
%ADD11C,0.853200*%
%ADD12R,1.511200X1.511200*%
%ADD13C,1.511200*%
%ADD14C,2.235200*%
%ADD15C,2.082800*%
%ADD16C,1.908300*%
%ADD17C,4.013200*%
%ADD18R,4.013200X4.013200*%
%ADD19C,6.807200*%
%ADD20C,2.743200*%
%ADD21C,1.962694*%
%ADD22R,2.489200X0.812800*%
%ADD23C,4.267200*%
%ADD24C,1.478200*%


D10*
X38100Y951230D03*
X38100Y537210D03*
X939800Y537210D03*
X939800Y951230D03*
X38100Y38354D03*
X38100Y452374D03*
X939800Y452374D03*
X939800Y38354D03*
D11*
X130810Y645160D03*
X140970Y631190D03*
X152400Y619760D03*
X304800Y631190D03*
X322580Y647700D03*
X334010Y666750D03*
X294640Y812800D03*
X314960Y795020D03*
X330200Y777240D03*
X156210Y803910D03*
X179070Y817880D03*
X111760Y732790D03*
X120650Y753110D03*
X655320Y767080D03*
X665480Y782320D03*
X655320Y671830D03*
X665480Y651510D03*
X680720Y633730D03*
X845820Y636270D03*
X861060Y661670D03*
X868680Y681990D03*
X853440Y782320D03*
X864870Y764540D03*
D12*
X457200Y938530D03*
D13*
X457200Y913130D03*
X457200Y887730D03*
X457200Y862330D03*
X457200Y836930D03*
X457200Y811530D03*
X457200Y786130D03*
X457200Y760730D03*
X457200Y735330D03*
X457200Y709930D03*
X457200Y684530D03*
X457200Y659130D03*
X457200Y633730D03*
X457200Y608330D03*
X457200Y582930D03*
X609600Y582930D03*
X609600Y608330D03*
X609600Y633730D03*
X609600Y659130D03*
X609600Y684530D03*
X609600Y709930D03*
X609600Y735330D03*
X609600Y760730D03*
X609600Y786130D03*
X609600Y811530D03*
X609600Y836930D03*
X609600Y862330D03*
X609600Y887730D03*
X609600Y913130D03*
X609600Y938530D03*
D14*
X355600Y938530D03*
X355600Y892810D03*
D15*
X908050Y900430D03*
X908050Y875030D03*
X908050Y849630D03*
X908050Y824230D03*
X908050Y798830D03*
X908050Y773430D03*
X908050Y748030D03*
X908050Y722630D03*
X889000Y568960D03*
X863600Y568960D03*
X838200Y568960D03*
X812800Y568960D03*
X787400Y568960D03*
X762000Y568960D03*
X736600Y568960D03*
X711200Y568960D03*
D16*
X69850Y900430D03*
X69850Y875030D03*
X69850Y849630D03*
X69850Y824230D03*
X69850Y798830D03*
X69850Y773430D03*
X69850Y748030D03*
X69850Y722630D03*
D17*
X139700Y715010D03*
D18*
X317500Y715010D03*
D19*
X228600Y715010D03*
D20*
X139700Y715010D03*
X317500Y715010D03*
D17*
X673100Y715010D03*
D18*
X850900Y715010D03*
D19*
X762000Y715010D03*
D20*
X673100Y715010D03*
X850900Y715010D03*
D16*
X889000Y420624D03*
X863600Y420624D03*
X838200Y420624D03*
X812800Y420624D03*
X787400Y420624D03*
X762000Y420624D03*
X736600Y420624D03*
X711200Y420624D03*
D15*
X88900Y420624D03*
X114300Y420624D03*
X139700Y420624D03*
X165100Y420624D03*
X190500Y420624D03*
X215900Y420624D03*
X241300Y420624D03*
X266700Y420624D03*
D21*
X417993Y251807D02*
X417993Y167801D01*
X400587Y167801D01*
X400587Y251807D01*
X417993Y251807D01*
X417993Y186447D02*
X400587Y186447D01*
X400587Y205093D02*
X417993Y205093D01*
X417993Y223739D02*
X400587Y223739D01*
X400587Y242385D02*
X417993Y242385D01*
X576313Y251807D02*
X576313Y167801D01*
X558907Y167801D01*
X558907Y251807D01*
X576313Y251807D01*
X576313Y186447D02*
X558907Y186447D01*
X558907Y205093D02*
X576313Y205093D01*
X576313Y223739D02*
X558907Y223739D01*
X558907Y242385D02*
X576313Y242385D01*
X94143Y251807D02*
X94143Y167801D01*
X76737Y167801D01*
X76737Y251807D01*
X94143Y251807D01*
X94143Y186447D02*
X76737Y186447D01*
X76737Y205093D02*
X94143Y205093D01*
X94143Y223739D02*
X76737Y223739D01*
X76737Y242385D02*
X94143Y242385D01*
X252463Y251807D02*
X252463Y167801D01*
X235057Y167801D01*
X235057Y251807D01*
X252463Y251807D01*
X252463Y186447D02*
X235057Y186447D01*
X235057Y205093D02*
X252463Y205093D01*
X252463Y223739D02*
X235057Y223739D01*
X235057Y242385D02*
X252463Y242385D01*
X741843Y251807D02*
X741843Y167801D01*
X724437Y167801D01*
X724437Y251807D01*
X741843Y251807D01*
X741843Y186447D02*
X724437Y186447D01*
X724437Y205093D02*
X741843Y205093D01*
X741843Y223739D02*
X724437Y223739D01*
X724437Y242385D02*
X741843Y242385D01*
X900163Y251807D02*
X900163Y167801D01*
X882757Y167801D01*
X882757Y251807D01*
X900163Y251807D01*
X900163Y186447D02*
X882757Y186447D01*
X882757Y205093D02*
X900163Y205093D01*
X900163Y223739D02*
X882757Y223739D01*
X882757Y242385D02*
X900163Y242385D01*
D22*
X457200Y368554D03*
X457200Y381254D03*
X457200Y393954D03*
X546100Y393954D03*
X546100Y381254D03*
X546100Y368554D03*
D23*
X501650Y381254D03*
D24*
X927100Y704850D03*
X400050Y608490D03*
X260350Y920750D03*
X257175Y879475D03*
M02*
