<?xml version="1.0" encoding="UTF-8"?>
<svg id="Calque_1" data-name="Calque 1" xmlns="http://www.w3.org/2000/svg" version="1.1" viewBox="0 0 456.8 292.5">
  <defs>
    <style>
      .cls-1 {
        fill: #000;
        stroke-width: 0px;
      }
    </style>
  </defs>
  <g id="Groupe_318" data-name="Groupe 318">
    <g id="Groupe_315" data-name="Groupe 315">
      <g id="Groupe_1" data-name="Groupe 1">
        <g id="LOGO-LA-BOITE-A-SEL">
          <path id="Tracé_1" data-name="Tracé 1" class="cls-1" d="M456.2,101h-251.1l-16-44h-12.9l-24.7,68h17.5l3.3-10.1h21l3.2,10.1h17.5l-4.3-11.8h246.7v-12.2ZM177,101l6.1-18.2,5.7,18.2h-11.9Z"/>
          <path id="Tracé_2" data-name="Tracé 2" class="cls-1" d="M296.1,196.8c3.1-1.4,6-3.3,8.4-5.7,2-2,3.5-4.3,4.6-6.9,1-2.5,1.6-5.2,1.9-7.9.3-2.7.4-6,.4-9.8v-4.6c0-3.8-.1-7.1-.4-9.8-.3-2.7-.9-5.4-1.9-8-1-2.6-2.6-5-4.6-6.9-2.4-2.4-5.2-4.4-8.4-5.7-6.9-2.5-14.4-2.5-21.3,0-3.1,1.3-6,3.3-8.4,5.7-2.9,2.8-4.8,6.3-5.7,10.2-.9,4.8-1.3,9.6-1.2,14.5v4.6c0,4.9.3,9.7,1.2,14.5.8,3.9,2.8,7.4,5.6,10.1,1.6,1.6,3.4,3.1,5.3,4.3,1.9,1.1,4,2,6.2,2.6,2.4.6,5,.9,7.5.9,3.7,0,7.3-.6,10.7-2ZM278.7,180.8c-.6-.8-1.1-1.7-1.4-2.6-.5-1.6-.7-3.2-.8-4.8-.2-2.2-.3-5.2-.3-9.2s0-7.1.3-9.3c0-1.6.4-3.2.8-4.8.3-.9.8-1.8,1.4-2.6.8-.9,1.7-1.7,2.8-2.2,1.2-.6,2.5-.8,3.9-.8,1.4,0,2.7.3,4,.8,1.1.5,2,1.2,2.7,2.2,1,1.4,1.6,3.1,1.9,4.8.5,3.9.7,7.9.6,11.9.1,3.9,0,7.8-.6,11.7-.3,1.7-.9,3.4-1.9,4.9-3.2,3.7-8.8,4.1-12.5,1-.3-.3-.6-.6-.9-.9h0Z"/>
          <path id="Tracé_3" data-name="Tracé 3" class="cls-1" d="M276.5,173.4l-.3-9.2c0,4,0,7.1.3,9.2Z"/>
          <rect id="Rectangle_2" data-name="Rectangle 2" class="cls-1" x="323.4" y="142.5" width="16.7" height="55.7"/>
          <path id="Tracé_4" data-name="Tracé 4" class="cls-1" d="M325.7,123l-12,15.8h10.6l7-7.3,7,7.3h10.6l-12-15.8h-11.1Z"/>
          <path id="Tracé_5" data-name="Tracé 5" class="cls-1" d="M350.6,145h16.8v53.2h16.7v-53.2h16.8v-14.9h-50.2v14.9Z"/>
          <path id="Tracé_6" data-name="Tracé 6" class="cls-1" d="M456.8,145v-14.9h-46.3v68.1h46.3v-14.9h-29.5v-12h25.3v-14.9h-25.3v-11.4h29.5Z"/>
          <path id="Tracé_7" data-name="Tracé 7" class="cls-1" d="M349.9,289.6h46.3v-14.9h-29.5v-12h25.3v-14.9h-25.3v-11.4h29.5v-14.9h-46.3v68.1Z"/>
          <path id="Tracé_8" data-name="Tracé 8" class="cls-1" d="M427.9,221.6h-16.7v68.1h45.3v-14.9h-28.6v-53.2Z"/>
          <path id="Tracé_9" data-name="Tracé 9" class="cls-1" d="M330.7,253.9c-3.8-3.2-8.4-5.2-13.4-5.6l-8.2-1.1c-1.7-.1-3.4-.8-4.7-2-.9-.8-1.4-2-1.4-3.2,0-1.7.8-3.3,2.1-4.4,1.7-1.4,3.9-2.1,6.1-1.9,2.4,0,4.9.2,7.3.7,2.2.5,4.1,1.7,5.7,3.3l10.5-10.5c-2.7-2.8-6.1-4.9-9.8-6.2-4.2-1.4-8.7-2-13.1-1.9-4.5-.1-9.1.8-13.2,2.7-3.6,1.7-6.5,4.3-8.6,7.6-2,3.3-3.1,7.2-3,11.1-.3,5,1.4,9.9,4.7,13.7,3.7,3.5,8.6,5.6,13.7,6l8.2,1.2c1.7,0,3.2.7,4.5,1.8,1,1.1,1.4,2.5,1.4,4,0,4.1-3.3,6.1-9.8,6.1-2.9,0-5.8-.4-8.5-1.1-2.5-.6-4.8-1.9-6.6-3.7l-10.7,10.7c3.1,3.2,6.9,5.6,11.1,6.9,4.8,1.4,9.7,2.1,14.7,2,4.5,0,9-.8,13.2-2.5,3.8-1.5,7.1-4.1,9.5-7.3,2.4-3.4,3.6-7.4,3.5-11.6,0-2.9-.3-5.9-1.2-8.7-.8-2.3-2.1-4.5-3.9-6.2h0Z"/>
          <path id="Tracé_10" data-name="Tracé 10" class="cls-1" d="M103.1,82.6c-.2,1.7-.1,3.4.2,5v-7.3c0,.8-.2,1.5-.2,2.3Z"/>
          <path id="Tracé_11" data-name="Tracé 11" class="cls-1" d="M103.3,71c.2.6.4,1.3.5,2,0-.7-.2-1.3-.5-2Z"/>
          <path id="Tracé_12" data-name="Tracé 12" class="cls-1" d="M103.3,71c.2.6.4,1.3.5,2,0-.7-.2-1.3-.5-2Z"/>
          <path id="Tracé_13" data-name="Tracé 13" class="cls-1" d="M102,57.4h0c0,0,0,0,0,0h0Z"/>
          <path id="Tracé_14" data-name="Tracé 14" class="cls-1" d="M102.4,57.9h0s0,0,0,0h0Z"/>
          <path id="Tracé_15" data-name="Tracé 15" class="cls-1" d="M102.9,58.5h0s0,0,0,0Z"/>
          <path id="Tracé_16" data-name="Tracé 16" class="cls-1" d="M103.3,59.2"/>
          <path id="Tracé_17" data-name="Tracé 17" class="cls-1" d="M103.8,73.1h0c0,0,0,0,0,0h0Z"/>
          <path id="Tracé_18" data-name="Tracé 18" class="cls-1" d="M103.8,74.2"/>
          <path id="Tracé_19" data-name="Tracé 19" class="cls-1" d="M103.8,74.1h0c0,0,0,0,0,0Z"/>
          <path id="Tracé_20" data-name="Tracé 20" class="cls-1" d="M138.9,276.7l-.9.6h1.5c0-.3-.2-.6-.5-.6Z"/>
          <path id="Tracé_21" data-name="Tracé 21" class="cls-1" d="M122.5,287.9l-6,2c2-.5,4-1.2,6-2Z"/>
          <path id="Tracé_22" data-name="Tracé 22" class="cls-1" d="M237.7,221.7h-12.9l-20.2,55.7h-63.1c0-.5-.2-1-.3-1.4-.7-1.7-1.2-3.5-1.6-5.4,0-.2-.1-.4-.2-.6-.4-1.4-1-2.7-1.8-3.9-.6-.8-.9-1.8-.9-2.8,0-.3,0-.5,0-.8-.1-2.3-1.4-4.4-3.4-5.5-.3-.1-.4-.4-.5-.6-.6-2.3-1.1-4.7-1.4-7.1-.1-1.4-.4-2.9-.8-4.2-.6-1.8-1.1-3.6-1.7-5.4-.8-2.4-1.6-4.9-2.5-7.3-1.2-3.3-2.6-6.4-4-9.5-1-2.3-2.2-4.5-3.5-6.6-.8-1.2-1.7-2.4-2.6-3.6-.5-.6-.5-.6,0-1.2,0,0,0,0,0-.1-.5-1.3-1.6-2.3-2.9-2.8-.4-.1-.7-.5-.7-.9-.2-.5-.4-1-.6-1.4-.4-.6-.8-1.1-1.3-1.6-.3-.3-.4-.7-.4-1.1,0-.2,0-.5,0-.7.1-.6,0-1.1-.3-1.6-.3-.5-.4-1.1-.4-1.7,0-.4,0-.9,0-1.3h106.7l11,16.9h9.5l-4.6-16.9c2.2-.2,4.3-.6,6.4-1.3,2.5-.8,4.8-2.1,6.8-3.9,1.9-1.7,3.4-3.9,4.4-6.3,1.1-2.7,1.6-5.6,1.6-8.5.2-3.4-.7-6.7-2.5-9.5-1.6-2.1-3.6-3.9-5.9-5.3,2-1.4,3.7-3.1,5-5.1,1.7-2.5,2.5-5.4,2.4-8.4,0-3.6-.8-7.2-2.5-10.3-1.7-3-4.3-5.4-7.4-6.9-3.7-1.7-7.7-2.6-11.8-2.5h-28.2v55.8h-93.1c.3-5.1.2-10.3-.1-15.4.5-.4,1-.9,1.5-1.3.3-.3.5-.7.3-1.1-.3-1.4-.7-2.8-1-4.3-.3-1.1-.1-2.3.4-3.4.5-.8.8-1.7.9-2.7,0-.2,0-.4.2-.6.4-1,.8-1.9,1.3-2.9.7-1.1,1-2.5.8-3.8,0-.5,0-1,.2-1.5.8-1.8,1.1-3.8.9-5.7-.2-1.2-.1-2.4.1-3.5.4-1.3.2-2.6-.6-3.7h0c-.7-.9-1-2.1-.9-3.2,0-.8-.2-1.6-.7-2.3-.2-.2-.3-.4-.4-.6-.5-1.1-.8-2.3-.8-3.6,0-.5-.2-1,0-1.4h38.9v-14.8h-28.5v-53.2h-13.6c-.2-.4-.5-.8-.8-1.2-1-1.3-2.3-2.5-3.7-3.4-2.3-1.4-4.5-2.9-6.8-4.3h163.6v-12.2H100c0-.1.1-.3.2-.4.3-.8.4-1.7.3-2.6-.1-.8-.2-1.6-.2-2.4,0-.3,0-.6.2-.8.8-1.6,1.5-3.2,2.4-4.8,1.3-2.4,1.7-5.1,1.2-7.7-.3-1.6-1-3.2-1.9-4.7-.5-1-.9-2-1.3-3,0-.2-.1-.3-.1-.5.6-.4.6-.6.4-1.2,0-.2-.1-.3-.2-.5-.6-1.1-1.5-2.1-2.7-2.6-1-.4-1.9-1-2.7-1.8-.1-.1-.3-.2-.4-.3-1-.5-1.9-1.1-2.7-1.8-.3-.3-.7-.4-1.2-.5-1.4-.2-2.7-.3-4.1-.2-1.2,0-2.3.3-3.3.8-1.4.6-2.7,1.4-3.9,2.4-.5.4-1,.7-1.6.9-2.1.6-4.2,1.2-6.3,1.9-1.2.4-2.4.8-3.5,1.4-2.5,1.4-4.9,3-7,5-.3.2-.5.6-.7.9-.8,1.8-1.7,3.7-2.5,5.5-.1.3-.2.6-.3.9-.2,1.8-.4,3.5-.6,5.3,0,.5-.2.9-.6,1.2-.6-.3-1.1-.4-1.6-.8-.4-.3-.8-.6-1.2-.9-.5-.4-1-.9-1.5-1.3-.4-.4-.9-.7-1.5-.8-2.8-.6-5.3-2-7.4-4-.4-.3-.7-.6-1.1-.9-.4-.3-.8-.4-1.3-.3-.7,0-1.4,0-2.2,0-1.3-.1-2.6-.6-3.6-1.4-1-.5-2.2-.8-3.3-.9,0,0-.1,0-.2,0-1.3.2-2.5.2-3.8-.1-.3,0-.5,0-.8,0-.9,0-1.8.2-2.7.3-.4,0-.8,0-1.2.2-2.1.6-4.1,1.5-5.8,2.9-.5.4-1,.9-1.4,1.5-.3.5-.6,1-.9,1.5-.6.9-.6,2.1,0,3,.4.6.8,1.3,1.1,1.9.3.5.6,1.1,1,1.6.5.6.9,1.3,1.3,2,1.5,2.7,3.2,5.3,5.1,7.6,1.4,1.7,3.3,2.9,5.4,3.3,1.4.3,2.6,1,3.6,2,.5.5,1.1,1.1,1.6,1.5,1.4,1.1,2.9,2.1,4.5,3,1.4.7,2.5,1.9,3.1,3.4.4,1.1,1,2.1,1.7,3,1.5,1.9,3.1,3.9,4.5,5.9.7,1,1.4,2.1,2,3.2.4.6.4,1.3,0,1.8-.2.3-.4.6-.6.9-.7,1-1,2.2-1,3.4,0,.5,0,1,0,1.4,0,.7,0,1.4,0,2.2-.2,1.3-.6,2.5-1.1,3.7-.3.6-.4,1.3-.4,2,0,.9,0,1.7.2,2.6.2,1.2.1,2.4-.1,3.6-.3,1.1-.4,2.3-.2,3.5,0,.5.1,1,.1,1.6.1.9-.2,1.9-.8,2.6-.5.5-.8,1.1-.8,1.8-.3,1.5,0,3.1.6,4.5.6,1.2,1.3,2.4,2,3.6.4.6.7,1.2,1,1.8.8,2.3,2,4.3,3.5,6.2.8,1,1.4,2.1,1.8,3.4,0,.3.2.5.3.8.7,1.7.9,3.5.7,5.4,0,.8-.2,1.6-.2,2.4,0,.5,0,1.1.3,1.5.3.4.6.8.9,1.2.2.3.3.6.3.9,0,.5,0,1,.1,1.5,0,.6.4,1.1.8,1.3.8.4,1.4.9,1.9,1.6,0,.1.2.2.4.3,0,.1,0,.2,0,.3-.8,1.8-1.5,3.6-2.3,5.4-1.3,2.8-2.7,5.5-4,8.2-1.3,2.7-2.8,5.3-4.5,7.8-.4.5-.4,1.2-.2,1.7,0,.2.1.3.2.5.2.4.2.9,0,1.3-.5,1.1-1,2.2-1.4,3.4-.9,2.7-1.8,5.3-2.6,8-1.1,3.9-2.3,7.7-3.3,11.6-.7,2.6-1.1,5.3-1.7,8,0,.4-.3.7-.6.9-.7.4-1.3,1-1.6,1.7-.5,1.2-1,2.3-1.4,3.5-.7,2.2-1.1,4.5-1.4,6.8-.2,1-.2,2.1.2,3.1.4.8.7,1.7,1.1,2.5.2.3.2.7,0,1-.7.9-1,2.2-.6,3.3.3,1.1.3,2.1.1,3.2,0,.3,0,.5,0,.8.2,1.1.5,2.1.8,3.1,0,.3,0,.6,0,.9-.4,1.6-.8,3.3-1.1,4.9-.5,3.2-.8,6.3-1.2,9.5-.4,3.2-.6,6.5-.6,9.8v13.6c0,1.2,0,2.4,0,3.7,0,.2,0,.4,0,.6l-1,.5c-.5-.5-1.1-.8-1.7-.9-.7,0-1.2.4-1.7.8-.7.4-.5,1.2-.4,1.9-1.1.2-2,.8-2.6,1.7-.4.5-.8.9-1.2,1.3-.9.8-1.6,1.9-2,3-.2.5-.2,1.2,0,1.7.1.3.3.6.4.9-.2.1-.4.2-.6.3-.6.3-1.3.7-1.8,1.1-.5.4-1,.7-1.7.9-.5,0-1,.4-1.3.8,0,.1-.2.2-.3.2-.9.3-1.7.5-2.6.7-.6.1-1,.2-1.2.7-.4,0-.7,0-1,0-.1,0-.2,0-.3,0-.3-.1-.7-.2-1-.2-1.8.2-3.6.6-5.3,1.1-.5.1-.9.3-1.4.4s-1.1.3-1.6.5c-1.3.4-2.3,1.3-2.9,2.5-.3.6-.5,1.2-.6,1.8-.2.5,0,1,.4,1.3,2.6,2.5,5.7,4.4,9.1,5.5,2.1.6,4.3.9,6.4,1.3,1.3.3,2.6.3,3.9,0,1.7-.4,3.4-.8,5.1-1.3,1.1-.3,2.2-.4,3.3-.4h.2c.1,0,.3,0,.4,0l7.8,1.2c2.7.6,5.6,0,8-1.4,0-.3.1-.6.2-1,.4-2.4.7-4.8.9-7.3.2-2.2.1-4.3-.2-6.5,0-.3,0-.6,0-.8.2-.8.5-1.5.8-2.3.4-1,.5-2.2.3-3.3-.1-.5-.1-1,0-1.5,0-.4.2-.9.3-1.3,1.2-4.3,2.6-8.5,4.3-12.6,1-2.4,1.8-4.8,2.6-7.2,1-2.7,1.8-5.5,2.7-8.3.5-1.5,1-3,1.4-4.5.4-1.8.7-3.7,1-5.5.5-2.2.4-4.5-.3-6.7-.2-.7-.4-1.5-.6-2.3.8-.5.8-1.5.8-2.3,0-.5,0-1.1.1-1.6,0-.3.1-.7.3-1,.5-.8,1-1.6,1.5-2.4.5-.8.7-1.7.6-2.7-.2-.8,0-1.7.5-2.4.7-1.1,1-2.5.8-3.9-.2-1-.3-2-.3-3.1,0-.9.3-1.8.9-2.4,2.7-3.5,5.1-7.1,7.3-10.9,1.3-2.2,2.5-4.3,3.8-6.5.1-.2.2-.5.5-.6q.6.9,1.6.8h1c0,.4.2.7.3,1.1.7,3.2,1.6,6.3,2.5,9.5,1,3.4,2,6.9,2.9,10.3.2.8.4,1.6.4,2.5,0,1.4,0,2.9,0,4.3,0,.5,0,.9.2,1.3.6,1.1,1,2.4,1,3.7,0,1.4.6,2.7,1.7,3.7,1,.9,1.8,2.1,2.1,3.4.2.7.6,1.4,1.2,1.8,1.3,1.2,2.6,2.5,3.7,3.8,1,1.2,2.3,2.2,3.8,2.8.8.3,1.5.9,1.9,1.7,1.6,3,3.3,5.9,5,8.8,2.4,4.1,5,8.2,7.6,12.1,1.8,2.7,3.5,5.4,5.3,8.1.2.4.5.8.7,1.2.2.3.5.6.7.9l-.4.6c-.8,0-1.5.2-2.2.5-.8.4-1.2,1.4-.8,2.2.1.2.3.4.4.6.2.2.4.3.6.5l.5.5c0,0,0,.2-.1.3-1.2,1.3-1.9,3-2.2,4.7-.1.3-.3.7-.5.9-.3.3-.4.7-.3,1.1.1.4,0,.8-.4,1-.2.1-.4.2-.6.3-.8,0-1.5.5-1.8,1.2,0,.2-.3.4-.5.5-.6.2-1.1.7-1.4,1.4-.1.3-.4.6-.6.8-.5.4-1.2.8-1.8,1-.9.2-1.8.5-2.7.6-.9.1-1.7.5-2.3,1.1-.8.7-1.6,1.2-2.6,1.6-.6.3-1.1.7-1.4,1.3-.9,1.5-1.4,3.2-1.5,4.9-.1.9.4,1.7,1.2,2.1.8.4,1.5.8,2.3,1.1,3.1,1.3,6.3,2.3,9.6,3,1.5.4,3,.6,4.6.5,1.1-.1,2.1-.2,3.2-.4,2.5-.4,4.9-1.2,7.1-2.4h.2c0,0,93.8,0,93.8,0l3.3-10.1h20.9l3.2,10.1h17.5l-24.7-67.9ZM217.3,145.2h10.4c1.7-.2,3.4.4,4.6,1.6.9,1.1,1.5,2.5,1.4,3.9,0,1.4-.5,2.8-1.5,3.9-1.2,1.2-2.9,1.8-4.6,1.6h-10.4v-11.1ZM217.3,171.3h11.3c1.7-.2,3.5.5,4.7,1.7,1,1.2,1.5,2.7,1.4,4.2,0,1.5-.5,3-1.5,4.2-1.2,1.3-2.9,1.9-4.6,1.8h-11.3v-11.9ZM60.1,27.4c0-.4.2-.9.4-1.3.2-.8.4-1.6.4-2.5,0-2.3.9-4.6,2.2-6.5.5-.8,1-1.6,1.6-2.4.8-1.2,1.9-2.2,3.1-2.9,2.5-1.5,5.2-2.6,8-3.2.6-.1,1.3-.4,1.9-.5.9-.2,1.7-.6,2.4-1.1,1.7-1.2,3.6-2.1,5.7-2.6.5-.1,1-.1,1.5-.2.4,0,.8-.1,1.1-.2.3-.1.6-.2,1-.1,1.8.2,3.4,1.2,4.4,2.7.7,1,1.4,1.9,2,3,.2.4.6.5.9.4.5,0,1-.1,1.5-.1.3.7.4,1.5.5,2.3,0,1.7.3,3.4,1,4.9.5,1.2.7,2.5.5,3.7,0,.8-.1,1.5-.2,2.3,0,.4-.1.7-.2,1.1-.7,1.8-1.7,3.6-3,5-.5.5-.7,1.1-.7,1.8,0,1.3,0,2.6-.1,3.8-.2,2.1-.9,4.1-2,5.9-.6,1-1.2,2-1.8,3-.2-.1-.5-.3-.7-.5-.2-.1-.4-.3-.5-.5-.7-.9-1.4-1.8-2.1-2.6-.8-1-1.8-1.7-3-2.2l-3-1.2c-1.4-.6-2.7-1.6-3.7-2.8-.6-.7-1.1-1.5-1.7-2.3l-.3-.4c-.4,1.1-.3,2.4.1,3.4.4.8,1,1.5,1.7,2,1,.7,2,1.4,3.1,2.1,1.5.8,3,1.9,4.3,3,.4.4.8.8,1.1,1.3-.2.4-.4.2-.6.2-2.3-.6-4.5-1.5-6.6-2.7-1.5-.8-2.8-1.8-4.2-2.8-2.7-2.2-5.7-4-8.8-5.3-.7-.3-1.4-.5-2.2-.7-.4-.1-.8-.2-1.2-.1-1.4.2-2.8,0-4-.8-.2-1.1-.1-2.3.1-3.4ZM24.4,267c1.2-1.3,2.3-2.6,3.5-3.8,1-1.1.8-.9,1.9-.4.1,0,.2.1.3.2-.2.2-.4.3-.6.5l-1.8,1.3c0,0-.1,0-.2.1-.6.9-1.1,1.9-1.4,3,0,0,0,.1,0,.2.1,0,.3,0,.4,0,1.1-.4,2-1.3,2.5-2.4.2-.3.3-.7.6-1,.4.7.2,1.6-.3,2.2-1,1.3-2.4,2.3-4,2.9-.2,0-.4,0-.6.1-.1-.4-.4-.8-.2-1.2,0,0,0-.2-.1-.3-.2-.4-.2-.9.1-1.2h0ZM31,268.9h-.1c0,.1-1.7-.9-1.7-.9.3-.6.5-1,.8-1.6.6.7,1,1.5,1,2.4h0ZM12.9,277c0-.4.3-.8.7-.8,0,0,0,0,.1,0h1.1c.5,0,1,0,1.3-.5.1-.1.3-.2.4-.2,1-.1,1.9-.4,2.8-.9.2-.1-.3-.4,0-.5.1,0,.3-.2.4-.1.8.1.9,0,1.1-.7.8.3,1.3.1,2.2-.9,0-.2-.2-.3-.3-.5,0,0,.1-.2.2-.2.5-.2,1-.2,1.4.1.4.3.8.3,1.2,0,.5-.3,1.2-.2,1.5.3.1,0,.2.2.3.2.2,0,.3-.3.6,0,.4.4.9.6,1.4,1,.4-.2.7-.5.9-.8.1-.1.1-.3,0-.5,0-.1-.2-.3-.3-.4-.7-.5-1.5-1.1-2.2-1.6-.1,0-.3-.2-.4-.3.6-.6,1-.7,1.6-.2.4.3.8.6,1.2.8.2.2.4.4.6.6l-.5.3c0,.2,0,.3.1.6h0c.4-.1.8-.4,1-.8.3-.4.6-.8.9-1.1,0,1,.2,2,.3,3l2.5,1.8c.5-2.2,0-4.5-1.3-6.3-.1-.2-.4-.5-.6-.6-.4-.3-.7-.7-.8-1.2,0-.7-.4-1.4-.9-1.9.8-.2,1.4-.3,2.1-.4.2,0,.4,0,.6.1,1.3.5,2.5,1.3,3.4,2.4-.5-.3-.9-.4-1.2-.6-.9-.5-2-.6-3-.3,0,.3,0,.6.3.8,0,0,0,0,.1,0,1.1.8,2,1.9,2.3,3.3.3.8.6,1.7.9,2.6.2.5.2,1-.1,1.4-.2.3-.3.5-.4.8-.2.4-.5.7-.9.9-.4.2-.8.5-1.1.8-.1.2-.2.4-.2.6,0,.7,0,1.4,0,2.2,0,.4-.1.8-.2,1.2-.6-.5-.9-1.3-.9-2.1,0-.7-.2-1.4-.5-2-.2-.6-.6-1.2-1.1-1.6,0,0-.1-.1-.1-.2-.2-.5-.7-.9-1.2-.9,0,.5-.1.9-.2,1.4,0,.2-.1.3-.2.4-.2.2-.4.4-.6.5-1-.5-1.8-1.4-2.9-1.9,0,.5.1,1.1.4,1.5.2.4.4.9.6,1.3-1.3.4-1.9-.1-2.7-1.8l-1,.4c.2.7.6,1.4,0,2.2-.5.1-1,0-1.3-.4-.2-.2-.4-.3-.6-.5-.2-.3-.6-.4-.9-.2,0,0,0,0,0,0-.2.4,0,.7.2,1,.2.5.2,1.1,0,1.5-.8-.4-1.5-1.1-2-1.9-.4.1-.9.2-1.3.3,0,0-.2,0-.3.1.3.6.5,1.1.8,1.7-.2.4-.7.4-1.1.5v.3c-.4.1-1-.6-1.9-2.1h-.4c0,0-.5.2-.5.2v2.1c-.3-.1-.6-.3-.9-.5-.3-.4-.5-.8-.6-1.2,0-.6-.1-1.2,0-1.8h0ZM41.6,286.4c-1.2.3-2.5.4-3.8.4-2.3,0-4.5-.3-6.7-.6-.9-.1-1.7-.2-2.6-.2-1,0-2,0-2.9.2-1.9.3-3.9.6-5.8.8-2.5.3-5.1,0-7.5-.8-1.6-.4-3.1-1-4.5-1.8l-.4-.2c-1-.5-1.9-1-2.9-1.6-.8-.5-1.5-1-2.2-1.6,0-.2.2-.4.2-.5-.2-.9.4-1.4.8-2.1,0-.2.3-.3.4-.3.6,0,1.1-.1,1.5-.5.2,0,.4-.2.6-.2.2,0,.4,0,.6,0,1,0,2-.2,3-.3.5.9.8,1.9.9,3,0,.6,0,1.3-.3,1.9-.1.6-.3.7-.9.7-.4,0-.9,0-1.3,0-.4,0-.8-.1-1.3-.2,0,.1,0,.3.1.3.4.3.7.6,1.1.8.4.3.8.4,1.3.5,1.2.2,2.3.6,3.4.7,2,.4,4.1.4,6.1,0,1.5-.3,3.1-.6,4.7-.9,3-.5,6-.5,9,0,3.3.6,6.7.6,9.9,0,.4,0,.9,0,1.3.1,0,1-.6,2-1.6,2.2h0ZM54.6,225.6c-.4,2.3-1,4.5-1.6,6.7-1.5,5.8-3.3,11.6-5.2,17.3-.8,2.4-1.7,4.7-2.5,7.1-.7,2-1.5,4.1-2.2,6.1-.3.9-.9,1.2-1.8.8-.6-.3-1.3-.5-1.9-.8-.3-.1-.6-.3-.9-.5-.6-.4-1-1-.9-1.8.1-2.2.1-4.3.2-6.5.2-5.5.5-11,.7-16.5,0-1.8.1-3.5.1-5.3,0-2.4.3-4.8.8-7.2.4-2.2.9-4.4,1.4-6.6,0-.2.1-.4.2-.6,0-.2.3-.4.5-.4,1.2,0,2.4,0,3.6-.2,2.1-.2,4.2-.3,6.3-.5l2.9-.3c.4,3,.5,6.1.2,9.2h0ZM73.1,170.3c-1.5,3.3-3.5,6.3-5.4,9.4-1.5,2.6-3.2,5-4.9,7.4-1.3,1.6-2.3,3.4-3,5.3-.2.5-.5,1-.7,1.4-.9-.3-1.8-.6-2.8-1-3.3-1.2-6.7-2.3-10.1-3.1-.2,0-.4-.1-.6-.2-.4-.1-.6-.3-.4-.7.6-1.9.5-3.9,1-5.9.6-2.4,1.2-4.7,1.8-7.1.7-2.9,1.8-5.7,2.7-8.5.9-2.4,1.9-4.7,3.1-6.9l1.9-3.9c0-.2.2-.4.3-.5.6-.2,1,.1,1.4.3,1.3.6,2.5,1.3,3.8,1.8,1.8.7,3.6,1.3,5.5,1.8,1.9.6,3.7,1.4,5.4,2.3,0,0,.1,0,.1.1,0,1,0,2.1.1,3.1.2,1.4.4,2.7.6,4,0,.3,0,.5,0,.8h0ZM79.6,123.5c-2.5.2-4.9.5-7.4.7-1.7.2-3.5.4-5.2.6-1.2,0-2.4,0-3.6,0-.3,0-.5-.1-.7-.3-.4-.4-.7-.8-1-1.3-.3-.4-.3-.9,0-1.3.4-1,.3-1.1-.6-1.5l-.6-.3c0-.9-.1-1.8-.2-2.7.7-.2,1.4-.4,2.1-.6.9-.3,1.7-.7,2.6-1.1.2,0,.4-.3.4-.5-.6,0-1.3,0-1.9,0-1,0-2-.2-2.8-.7-.2,0-.3-.2-.5-.3-.6-.3-.8-.9-.7-1.5.3-1.6-.5-3.3-1.9-4.2-.9-.7-1.7-1.5-2.3-2.5-.2-.3-.3-.6-.4-1-.3-1.5-1-2.9-2.2-3.9-.6-.5-1-1.1-1.3-1.8,0-.2-.2-.3-.3-.5-.7-1.1-.9-2.5-.7-3.8,0-.6.3-1.2.5-1.8.1-.5.3-.9.4-1.4.6-1.7.6-3.5.3-5.3-.2-1.3-.4-2.6-.6-4,0-1.5.3-3,.9-4.4.5-1.3.9-2.6,1.1-3.9,0-.5.1-1,0-1.5-.1-1.8,0-3.6.6-5.3.7-2.6.9-5.3.3-7.9,0-.4-.3-.8-.6-1.1-.5-.4-.9-1-1.1-1.6-1.6-3-3.4-5.8-5.5-8.5-.8-1.1-1.9-2.1-3-2.9-1-.7-1.9-1.7-2.6-2.8-.5-.8-1-1.6-1.6-2.4-.3-.5-.8-.9-1.3-1.2-1.1-.6-2.2-1.1-3.3-1.7-.1,0-.3,0-.4,0-.3.2-.6.2-1,0l-2-.5c-1.7-.3-3.1-1.4-3.9-3-1.1-2-2.5-3.9-4.2-5.5-.4-.4-.8-.9-1.3-1.4-1.1-1.4-1.9-3.1-2.3-4.9-.2-.5,0-1,.5-1.2.3-.2.5-.5.8-.8.1-.1.3-.2.5-.3.3,0,.5-.2.8-.2,1.2-.2,2.4-.6,3.5-1.1.3-.2.7-.2,1.1,0,1.3.6,2.8.8,4.1.4.7-.1,1.4,0,2,.3,1.6.6,3.2,1,4.9,1.1.9,0,1.9.2,2.8.5.8.3,1.6.7,2.2,1.3,1,.8,1.8,1.7,2.7,2.6,0,0,.1.2.1.3-.1,0-.3,0-.4,0-1.7-.6-3.3-1.2-5-1.8-.6-.3-1.3-.6-2-.9-.1,0-.3,0-.4-.1,0,.3.2.6.4.8,1.2,1.3,2.6,2.3,4.2,2.9,1.1.4,2.2.8,3.2,1.3.8.4,1.5.8,2.2,1.3v.2c-.3,0-.7.2-1.1.3-1.7.3-3.3.9-4.9,1.7-.8.5-1.6,1.1-2.3,1.7-.2.1-.3.3-.4.5.3.4.8.3,1.2.3,1.6,0,3.2-.3,4.7-.8.8-.3,1.7-.4,2.5-.6,1.5-.3,3-.2,4.4.4l3.2,1.1c2.3.7,4.7,1,7.1.9,1,0,1.9.1,2.9.2.1,0,.2,0,.3.1,0,0,0,0,0,.1-.3,1.4-.3,2.8,0,4.1.2,1.6-.2,3.3-1.3,4.6-.6.9-1.3,1.7-1.9,2.6-.1.2-.2.4-.4.6.5,0,.8-.1,1.1-.2.8-.2,1.6-.4,2.3-.6.4-.1.8-.4,1.1-.7,1.3-1.2,2.1-2.9,2.3-4.6.2-.8.1-1.7-.1-2.5,0-.4-.2-.7-.2-1.2.1,0,.2,0,.3,0,1.4.6,2.8,1.1,4.1,1.8.7.4,1.3.9,1.8,1.6.7.7,1.4,1.5,2.1,2.3.9,1,2,1.8,3.3,2.3,1.9.7,3.9,1.3,5.9,2,.3,0,.7.2,1.1.2.9.2,1.7.4,2.6.6.2,0,.4.3.6.5.5.6,1,1.4,1.4,2.1.7.9,1.5,1.6,2.5,2.1,1.2.6,2.4,1.3,3.6,2,1.3.8,2.5,1.7,3.6,2.7.2.2.4.4.6.6h0s0,.1,0,.1h0c.1.2.3.3.4.5h0s0,0,0,0c.2.2.3.4.4.6h0c.1.2.3.4.4.6h0c.4.8.8,1.6,1.1,2.5.8,1.9,1.3,3.9,1.5,6,.1,1.8.8,3.6,1.8,5.1.8,1.2,1.4,2.7,1.6,4.1.3,2.3,1.2,4.5,2.4,6.5.6,1.1,1.3,2.2,1.9,3.3.4,1,.7,2,.7,3.1,0,.7,0,1.4.1,2.1,0,.5.1.9.3,1.3.8,1.6,1.2,3.3,1.1,5.1,0,.6-.1,1.1-.3,1.7-.2.8-.4,1.6-.6,2.4-.2.6-.4,1.2-.6,1.8-.2.6-.7,1.2-1.3,1.4-.2,0-.4,0-.5,0-.5,0-.9-.2-1.4-.3-.2,0-.4-.3-.6-.4-1.6-.9-3-2.1-4.1-3.5-.3-.3-.7-.6-1.1-.8-1.6-1.1-1.3-.8-1.3-2.4v-4.7c0-1.9-.2-3.9-.7-5.7h0c-.4-1.6-.5-3.3-.2-5,0-.8.2-1.5.2-2.3.2-1.7.4-3.5.5-5.2v-1.1h0c0-.3,0-.6,0-.9h0c0-.7-.2-1.4-.5-2,0-.3-.2-.6-.3-.9-.6.6-1,1.4-1.1,2.3-.2,1.8-.5,3.7-.6,5.5-.1,1.4-.5,2.8-1.1,4.1-.2.5-.4,1-.6,1.5-.2.4-.4.8-.6,1.3-.4-.3-.8-.5-1.3-.7-.4-.2-.8-.3-1.2-.4-.9,0-1.8-.4-2.6-.9-.9-.7-2-1.1-3.1-1.4-1.2-.4-2.3-1-3.4-1.8-.2-.2-.5-.3-.7-.3,0,.1.1.3.2.4,1.9,2.1,4.1,3.9,6.5,5.3,1.9,1.1,3.6,2.5,4.9,4.2.7.7,1.1,1.6,1.2,2.6,0,.5,0,.9.2,1.3.3,1.2.3,2.5,0,3.7-.5.2-1,0-1.4-.2-.9-.5-1.9-1-2.9-1.3-1.1-.4-2.2-.9-3.3-1.4-.4-.2-.8-.6-1.1-.9-1-1.1-2.2-2-3.6-2.8-1.3-.8-2.5-1.8-3.5-2.8-2-1.8-4-3.6-6-5.4-1.3-1.1-2.8-2-4.2-3.1-.1,0-.3-.1-.4-.1,0,.2.2.3.3.5.3.4.6.7.9,1.1,1.6,1.8,3.1,3.7,4.5,5.7.6.8,1.3,1.5,2.2,2.1,1.9,1.2,3.7,2.7,5.3,4.3.2.2.5.4.8.6.4.3.9.5,1.3.7,1.1.5,2.1,1.2,3,2.1.9.8,1.9,1.5,3,2.1,2.3,1.1,4,3.1,4.8,5.5.4,1.1.8,2.2,1.2,3.2,0,.2.1.4.1.6,0,.6,0,1.2-.1,1.9-1.2.4-2.5.6-3.8.6-1.6,0-3.3,0-4.9-.2-.8,0-1.7-.1-2.5,0-1.5.1-3,.3-4.4.5-.3,0-.6.1-.9.2.2.5.7.8,1.2.8,2.2.2,4.3.8,6.3,1.6,2.1.7,4.4.8,6.6.3,1.1-.3,2.3-.4,3.4-.4.2,0,.5,0,.7,0,0,0,.1.1,0,.2-.1,1.5,0,2.9.4,4.3.1.7,0,1.4-.1,2.1-.1,0-.3,0-.4,0-1.3-.2-2.5-.2-3.8.1-3.1.7-6.1,1.4-9.2,2.2-1.3.3-2.5.6-3.8,1-2,.5-4,.8-6,1h0ZM101.5,198.9c-2.8,1.6-5.9,2.5-9.1,2.9-.5,0-1,0-1.5-.1-.8-.2-1.7-.6-2.5-.9-.3-.1-.5-.4-.6-.7-.7-2.7-1.3-5.5-2.2-8.2-1.3-4.2-2.3-8.5-3.1-12.8-.1-.6-.3-1.3-.4-1.9,2.4-.2,4.8-.2,7.2-.5s4.7-.8,7.1-1.3c2.3-.6,4.6-1.5,6.8-2.5,0,.7,0,1.3,0,1.9.1,1.8.3,3.6.5,5.5,0,1.6,0,3.2-.3,4.8-.5,3-.9,6-1,9,0,.9,0,1.9.1,2.8.1.8-.3,1.6-1.1,1.9h0ZM114.7,245.7c-1.2-1.9-2.5-3.8-3.7-5.7-1.4-2.1-2.8-4.1-4.1-6.2-1.5-2.5-2.9-5.2-3.9-8,0-.1,0-.2-.1-.3l1.2-.6c2.9-1.5,5.3-3.6,7.2-6.2.6-.8,1.1-1.7,1.7-2.6.2-.3.4-.5.6-.8.2.3.4.5.6.7,2.1,3.2,4,6.5,5.6,9.9,2.3,5.1,4.4,10.3,6,15.7,1.2,4.2,2.3,8.4,3,12.6.2,1.2.4,2.3.7,3.5.1.4,0,.8-.4,1-1.5,1-3.2,1.6-5.1,1.7-.6-.9-1.3-1.9-1.9-2.8-2.4-4-4.9-8-7.4-11.9h0ZM108.6,277.3c.4,0,.8.2,1.2.3.3,0,.5.2.8.2.3.1.6,0,.7-.2.2-.3,0-.5-.2-.7-.4-.4-.5-.9-.4-1.4.3,0,.7,0,1,.3.3.2.5.4.8.6.4.3.9.4,1.3.1l-1.3-2.4c0-.1.2-.4.3-.7.4,0,.7.2.7.6,0,.6.6.8,1,1.2.2.2,1.1,0,1.3-.3.1-.2,0-.5-.1-.7-.4-.5-.6-1.1-.5-1.7h1.2c0-.2,0-.4,0-.6,0,0,.2-.1.3-.1.4,0,.8-.1.7-.7-.4-.3-.8-.6-1.2-.9-.3-.2-.4-.6-.3-.9.4-1.3.9-2.5,1.6-3.7.5-.8.9-1.7,1-2.7,0-.3,0-.6-.2-.8-.4-.5-.7-1-1-1.4.8-.5,1.5-.3,1.8.4.2.5.4,1,.6,1.5.1.5.5.9,1,1,.4.1.8.2,1.2.4.7.3,1.4.7,1.9,1.3-.1.3-.4.5-.7.6-.6.1-1.2.2-1.8.3-.2,0-.5,0-.5.4.1,0,.2.2.4.3.5.2,1,.5,1.5.7.2,0,.3.2.4.3,0,.5.4.5.9.6-.1,0-.3.1-.4.2-.2,0-.4,0-.6-.1-.6-.2-1.3-.4-2-.6s-.7-.2-1,.4c0,0,0,.2-.1.4l3.1,2.6c-.7.2-1.5,0-1.9-.6-.8.4-1.4-.4-2.1-.3-.2.3-.1.6.1.8,0,0,0,0,0,0,.7.8,1.6,1.5,2.6,2.1.3,0,.6.4.6.7-1.5,0-2.7-.9-4.2-1-.1.4,0,.9.4,1.1.3.2.5.6.6,1l-2,.5c.3.8,1.1,1.3,2,1,0,0,0,0,0,0,.9-.2,1.8.1,2.3.8-.2.4-.7.6-1.2.5-1.1-.2-2.2-.3-3.3-.5-.1,0-.2,0-.4,0,.2.6.6,1.2,1.3,1.4.6.1,1.2.3,1.8.5l-.4.7c-.7,0-1.4-.2-2.1-.5-.5-.4-1.1-.8-1.7-1.1-.9-.5-1-.4-1.7.5.1.1.3.2.4.3.3.2.6.3,1,.5.8.3,1.5.9,1.9,1.7-.4.3-1.1.3-1.5,0-.8-.5-1.6-1-2.5-1.5l-1,.5.9,1.3c-.6,0-1.3-.1-1.8-.5-.3-.3-.8-.4-1.2-.3-.8,0-1.5-.4-1.8-1.2l.5-.4.5-.3c-.4-.5-1-.8-1.2-1.6.3,0,.5,0,.8,0h0ZM139.1,280.2c0,.2-.2.3-.4.4-2.8,1.3-5.5,2.6-8.3,3.9-1.5.7-3,1.3-4.5,2-1.1.5-2.2,1-3.4,1.5-1.9.8-3.9,1.5-6,2-1.4.3-2.9.4-4.4.3-1.6-.1-3.2-.3-4.8-.7-1.2-.2-2.4-.5-3.5-.9-1.1-.4-2.2-.8-3.2-1.3-.7-.3-1.4-.6-2.2-1-.5-.3-.5-.3-.5-.9,0-.7.2-1.4.2-2.2,0-.9.6-1.8,1.5-2,1-.3,1.9-.9,2.6-1.6,0,0,.2-.1.3-.2,1,.8,1.7,2,2,3.2.1.6.4,1.1.5,1.7,0,.1,0,.3,0,.4,0,.5-.1,1-.2,1.7l-3.2-.5c0,.4.2.5.4.6,1,.7,2.1,1.2,3.2,1.5.7.2,1.4.4,2.1.5.4,0,.8.2,1.3.2,1.4.2,2.7.2,4.1,0,3-.3,5.8-1.2,8.5-2.6.4-.2.8-.4,1.1-.5,3.1-1.5,6.3-2.9,9.5-4.3,2-.8,3.9-2.1,5.4-3.6.1-.2.3-.3.5-.4h0l.9-.6c.3,0,.5.3.5.6,0,0,0,0,0,.1,0,.8,0,1.7-.3,2.5h0ZM225.6,265.6l6.1-18.1,5.7,18.1h-11.8Z"/>
          <path id="Tracé_23" data-name="Tracé 23" class="cls-1" d="M103.3,59.2c-.1-.2-.3-.4-.4-.6.1.2.3.4.4.6Z"/>
          <path id="Tracé_24" data-name="Tracé 24" class="cls-1" d="M103.3,59.2c.4.8.8,1.6,1.1,2.5-.3-.9-.7-1.7-1.1-2.5Z"/>
          <path id="Tracé_25" data-name="Tracé 25" class="cls-1" d="M101.9,57.3c-.2-.2-.4-.4-.6-.6.2.2.4.4.6.6h0Z"/>
          <path id="Tracé_26" data-name="Tracé 26" class="cls-1" d="M102.9,58.5c-.1-.2-.3-.4-.4-.6h0c.2.2.3.4.4.6Z"/>
          <path id="Tracé_27" data-name="Tracé 27" class="cls-1" d="M122.6,285.8l9.5-4.3c-3.2,1.4-6.3,2.8-9.5,4.3Z"/>
          <path id="Tracé_28" data-name="Tracé 28" class="cls-1" d="M37.9,286.8l-6.7-.6c2.2.3,4.5.5,6.7.6Z"/>
        </g>
      </g>
    </g>
  </g>
</svg>