<?xml version="1.0" encoding="UTF-8"?>
<svg id="Calque_2" xmlns="http://www.w3.org/2000/svg" version="1.1" viewBox="0 0 1077.17 1077.17">
  <!-- Generator: Adobe Illustrator 29.5.0, SVG Export Plug-In . SVG Version: 2.1.0 Build 137)  -->
  <defs>
    <style>
      .st0 {
        fill: none;
        stroke: #e30613;
        stroke-linecap: round;
        stroke-linejoin: round;
        stroke-width: .57px;
      }
    </style>
  </defs>
  <circle class="st0" cx="58.75" cy="28.47" r="3.29"/>
  <circle class="st0" cx="58.84" cy="51.17" r="3.29"/>
  <circle class="st0" cx="58.79" cy="73.93" r="3.29"/>
  <circle class="st0" cx="74.37" cy="89.42" r="3.29"/>
  <circle class="st0" cx="119.78" cy="89.4" r="3.29"/>
  <circle class="st0" cx="135.34" cy="73.87" r="3.29"/>
  <circle class="st0" cx="135.42" cy="51.14" r="3.29"/>
  <circle class="st0" cx="135.33" cy="28.49" r="3.29"/>
  <path class="st0" d="M126.26,20.34h1.24c11.5,0,20.81,4.28,20.81,9.57v71.46c0,.36.08.34,0,.68"/>
  <path class="st0" d="M45.63,102.05c-.08-.35-.05-.33-.05-.68V29.91c0-5.29,9.32-9.57,20.81-9.57h1.98"/>
  <polyline class="st0" points="126.26 20.34 126.26 42.63 68.38 42.63 68.38 20.34"/>
  <path class="st0" d="M148.32,102.05"/>
  <polyline class="st0" points="148.32 102.05 168.18 102.05 168.18 259.92 26.45 259.92 26.45 102.05 45.63 102.05"/>
  <circle class="st0" cx="97.32" cy="138.87" r="7.23"/>
  <circle class="st0" cx="97.32" cy="245.24" r="7.23"/>
  <path class="st0" d="M168.72,700.77c8.31,1.25,14.31,4.85,14.31,9.09v71.46c0,.36.08.34,0,.68"/>
  <path class="st0" d="M80.34,782c-.08-.35-.05-.33-.05-.68v-71.46c0-4.31,6.18-7.95,14.68-9.15"/>
  <path class="st0" d="M183.03,782"/>
  <polyline class="st0" points="183.03 782 202.89 782 202.89 939.87 61.16 939.87 61.16 782 80.34 782"/>
  <circle class="st0" cx="132.03" cy="818.82" r="7.23"/>
  <circle class="st0" cx="132.03" cy="925.19" r="7.23"/>
  <circle class="st0" cx="200.49" cy="28.47" r="3.29"/>
  <circle class="st0" cx="200.57" cy="51.17" r="3.29"/>
  <circle class="st0" cx="200.53" cy="73.93" r="3.29"/>
  <circle class="st0" cx="216.11" cy="89.42" r="3.29"/>
  <circle class="st0" cx="261.51" cy="89.4" r="3.29"/>
  <circle class="st0" cx="277.07" cy="73.87" r="3.29"/>
  <circle class="st0" cx="277.15" cy="51.14" r="3.29"/>
  <circle class="st0" cx="277.06" cy="28.49" r="3.29"/>
  <path class="st0" d="M267.99,20.34h1.24c11.5,0,20.81,4.28,20.81,9.57v71.46c0,.36.08.34,0,.68"/>
  <path class="st0" d="M187.37,102.05c-.08-.35-.05-.33-.05-.68V29.91c0-5.29,9.32-9.57,20.81-9.57h1.98"/>
  <polyline class="st0" points="267.99 20.34 267.99 42.63 210.11 42.63 210.11 20.34"/>
  <path class="st0" d="M290.05,102.05"/>
  <line class="st0" x1="168.18" y1="102.05" x2="187.37" y2="102.05"/>
  <polyline class="st0" points="290.05 102.05 309.92 102.05 309.92 259.92 168.18 259.92"/>
  <circle class="st0" cx="239.05" cy="138.87" r="7.23"/>
  <circle class="st0" cx="239.05" cy="245.24" r="7.23"/>
  <circle class="st0" cx="342.22" cy="28.47" r="3.29"/>
  <circle class="st0" cx="342.31" cy="51.17" r="3.29"/>
  <circle class="st0" cx="342.26" cy="73.93" r="3.29"/>
  <circle class="st0" cx="357.84" cy="89.42" r="3.29"/>
  <circle class="st0" cx="403.25" cy="89.4" r="3.29"/>
  <circle class="st0" cx="418.81" cy="73.87" r="3.29"/>
  <circle class="st0" cx="418.89" cy="51.14" r="3.29"/>
  <circle class="st0" cx="418.8" cy="28.49" r="3.29"/>
  <path class="st0" d="M409.73,20.34h1.24c11.5,0,20.81,4.28,20.81,9.57v71.46c0,.36.08.34,0,.68"/>
  <path class="st0" d="M329.1,102.05c-.08-.35-.05-.33-.05-.68V29.91c0-5.29,9.32-9.57,20.81-9.57h1.98"/>
  <polyline class="st0" points="409.73 20.34 409.73 42.63 351.85 42.63 351.85 20.34"/>
  <path class="st0" d="M431.79,102.05"/>
  <line class="st0" x1="309.92" y1="102.05" x2="329.1" y2="102.05"/>
  <polyline class="st0" points="431.79 102.05 451.65 102.05 451.65 259.92 309.92 259.92"/>
  <circle class="st0" cx="380.79" cy="138.87" r="7.23"/>
  <circle class="st0" cx="380.79" cy="245.24" r="7.23"/>
  <circle class="st0" cx="483.96" cy="28.47" r="3.29"/>
  <circle class="st0" cx="484.04" cy="51.17" r="3.29"/>
  <circle class="st0" cx="484" cy="73.93" r="3.29"/>
  <circle class="st0" cx="499.58" cy="89.42" r="3.29"/>
  <circle class="st0" cx="544.98" cy="89.4" r="3.29"/>
  <circle class="st0" cx="560.54" cy="73.87" r="3.29"/>
  <circle class="st0" cx="560.62" cy="51.14" r="3.29"/>
  <circle class="st0" cx="560.53" cy="28.49" r="3.29"/>
  <path class="st0" d="M551.46,20.34h1.24c11.5,0,20.81,4.28,20.81,9.57v71.46c0,.36.08.34,0,.68"/>
  <path class="st0" d="M470.84,102.05c-.08-.35-.05-.33-.05-.68V29.91c0-5.29,9.32-9.57,20.81-9.57h1.98"/>
  <polyline class="st0" points="551.46 20.34 551.46 42.63 493.58 42.63 493.58 20.34"/>
  <path class="st0" d="M573.52,102.05"/>
  <line class="st0" x1="451.65" y1="102.05" x2="470.84" y2="102.05"/>
  <polyline class="st0" points="573.52 102.05 593.39 102.05 593.39 259.92 451.65 259.92"/>
  <circle class="st0" cx="522.52" cy="138.87" r="7.23"/>
  <circle class="st0" cx="625.69" cy="28.47" r="3.29"/>
  <circle class="st0" cx="625.78" cy="51.17" r="3.29"/>
  <circle class="st0" cx="625.73" cy="73.93" r="3.29"/>
  <circle class="st0" cx="641.31" cy="89.42" r="3.29"/>
  <circle class="st0" cx="686.72" cy="89.4" r="3.29"/>
  <circle class="st0" cx="702.28" cy="73.87" r="3.29"/>
  <circle class="st0" cx="702.36" cy="51.14" r="3.29"/>
  <circle class="st0" cx="702.27" cy="28.49" r="3.29"/>
  <path class="st0" d="M693.2,20.34h1.24c11.5,0,20.81,4.28,20.81,9.57v71.46c0,.36.08.34,0,.68"/>
  <path class="st0" d="M612.57,102.05c-.08-.35-.05-.33-.05-.68V29.91c0-5.29,9.32-9.57,20.81-9.57h1.98"/>
  <polyline class="st0" points="693.2 20.34 693.2 42.63 635.32 42.63 635.32 20.34"/>
  <path class="st0" d="M715.26,102.05"/>
  <line class="st0" x1="593.39" y1="102.05" x2="612.57" y2="102.05"/>
  <polyline class="st0" points="715.26 102.05 735.12 102.05 735.12 259.92 593.39 259.92"/>
  <circle class="st0" cx="664.26" cy="138.87" r="7.23"/>
  <circle class="st0" cx="767.43" cy="28.47" r="3.29"/>
  <circle class="st0" cx="767.51" cy="51.17" r="3.29"/>
  <circle class="st0" cx="767.47" cy="73.93" r="3.29"/>
  <circle class="st0" cx="783.05" cy="89.42" r="3.29"/>
  <circle class="st0" cx="828.45" cy="89.4" r="3.29"/>
  <circle class="st0" cx="844.01" cy="73.87" r="3.29"/>
  <circle class="st0" cx="844.09" cy="51.14" r="3.29"/>
  <circle class="st0" cx="844" cy="28.49" r="3.29"/>
  <path class="st0" d="M834.93,20.34h1.24c11.5,0,20.81,4.28,20.81,9.57v71.46c0,.36.08.34,0,.68"/>
  <path class="st0" d="M754.31,102.05c-.08-.35-.05-.33-.05-.68V29.91c0-5.29,9.32-9.57,20.81-9.57h1.98"/>
  <polyline class="st0" points="834.93 20.34 834.93 42.63 777.05 42.63 777.05 20.34"/>
  <path class="st0" d="M856.98,102.05"/>
  <line class="st0" x1="735.12" y1="102.05" x2="754.31" y2="102.05"/>
  <polyline class="st0" points="856.98 102.05 876.86 102.05 876.86 259.92 735.12 259.92"/>
  <circle class="st0" cx="805.99" cy="138.87" r="7.23"/>
  <circle class="st0" cx="522.52" cy="245.24" r="7.23"/>
  <g>
    <circle class="st0" cx="139.25" cy="493.48" r="7.23"/>
    <circle class="st0" cx="139.25" cy="599.85" r="7.23"/>
    <circle class="st0" cx="139.25" cy="303.05" r="3.29"/>
    <circle class="st0" cx="139.25" cy="325.67" r="4.39"/>
    <circle class="st0" cx="116.53" cy="325.67" r="3.29"/>
    <circle class="st0" cx="139.25" cy="348.42" r="3.29"/>
    <circle class="st0" cx="162.04" cy="325.67" r="3.29"/>
    <path class="st0" d="M172.24,366.77v-40.81c0-18.23-14.78-33-33-33h0c-18.23,0-33,14.78-33,33v40.81l-9.52,96.27"/>
    <line class="st0" x1="172.24" y1="362.1" x2="172.24" y2="366.77"/>
    <path class="st0" d="M172.24,366.77"/>
    <line class="st0" x1="172.24" y1="366.77" x2="181.75" y2="463.04"/>
    <polyline class="st0" points="181.75 463.04 210.12 463.04 210.12 618.95 68.39 618.95 68.39 463.04 91.04 463.04"/>
    <line class="st0" x1="91.04" y1="463.04" x2="96.71" y2="463.04"/>
    <circle class="st0" cx="280.98" cy="493.48" r="7.23"/>
    <circle class="st0" cx="280.98" cy="599.85" r="7.23"/>
    <circle class="st0" cx="280.98" cy="303.05" r="3.29"/>
    <circle class="st0" cx="280.98" cy="325.67" r="4.39"/>
    <circle class="st0" cx="258.26" cy="325.67" r="3.29"/>
    <circle class="st0" cx="280.98" cy="348.42" r="3.29"/>
    <circle class="st0" cx="303.77" cy="325.67" r="3.29"/>
    <path class="st0" d="M313.97,366.77v-40.81c0-18.23-14.78-33-33-33h0c-18.23,0-33,14.78-33,33v40.81l-9.52,96.27"/>
    <line class="st0" x1="313.97" y1="362.1" x2="313.97" y2="366.77"/>
    <path class="st0" d="M313.97,366.77"/>
    <line class="st0" x1="313.97" y1="366.77" x2="323.48" y2="463.04"/>
    <line class="st0" x1="210.12" y1="463.04" x2="232.77" y2="463.04"/>
    <polyline class="st0" points="323.48 463.04 351.85 463.04 351.85 618.95 210.12 618.95"/>
    <line class="st0" x1="232.77" y1="463.04" x2="238.44" y2="463.04"/>
  </g>
  <g>
    <circle class="st0" cx="422.72" cy="493.48" r="7.23"/>
    <circle class="st0" cx="422.72" cy="599.85" r="7.23"/>
    <circle class="st0" cx="422.72" cy="303.05" r="3.29"/>
    <circle class="st0" cx="422.72" cy="325.67" r="4.39"/>
    <circle class="st0" cx="400" cy="325.67" r="3.29"/>
    <circle class="st0" cx="422.72" cy="348.42" r="3.29"/>
    <circle class="st0" cx="445.5" cy="325.67" r="3.29"/>
    <path class="st0" d="M455.7,366.77v-40.81c0-18.23-14.78-33-33-33h0c-18.23,0-33,14.78-33,33v40.81l-9.52,96.27"/>
    <line class="st0" x1="455.7" y1="362.1" x2="455.7" y2="366.77"/>
    <path class="st0" d="M455.7,366.77"/>
    <line class="st0" x1="455.7" y1="366.77" x2="465.21" y2="463.04"/>
    <line class="st0" x1="351.85" y1="463.04" x2="374.5" y2="463.04"/>
    <polyline class="st0" points="465.21 463.04 493.58 463.04 493.58 618.95 351.85 618.95"/>
    <line class="st0" x1="374.5" y1="463.04" x2="380.17" y2="463.04"/>
    <circle class="st0" cx="564.45" cy="493.48" r="7.23"/>
    <circle class="st0" cx="564.45" cy="599.85" r="7.23"/>
    <circle class="st0" cx="564.45" cy="303.05" r="3.29"/>
    <circle class="st0" cx="564.45" cy="325.67" r="4.39"/>
    <circle class="st0" cx="541.73" cy="325.67" r="3.29"/>
    <circle class="st0" cx="564.45" cy="348.42" r="3.29"/>
    <circle class="st0" cx="587.23" cy="325.67" r="3.29"/>
    <path class="st0" d="M597.43,366.77v-40.81c0-18.23-14.78-33-33-33h0c-18.23,0-33,14.78-33,33v40.81l-9.52,96.27"/>
    <line class="st0" x1="597.43" y1="362.1" x2="597.43" y2="366.77"/>
    <path class="st0" d="M597.43,366.77"/>
    <line class="st0" x1="597.43" y1="366.77" x2="606.94" y2="463.04"/>
    <line class="st0" x1="493.58" y1="463.04" x2="516.23" y2="463.04"/>
    <polyline class="st0" points="606.94 463.04 635.31 463.04 635.31 618.95 493.58 618.95"/>
    <line class="st0" x1="516.23" y1="463.04" x2="521.9" y2="463.04"/>
  </g>
  <g>
    <circle class="st0" cx="706.18" cy="493.51" r="7.23"/>
    <circle class="st0" cx="706.18" cy="599.88" r="7.23"/>
    <circle class="st0" cx="706.18" cy="303.08" r="3.29"/>
    <circle class="st0" cx="706.18" cy="325.7" r="4.39"/>
    <circle class="st0" cx="683.46" cy="325.7" r="3.29"/>
    <circle class="st0" cx="706.18" cy="348.45" r="3.29"/>
    <circle class="st0" cx="728.96" cy="325.7" r="3.29"/>
    <path class="st0" d="M739.16,366.8v-40.81c0-18.23-14.78-33-33-33h0c-18.23,0-33,14.78-33,33v40.81l-9.52,96.27"/>
    <line class="st0" x1="739.16" y1="362.13" x2="739.16" y2="366.8"/>
    <path class="st0" d="M739.16,366.8"/>
    <line class="st0" x1="739.16" y1="366.8" x2="748.68" y2="463.07"/>
    <line class="st0" x1="635.31" y1="463.07" x2="657.96" y2="463.07"/>
    <polyline class="st0" points="748.68 463.07 777.04 463.07 777.04 618.97 635.31 618.97"/>
    <line class="st0" x1="657.96" y1="463.07" x2="663.64" y2="463.07"/>
    <circle class="st0" cx="847.91" cy="493.51" r="7.23"/>
    <circle class="st0" cx="847.91" cy="599.88" r="7.23"/>
    <circle class="st0" cx="847.91" cy="303.08" r="3.29"/>
    <circle class="st0" cx="847.91" cy="325.7" r="4.39"/>
    <circle class="st0" cx="825.19" cy="325.7" r="3.29"/>
    <circle class="st0" cx="847.91" cy="348.45" r="3.29"/>
    <circle class="st0" cx="870.69" cy="325.7" r="3.29"/>
    <path class="st0" d="M880.89,366.8v-40.81c0-18.23-14.78-33-33-33h0c-18.23,0-33,14.78-33,33v40.81l-9.52,96.27"/>
    <line class="st0" x1="880.89" y1="362.13" x2="880.89" y2="366.8"/>
    <path class="st0" d="M880.89,366.8"/>
    <line class="st0" x1="880.89" y1="366.8" x2="890.41" y2="463.07"/>
    <line class="st0" x1="777.04" y1="463.07" x2="799.69" y2="463.07"/>
    <polyline class="st0" points="890.41 463.07 918.77 463.07 918.77 618.97 777.04 618.97"/>
    <line class="st0" x1="799.69" y1="463.07" x2="805.37" y2="463.07"/>
  </g>
  <path class="st0" d="M94.97,700.62v-26.35c0-9.53,7.72-17.25,17.25-17.25h39.29c9.53,0,17.25,7.72,17.25,17.25v26.72"/>
  <circle class="st0" cx="131.86" cy="689.91" r="7.51"/>
  <path class="st0" d="M310.45,700.77c8.31,1.25,14.31,4.85,14.31,9.09v71.46c0,.36.08.34,0,.68"/>
  <path class="st0" d="M222.07,782c-.08-.35-.05-.33-.05-.68v-71.46c0-4.31,6.18-7.95,14.68-9.15"/>
  <path class="st0" d="M324.76,782"/>
  <line class="st0" x1="202.89" y1="782" x2="222.07" y2="782"/>
  <polyline class="st0" points="324.76 782 344.62 782 344.62 939.87 202.89 939.87"/>
  <circle class="st0" cx="273.76" cy="818.82" r="7.23"/>
  <circle class="st0" cx="273.76" cy="925.19" r="7.23"/>
  <path class="st0" d="M236.7,700.62v-26.35c0-9.53,7.72-17.25,17.25-17.25h39.29c9.53,0,17.25,7.72,17.25,17.25v26.72"/>
  <circle class="st0" cx="273.59" cy="689.91" r="7.51"/>
  <path class="st0" d="M452.18,700.77c8.31,1.25,14.31,4.85,14.31,9.09v71.46c0,.36.08.34,0,.68"/>
  <path class="st0" d="M363.8,782c-.08-.35-.05-.33-.05-.68v-71.46c0-4.31,6.18-7.95,14.68-9.15"/>
  <path class="st0" d="M466.49,782"/>
  <line class="st0" x1="344.62" y1="782" x2="363.8" y2="782"/>
  <polyline class="st0" points="466.49 782 486.35 782 486.35 939.87 344.62 939.87"/>
  <circle class="st0" cx="415.49" cy="818.82" r="7.23"/>
  <circle class="st0" cx="415.49" cy="925.19" r="7.23"/>
  <path class="st0" d="M378.43,700.62v-26.35c0-9.53,7.72-17.25,17.25-17.25h39.29c9.53,0,17.25,7.72,17.25,17.25v26.72"/>
  <circle class="st0" cx="415.32" cy="689.91" r="7.51"/>
  <path class="st0" d="M593.91,700.77c8.31,1.25,14.31,4.85,14.31,9.09v71.46c0,.36.08.34,0,.68"/>
  <path class="st0" d="M505.53,782c-.08-.35-.05-.33-.05-.68v-71.46c0-4.31,6.18-7.95,14.68-9.15"/>
  <path class="st0" d="M608.22,782"/>
  <line class="st0" x1="486.35" y1="782" x2="505.53" y2="782"/>
  <polyline class="st0" points="608.22 782 628.08 782 628.08 939.87 486.35 939.87"/>
  <circle class="st0" cx="557.22" cy="818.82" r="7.23"/>
  <circle class="st0" cx="557.22" cy="925.19" r="7.23"/>
  <path class="st0" d="M520.16,700.62v-26.35c0-9.53,7.72-17.25,17.25-17.25h39.29c9.53,0,17.25,7.72,17.25,17.25v26.72"/>
  <circle class="st0" cx="557.05" cy="689.91" r="7.51"/>
  <path class="st0" d="M735.64,700.77c8.31,1.25,14.31,4.85,14.31,9.09v71.46c0,.36.08.34,0,.68"/>
  <path class="st0" d="M647.26,782c-.08-.35-.05-.33-.05-.68v-71.46c0-4.31,6.18-7.95,14.68-9.15"/>
  <path class="st0" d="M749.95,782"/>
  <line class="st0" x1="628.08" y1="782" x2="647.26" y2="782"/>
  <polyline class="st0" points="749.95 782 769.81 782 769.81 939.87 628.08 939.87"/>
  <circle class="st0" cx="698.95" cy="818.82" r="7.23"/>
  <circle class="st0" cx="698.95" cy="925.19" r="7.23"/>
  <path class="st0" d="M661.89,700.62v-26.35c0-9.53,7.72-17.25,17.25-17.25h39.29c9.53,0,17.25,7.72,17.25,17.25v26.72"/>
  <circle class="st0" cx="698.78" cy="689.91" r="7.51"/>
  <path class="st0" d="M877.37,700.77c8.31,1.25,14.31,4.85,14.31,9.09v71.46c0,.36.08.34,0,.68"/>
  <path class="st0" d="M788.99,782c-.08-.35-.05-.33-.05-.68v-71.46c0-4.31,6.18-7.95,14.68-9.15"/>
  <path class="st0" d="M891.68,782"/>
  <line class="st0" x1="769.81" y1="782" x2="788.99" y2="782"/>
  <polyline class="st0" points="891.68 782 911.54 782 911.54 939.87 769.81 939.87"/>
  <circle class="st0" cx="840.68" cy="818.82" r="7.23"/>
  <circle class="st0" cx="840.68" cy="925.19" r="7.23"/>
  <path class="st0" d="M803.62,700.62v-26.35c0-9.53,7.72-17.25,17.25-17.25h39.29c9.53,0,17.25,7.72,17.25,17.25v26.72"/>
  <circle class="st0" cx="840.51" cy="689.91" r="7.51"/>
  <path class="st0" d="M930.72,782c-.08-.35-.05-.33-.05-.68"/>
  <path class="st0" d="M911.54,939.87"/>
</svg>