M48
;GenerationSoftware,Autodesk,EAGLE,9.2.0*%
;CreationDate,2018-10-10T06:23:23Z*%
FMAT,2
ICI,OFF
METRIC,TZ,000.000
T12C0.350
T11C0.500
T10C0.650
T9C0.800
T8C0.850
T7C1.016
T6C1.105
T5C2.032
T4C2.540
T3C3.048
T2C4.064
T1C6.604
%
G90
M71
T1
X76200Y71501
X22860Y71501
T2
X50165Y38125
T3
X3810Y95123
X93980Y3835
X3810Y53721
X93980Y53721
X93980Y95123
X3810Y3835
X3810Y45237
X93980Y45237
T4
X31750Y71501
X67310Y71501
X85090Y71501
X13970Y71501
T5
X35560Y93853
X35560Y89281
T6
X78740Y42062
X81280Y42062
X83820Y42062
X86360Y42062
X88900Y42062
X6985Y72263
X6985Y74803
X6985Y77343
X6985Y82423
X76200Y42062
X6985Y87503
X6985Y90043
X6985Y84963
X6985Y79883
X71120Y42062
X73660Y42062
T7
X90805Y72263
X90805Y74803
X90805Y77343
X26670Y42062
X90805Y79883
X90805Y84963
X90805Y87503
X8890Y42062
X16510Y42062
X21590Y42062
X13970Y42062
X19050Y42062
X11430Y42062
X71120Y56896
X73660Y56896
X76200Y56896
X90805Y82423
X81280Y56896
X83820Y56896
X86360Y56896
X88900Y56896
X24130Y42062
X90805Y90043
X78740Y56896
T8
X92710Y70485
X40005Y60849
X26035Y92075
X25717Y87947
T9
X45720Y78613
X45720Y73533
X45720Y70993
X45720Y68453
X45720Y65913
X45720Y63373
X45720Y60833
X45720Y58293
X60960Y58293
X60960Y60833
X60960Y63373
X60960Y65913
X60960Y68453
X60960Y70993
X60960Y73533
X60960Y76073
X60960Y78613
X60960Y81153
X60960Y83693
X60960Y86233
X60960Y91313
X60960Y93853
X60960Y88773
X45720Y76073
X45720Y93853
X45720Y91313
X45720Y88773
X45720Y86233
X45720Y83693
X45720Y81153
T10
X86106Y66167
X86868Y68199
X85344Y78232
X33020Y77724
X86487Y76454
X17907Y81788
X31496Y79502
X12065Y75311
X65532Y76708
X29464Y81280
X66548Y78232
X65532Y67183
X66548Y65151
X15621Y80391
X68072Y63373
X84582Y63627
X33401Y66675
X32258Y64770
X30480Y63119
X15240Y61976
X14097Y63119
X13081Y64516
X11176Y73279
T11
X28892Y58737
T12
X9144Y33020
X44069Y3429
X41910Y34290
X27940Y29210
X41275Y91313
X8890Y14224
X69215Y12065
X36195Y12065
X67945Y36195
X38100Y88392
X61976Y53340
X4572Y33528
X67945Y27940
X62230Y27940
X12192Y4064
X26035Y77470
X78994Y87503
X86614Y84709
X80645Y76962
X24130Y37465
X66040Y40640
X40640Y64135
X82677Y74549
X75184Y93472
X11430Y30480
X2540Y29464
X60960Y1905
X27940Y1905
X27305Y31750
X36195Y36830
X36195Y31750
X87630Y3175
X29210Y10795
X33020Y7620
X82804Y93472
X52070Y85090
X52070Y63500
X52070Y69850
X53340Y79883
X48260Y79883
X67310Y93853
X36195Y39370
X56515Y40640
X88900Y64135
X58420Y40640
X41300Y8128
X59690Y5080
X27940Y5080
X9550Y6350
X90170Y8255
X17145Y78105
X71120Y75565
X54610Y35560
M30